<svg version="1.1" viewBox="0 0 24 24" xmlns="http://www.w3.org/2000/svg"><path d="m14.847 5.3571h-.94915v-.94915h.94915m-4.7458.94915h-.94915v-.94915h.94915m5.2488-1.7464 1.2434-1.2434c.18034-.18034.18034-.48407 0-.6739-.18983-.18034-.49356-.18034-.6739 0l-1.4047 1.4047c-.75932-.37017-1.6136-.58847-2.5153-.58847-.91119 0-1.7654.21831-2.5247.59797l-1.4142-1.4142c-.18034-.18034-.48407-.18034-.66441 0-.18983.18983-.18983.49356 0 .6739l1.2434 1.2434c-1.4142 1.0441-2.3349 2.6956-2.3349 4.5939h11.39c0-1.8983-.94915-3.5593-2.3444-4.5939m4.7173 5.5431a1.4237 1.4237 0 0 0 -1.4237 1.4237v6.6441a1.4237 1.4237 0 0 0 1.4237 1.4237 1.4237 1.4237 0 0 0 1.4237 -1.4237v-6.6441a1.4237 1.4237 0 0 0 -1.4237 -1.4237m-16.136 0a1.4237 1.4237 0 0 0 -1.4237 1.4237v6.6441a1.4237 1.4237 0 0 0 1.4237 1.4237 1.4237 1.4237 0 0 0 1.4237 -1.4237v-6.6441a1.4237 1.4237 0 0 0 -1.4237 -1.4237m2.3729 9.4915a.94915 .94915 0 0 0 .94915 .94915h.94915v3.322a1.4237 1.4237 0 0 0 1.4237 1.4237 1.4237 1.4237 0 0 0 1.4237 -1.4237v-3.322h1.8983v3.322a1.4237 1.4237 0 0 0 1.4237 1.4237 1.4237 1.4237 0 0 0 1.4237 -1.4237v-3.322h.94915a.94915 .94915 0 0 0 .94915 -.94915v-9.4915h-11.39z" fill="#c0ca33" stroke-width=".94915" style="fill:#8bc34a"/></svg>
