<svg version="1.1" viewBox="0 0 100 100" xmlns="http://www.w3.org/2000/svg">
<title>api-blueprint</title>
<desc>Created with Sketch.</desc>
<path d="m50.001 8.2165a16.998 16.998 0 0 0 -16.998 16.998 16.998 16.998 0 0 0 4.9453 11.973l-13.219 20.906a16.998 16.998 0 0 0 -3.1758 -.30859 16.998 16.998 0 0 0 -16.998 16.998 16.998 16.998 0 0 0 16.998 16.998 16.998 16.998 0 0 0 16.998 -16.998 16.998 16.998 0 0 0 -7.0625 -13.773l12.576-19.889a16.998 16.998 0 0 0 5.9355 1.0918 16.998 16.998 0 0 0 6.1543 -1.1543l12.537 19.83a16.998 16.998 0 0 0 -7.2441 13.895 16.998 16.998 0 0 0 16.998 17 16.998 16.998 0 0 0 16.998 -17 16.998 16.998 0 0 0 -16.998 -16.998 16.998 16.998 0 0 0 -2.9492 .26172l-13.293-21.025a16.998 16.998 0 0 0 4.7949 -11.807 16.998 16.998 0 0 0 -16.998 -16.998z" fill="#42a5f5"/>
</svg>
