<svg version="1.1" viewBox="0 0 140 140" xmlns="http://www.w3.org/2000/svg">
<title>Browserslist logo</title>
<g transform="translate(10.508 10.205)" stroke-width=".85468">
<circle cx="59.492" cy="59.795" r="59.828" fill="#ffca28"/>
<path transform="translate(-10.823,-10.1)" d="m65.479 18.852c-4.8907 3.464-8.8616 8.5082-11.791 14.262-2.1978-2.2802-4.1852-5.0495-6.1113-8.6719-3.3173 4.9757-5.2157 11.09-5.8926 17.496-2.8069-1.3351-5.6003-3.1805-8.6309-5.8145-1.3131 5.8307-.89378 12.216.76758 18.436-3.1634-.22266-6.4982-.95023-10.359-2.3555.8643 5.9191 3.5469 11.737 7.332 16.951-2.978.88522-6.2868 1.3828-10.299 1.4531 2.9378 5.2324 7.5459 9.714 12.971 13.23-2.5045 1.9585-5.4776 3.6534-9.2988 5.1973 4.5965 3.8151 10.474 6.3415 16.766 7.6855-1.6199 2.6467-3.7433 5.2279-6.6738 7.9609 5.6503 1.9113 12.03 2.1651 18.377 1.1699-.55658 3.0977-1.6262 6.3134-3.4121 9.9746h.002c5.9767-.24081 12.042-2.3006 17.623-5.5195.59978 3.1067.75935 6.5087.40234 10.592 12.047-5.1904 21.395-18.638 24.695-31.951.89979-2.4075 1.3848-5.8814 1.3848-10.699 0-1.294-.03126-2.5324-.07617-3.7461 9.7422-1.6548 16.839-5.0011 20.914-7.3906 1.4942-.87594 3.0097-2.1638 3.4961-3.2188.00028-.000595-.00027-.0014 0-.002a5.1281 5.1281 0 0 0 -3.6992 -8.4355 5.1281 5.1281 0 0 0 -5.1836 3.8887c-7.9212-4.122-16.98-12.477-14.779-24.551 1.6461-2.2984 3.9465-4.6023 7.1289-7.0156-5.9516-.69788-12.275.39207-18.301 2.707-.09563-3.1355.27997-6.4922 1.2617-10.43-5.7759 1.4732-11.262 4.7326-16.041 9.0195-1.2205-2.9011-2.076-6.1795-2.5723-10.223zm26.465 19.557c-.01541 6.1173 2.6477 11.628 7.4121 16.281 4.3663 4.2654 10.426 7.5505 15.258 8.7949.29823.32793.33094.72812-.0352 1.2852-.39163.30367-.82531.60284-1.2754.86719-4.6127 2.7042-10.256 5.0187-16.871 6.5059-1.071.24074-2.1539.45829-3.25.64844-.2649-4.9449-.84737-9.2428-1.4219-13.125a3.4187 3.4187 0 1 0 -.0918 -6.7031 2.1376 2.1376 0 0 1 -.2793 4.1777c-1.1106-7.4356-1.8404-13.218.55469-18.732z" fill="#37474f"/>
</g>
</svg>
