<svg version="1.1" viewBox="0 0 24 24" xmlns="http://www.w3.org/2000/svg"><path d="m12 7.1751c1.0034 0 1.8079-.81356 1.8079-1.8079 0-.3435-.0904-.65989-.26215-.93107l-1.5458-2.6847-1.5458 2.6847c-.17175.27119-.26215.58757-.26215.93107a1.8079 1.8079 0 0 0 1.8079 1.8079m4.1582 9.0395-.96723-.97627-.97627.97627c-1.1751 1.1661-3.2362 1.1751-4.4203 0l-.95819-.97627-.99435.97627c-.58757.57853-1.374.90396-2.2056.90396-.65989 0-1.2655-.20791-1.7718-.55141v4.1672a.90395 .90395 0 0 0 .90395 .90396h14.463a.90395 .90395 0 0 0 .90395 -.90396v-4.1672c-.50621.3435-1.1119.55141-1.7718.55141-.83164 0-1.6181-.32542-2.2056-.90396m1.2655-6.3277h-4.5198v-1.8079h-1.8079v1.8079h-4.5198a2.7119 2.7119 0 0 0 -2.7119 2.7119v1.3921c0 .97627.79548 1.7718 1.7718 1.7718.48814 0 .94011-.18079 1.2475-.51525l1.9525-1.9254 1.9073 1.9254c.66893.66893 1.835.66893 2.504 0l1.9164-1.9254 1.9435 1.9254c.31638.33446.76836.51525 1.2475.51525.97627 0 1.7808-.79548 1.7808-1.7718v-1.3921a2.7119 2.7119 0 0 0 -2.7119 -2.7119z" style="fill:#ff7043;stroke-width:.90395"/></svg>
