<?xml version="1.0" encoding="UTF-8"?>
<svg width="300" height="300" version="1.1" viewBox="0 0 300 300" xmlns="http://www.w3.org/2000/svg" xmlns:cc="http://creativecommons.org/ns#" xmlns:dc="http://purl.org/dc/elements/1.1/" xmlns:rdf="http://www.w3.org/1999/02/22-rdf-syntax-ns#">
 <metadata>
  <rdf:RDF>
   <cc:Work rdf:about="">
    <dc:format>image/svg+xml</dc:format>
    <dc:type rdf:resource="http://purl.org/dc/dcmitype/StillImage"/>
    <dc:title/>
   </cc:Work>
  </rdf:RDF>
 </metadata>
 <circle cx="150" cy="150" r="30.221" style="fill:#424242;stroke-width:4.0451"/>
 <path d="m148.1 23.078c-59.135 0-108.82 40.456-122.92 95.193-.12135.48136-.21331.9872-.21331 1.509 0 3.3372 2.7067 6.0439 6.0439 6.0439h51.172c2.4392 0 4.5204-1.4483 5.4751-3.5316 0 0 .07843-.14441.1027-.21317 10.55-22.766 33.591-38.562 60.328-38.562 36.717 0 66.483 29.762 66.483 66.483 0 36.721-29.758 66.483-66.475 66.483-26.738 0-49.775-15.801-60.328-38.562-.02831-.0728-.1027-.21318-.1027-.21318a6.0231 6.0231 0 0 0 -5.4751 -3.5316h-51.18c-3.3412-.00024-6.0439 2.7065-6.0439 6.0437 0 .52182.08792 1.0276.21331 1.509 14.097 54.738 63.782 95.193 122.92 95.193 70.097 0 126.92-56.829 126.92-126.92 0-70.093-56.825-126.92-126.92-126.92z" style="fill:#424242;stroke-width:4.0451"/>
</svg>
