<svg version="1.1" viewBox="0 0 24 24" xmlns="http://www.w3.org/2000/svg">
<rect transform="rotate(90)" x="2.2565" y="-21.744" width="19.487" height="19.487" ry="0" fill="#0d3858" stroke="#4dd0e1" stroke-width=".7"/>
<g transform="translate(-.13241 -.040597)" fill="#4dd0e1" stroke-width=".72501" aria-label="Cf">
<path d="m12.697 16.114q-.82559.43616-2.0562.43616-1.5889 0-2.5443-1.0229-.9554-1.0229-.9554-2.6845 0-1.7862 1.0748-2.887 1.0748-1.1008 2.726-1.1008 1.0592 0 1.755.30635v.92944q-.79963-.44655-1.7654-.44655-1.2825 0-2.0821.85674-.79443.85674-.79443 2.2898 0 1.3604.74251 2.1704.7477.80482 1.9575.80482 1.1216 0 1.942-.49847z"/>
<path d="m17.123 8.491q-.27759-.15615-.63037-.15615-.99471 0-.99471 1.255v.91375h1.388v.80965h-1.388v5.1124h-.94266v-5.1124h-1.0121v-.80965h1.0121v-.96001q0-.9311.53784-1.4689.53784-.54362 1.3417-.54362.43374 0 .6882.1041z"/>
</g>
</svg>
