<svg style="enable-background:new 0 0 41 34.5" version="1.1" viewBox="0 0 41 34.5" xml:space="preserve" xmlns="http://www.w3.org/2000/svg" xmlns:xlink="http://www.w3.org/1999/xlink"><style type="text/css">
	.st0{fill:#FFFFFF;}
	.st1{clip-path:url(#SVGID_4_);}
</style><g transform="translate(.29237 1.9004)" style="fill:#0087c9"><g style="fill:#0087c9"><g style="fill:#0087c9"><title>Group 3</title><desc>Created with Sketch.</desc><g style="fill:#0087c9"><g style="fill:#0087c9"><g style="fill:#0087c9"><path id="SVGID_1_" class="st0" d="m8.7 24c-1.1 0-2.1-.9-2.1-2s.9-2 2.1-2 2.1.9 2.1 2-1 2-2.1 2zm25.8-10.9c-.2-1.6-1.2-2.9-2.5-3.9l-.5-.4-.4.5c-.8.9-1.1 2.5-1 3.7.1.9.4 1.8.9 2.5-.4.2-.9.4-1.3.6-.9.3-1.8.4-2.7.4h-25.9l-.1.6c-.2 1.9.1 3.9.9 5.7l.4.7v.1c2.4 4 6.7 5.8 11.4 5.8 9 0 16.4-3.9 19.9-12.3 2.3.1 4.6-.5 5.7-2.7l.3-.5-.5-.3c-1.3-.8-3.1-.9-4.6-.5zm-12.9-1.6h-3.9v3.9h3.9zm0-4.9h-3.9v3.9h3.9zm0-5h-3.9v3.9h3.9zm4.8 9.9h-3.9v3.9h3.9zm-14.5 0h-3.9v3.9h3.9zm4.9 0h-3.9v3.9h3.9zm-9.7 0h-3.9v3.9h3.9zm9.7-4.9h-3.9v3.9h3.9zm-4.9 0h-3.9v3.9h3.9z" style="fill:#0087c9"/></g><g style="fill:#0087c9"><defs><path id="SVGID_2_" d="m8.7 24c-1.1 0-2.1-.9-2.1-2s.9-2 2.1-2 2.1.9 2.1 2-1 2-2.1 2zm25.8-10.9c-.2-1.6-1.2-2.9-2.5-3.9l-.5-.4-.4.5c-.8.9-1.1 2.5-1 3.7.1.9.4 1.8.9 2.5-.4.2-.9.4-1.3.6-.9.3-1.8.4-2.7.4h-25.9l-.1.6c-.2 1.9.1 3.9.9 5.7l.4.7v.1c2.4 4 6.7 5.8 11.4 5.8 9 0 16.4-3.9 19.9-12.3 2.3.1 4.6-.5 5.7-2.7l.3-.5-.5-.3c-1.3-.8-3.1-.9-4.6-.5zm-12.9-1.6h-3.9v3.9h3.9zm0-4.9h-3.9v3.9h3.9zm0-5h-3.9v3.9h3.9zm4.8 9.9h-3.9v3.9h3.9zm-14.5 0h-3.9v3.9h3.9zm4.9 0h-3.9v3.9h3.9zm-9.7 0h-3.9v3.9h3.9zm9.7-4.9h-3.9v3.9h3.9zm-4.9 0h-3.9v3.9h3.9z"/></defs><clipPath id="SVGID_4_"><use width="100%" height="100%" xlink:href="#SVGID_2_"/></clipPath><g class="st1" clip-path="url(#SVGID_4_)" style="fill:#0087c9"><g style="fill:#0087c9"><g style="fill:#0087c9"><rect id="SVGID_3_" class="st0" x="-48.8" y="-21" width="1274.8" height="151.4" style="fill:#0087c9"/></g></g></g></g></g></g></g></g></g></svg>
