<svg width="3.473in" height="3.473in" clip-rule="evenodd" fill-rule="evenodd" image-rendering="optimizeQuality" shape-rendering="geometricPrecision" text-rendering="geometricPrecision" version="1.1" viewBox="0 0 3473 3473" xml:space="preserve" xmlns="http://www.w3.org/2000/svg"><defs><style type="text/css"><![CDATA[
    .fil2 {fill:#020202}
    .fil0 {fill:#E3E3F8}
    .fil5 {fill:#EFEFEF}
    .fil6 {fill:#FAF1F1}
    .fil3 {fill:#FDF2F2}
    .fil1 {fill:#FDFDFD}
    .fil4 {fill:#FEF3F3}
   ]]></style></defs><g transform="matrix(.89449 0 0 .89449 124.37 282.35)"><g fill="#e3e3f8"><path class="fil0" d="m967 1895c46-30 84-105 61-158-63 27-60 89-61 158z"/><path class="fil0" d="m1679 2067c50-16 98-72 71-130-39 27-64 64-71 130z"/></g><g fill="#fdfdfd"><path class="fil1" d="m280 2895c0 63 16 131 60 155 162 91 730 20 923-23 101-23 183-98 278-139 214-93 369-168 540-293 124-91 321-347 342-500l-169-38c-4 172-43 211-196 251-103 28-304 34-409 16-139-23-202-96-265-179-122-162 27-275-166-286-203 249-561 70-718 45-67 97-224 727-222 871 97-33 158 3 245 37 308 119 39 224-84 193-84-20-110-75-159-110z"/><path class="fil1" d="m683 1458c125 24 236 76 342 129 173 86 204 74 220 194 2 22-2 34 61 54 106 33-61-26 223-25 169 1 556 69 681 148 52 33 42 75 218 70-2-207-57-516-138-706-99-230-230-265-497-351-156-50-614-105-756-17-133 83-158 182-282 356-36 51-49 90-72 148z"/><path class="fil1" d="m1784 1883c100 41-5 306-144 242-45-127 62-199 91-256-60-9-231-36-282-17-66 25-81 166-47 232 160 314 867 247 792 3-30-99-58-115-159-149-81-27-162-55-251-55z"/><path class="fil1" d="m527 1848c80 77 261 89 378 95 15-155 28-271 152-262 61 83 29 181-35 244 109-1 172-83 156-202-92-66-371-198-511-217-39 42-135 272-140 342z"/></g><path class="fil2" d="m339 2838c66-6 238 44 252 100-107 13-243 3-252-100zm-59 57c49 35 75 90 159 110 123 31 392-74 84-193-87-34-148-70-245-37-2-144 155-774 222-871 157 25 515 204 718-45 193 11 44 124 166 286 63 83 126 156 265 179 105 18 306 12 409-16 153-40 192-79 196-251l169 38c-21 153-218 409-342 500-171 125-326 200-540 293-95 41-177 116-278 139-193 43-761 114-923 23-44-24-60-92-60-155zm1399-828c7-66 32-103 71-130 27 58-21 114-71 130zm105-184c89 0 170 28 251 55 101 34 129 50 159 149 75 244-632 311-792-3-34-66-19-207 47-232 51-19 222 8 282 17-29 57-136 129-91 256 139 64 244-201 144-242zm-817 12c1-69-2-131 61-158 23 53-15 128-61 158zm-440-47c5-70 101-300 140-342 140 19 419 151 511 217 16 119-47 201-156 202 64-63 96-161 35-244-124-9-137 107-152 262-117-6-298-18-378-95zm-100-80c-37-102-37-261 120-274l-80 223c-21 48-21 37-40 51zm256-310c23-58 36-97 72-148 124-174 149-273 282-356 142-88 600-33 756 17 267 86 398 121 497 351 81 190 136 499 138 706-176 5-166-37-218-70-125-79-512-147-681-148-284-1-117 58-223 25-63-20-59-32-61-54-16-120-47-108-220-194-106-53-217-105-342-129zm1770-49c-19-63 16-59 77-102 35-25 63-51 106-75 161-90 461-105 589 2 52 43 137 127 124 237-27 219-177 339-300 439-125 102-333 207-548 137-18-44-4-323-25-426-19-92-9-102 44-157 156-162 494-280 686-141 81 60 58 83 100 129 52-56-45-244-403-232-243 8-348 198-450 189zm-1456-569c5-139 133-427 261-527 155-120 317-233 555-98 59 33 56 50 62 132 5 79-2 108-22 172-158 510-290 217-796 338 19-166 163-314 243-391 137-133 236-219 442-191 57 95 63 155-6 266-92 148-115 139-101 240 72-18 94-88 127-158 201-420-91-471-270-394-120 51-334 287-404 429-14 28-29 64-42 95zm792 21c21-125 145-156 145-541 0-166-204-315-471-204-229 94-264 166-386 350-115 174-111 365-210 526-29 46-55 62-87 108-23 34-40 77-63 117-47 77-95 133-133 225-120 3-221 5-233 129-16 170 64 212 64 276-1 69-281 765-203 1180 22 114 97 115 217 129 289 35 664 23 923-81l470-225c119-67 319-194 408-287 63-65 96-120 150-197 74-108 76-106 92-253 98 18 281 61 342 114-7 69-41 36-41 98 39 1 104-48 120-102-41-60-84-50-143-98 47-37 132-54 197-81 140-58 379-234 438-394 47-129 12-344-64-428-80-88-266-133-418-133-181 0-368 130-514 186-56-49-60-105-101-159-47-64-353-224-499-255z" fill="#020202"/><path class="fil3" d="m2453 1409c102 9 207-181 450-189 358-12 455 176 403 232-42-46-19-69-100-129-192-139-530-21-686 141-53 55-63 65-44 157 21 103 7 382 25 426 215 70 423-35 548-137 123-100 273-220 300-439 13-110-72-194-124-237-128-107-428-92-589-2-43 24-71 50-106 75-61 43-96 39-77 102z" fill="#fdf2f2"/><path class="fil4" d="m997 840 49-87c13-31 28-67 42-95 70-142 284-378 404-429 179-77 471-26 270 394-33 70-55 140-127 158-14-101 9-92 101-240 69-111 63-171 6-266-206-28-305 58-442 191-80 77-224 225-243 391 506-121 638 172 796-338 20-64 27-93 22-172-6-82-3-99-62-132-238-135-400-22-555 98-128 100-256 388-261 527z" fill="#fef3f3"/><path class="fil5" d="m427 1768c19-14 19-3 40-51l80-223c-157 13-157 172-120 274z" fill="#efefef"/><path class="fil6" d="m591 2938c-14-56-186-106-252-100 9 103 145 113 252 100z" fill="#faf1f1"/></g></svg>
