<svg width="323" height="323" enable-background="new 0 0 323.141 322.95" version="1.1" viewBox="0 0 323.00001 322.99999" xml:space="preserve" xmlns="http://www.w3.org/2000/svg"><g transform="matrix(.80529 0 0 .80529 30.106 31.524)"><g transform="translate(2.3639 -1.0967)"><polygon transform="matrix(.97372 0 0 .97372 3.3986 5.0979)" points="91.783 82.916 161.65 152.78 231.51 82.916" fill="#f0ad00"/><polygon transform="matrix(.97372 0 0 .97372 3.3986 5.0979)" points="79.241 70.375 232.21 70.375 161.84 0 8.867 0" fill="#7fd13b"/><rect transform="rotate(45)" x="234.71" y="-110.23" width="104.85" height="105.32" fill="#7fd13b" stroke-width=".97371"/><polygon transform="matrix(.97372 0 0 .97372 3.3986 5.0979)" points="179.57 0 323.3 143.72 323.3 0" fill="#60b5cc"/><polygon transform="matrix(.97372 0 0 .97372 3.3986 5.0979)" points="0 314.43 152.78 161.65 0 8.868" fill="#5a6378"/><polygon transform="matrix(.97372 0 0 .97372 3.3986 5.0979)" points="323.3 178.88 255.52 246.66 323.3 314.43" fill="#f0ad00"/><polygon transform="matrix(.97372 0 0 .97372 3.3986 5.0979)" points="314.43 323.3 161.65 170.52 8.869 323.3" fill="#60b5cc"/></g></g></svg>
