<svg preserveAspectRatio="xMidYMid" version="1.1" viewBox="0 0 300 300" xmlns="http://www.w3.org/2000/svg"><g transform="matrix(1.0488 0 0 1.0488 15.753 20.294)"><g><path d="m216.43 65.967c-10.701 0-20.402 4.255-27.524 11.156l-45.162-32.339c.282-1.181.447-2.407.447-3.675 0-8.741-7.086-15.828-15.828-15.828-8.741 0-15.828 7.087-15.828 15.828 0 8.742 7.087 15.828 15.828 15.828 3.061 0 5.909-.884 8.331-2.388l55.284 40.232c4.31-8.99 13.816-15.99 24.452-15.99 14.771 0 26.746 11.974 26.746 26.745 0 11.804-7.647 21.822-18.257 25.37l3.629 12.309c15.926-5.118 27.451-20.052 27.451-37.679 0-21.853-17.715-39.569-39.569-39.569" style="fill:#0a7bff"/><path d="m89.565 27.529c-3.231 10.172-2.116 20.68 2.293 29.535l-44.38 33.166c-1.038-.624-2.154-1.151-3.359-1.534-8.31-2.64-17.187 1.957-19.826 10.267-2.64 8.31 1.957 17.187 10.266 19.826 8.31 2.64 17.187-1.956 19.827-10.266.924-2.91.944-5.884.245-8.64l54.942-40.407c-7.245-6.812-11.029-17.963-7.818-28.074 4.461-14.042 19.461-21.81 33.503-17.349 11.221 3.564 18.435 13.859 18.605 25.017l12.797.267c-.056-16.685-10.773-32.152-27.53-37.475-20.774-6.599-42.966 4.892-49.565 25.667" style="fill:#eb3d00"/><path d="m16.264 134.49c8.61 6.283 18.894 8.583 28.644 7.258l17.508 52.324c-.914.777-1.76 1.659-2.499 2.67-5.09 6.976-3.514 16.792 3.52 21.924 7.034 5.133 16.862 3.638 21.952-3.338 5.091-6.976 3.515-16.791-3.519-21.924-2.463-1.797-5.269-2.764-8.093-2.985l-21.059-64.567c-8.703 4.644-20.428 4.649-28.987-1.596-11.885-8.673-14.548-25.259-5.947-37.047 6.874-9.42 18.86-12.925 29.463-9.528l4.248-11.953c-15.795-5.267-33.766-.115-44.03 13.951-12.725 17.44-8.786 41.98 8.799 54.811" style="fill:#00bcd4"/><path d="m218.85 195.98c-3.26-10.09-10.249-17.936-18.959-22.539l16.896-52.49c1.205-.096 2.418-.316 3.619-.704 8.286-2.677 12.844-11.53 10.182-19.772-2.663-8.244-11.539-12.756-19.825-10.079-8.286 2.676-12.845 11.529-10.182 19.772.933 2.886 2.638 5.301 4.801 7.124l-21.294 64.454c9.835 1.311 19.366 8.131 22.606 18.161 4.5 13.929-3.203 28.888-17.204 33.411-11.189 3.615-23.015-.528-29.61-9.447l-10.563 7.192c9.703 13.45 27.371 19.746 44.079 14.348 20.715-6.692 32.111-28.823 25.454-49.431" style="fill:#86c351"/><path d="m96.273 238.32c8.584-6.281 13.87-15.388 15.533-25.105l55.212-.563c.468 1.112 1.055 2.193 1.799 3.21 5.131 7.013 14.975 8.538 21.988 3.408 7.013-5.131 8.538-14.975 3.408-21.988-5.131-7.013-14.975-8.539-21.988-3.408-2.455 1.797-4.222 4.176-5.282 6.805l-67.966.173c1.819 9.742-1.698 20.937-10.231 27.18-11.85 8.67-28.485 6.092-37.155-5.758-6.928-9.47-6.673-21.995-.245-31.069l-10.136-7.745c-9.772 13.453-10.252 32.199.093 46.34 12.827 17.533 37.438 21.347 54.97 8.52" style="fill:#9032e9"/></g></g></svg>
