<?xml version="1.0" encoding="UTF-8"?>
<svg class="flow-logo" width="300" height="300" version="1.1" viewBox="0 0 299.99999 300" xmlns="http://www.w3.org/2000/svg">
 <title>Flow logo</title>
 <g class="flow-logo-mark" transform="matrix(.96472 0 0 .96472 33.145 27.704)">
  <path d="m5.81 5.9321 80.294 80.304h-64.034l63.381 63.396h-79.965l96.879 96.896v-79.979l0.01-0.01v-80.303h-0.01v-45.523h48.399l21.14 21.139h-47.075v79.33h22.857l25.368 25.368h-16.384l-0.01-0.01v0.01h-32.823l-0.01-0.01v0.01h-0.32474l0.32474 0.32473v79.969h113.14l-40.634-40.634v-16.384l8.7755 8.7755v-80.199h-16.256l0.0174-39.588 31.19 31.186v-80.294h-67.246l-23.779-23.773h-45.523z" fill="#fbc02d" fill-opacity=".97647" stroke-width=".95475"/>
 </g>
</svg>
