<?xml version="1.0" encoding="UTF-8"?>
<svg clip-rule="evenodd" fill-rule="evenodd" stroke-linejoin="round" stroke-miterlimit="1.4142" version="1.1" viewBox="0 0 24 24" xml:space="preserve" xmlns="http://www.w3.org/2000/svg"><g><path d="m19 20h-15c-1.11 0-2-0.9-2-2v-12c0-1.11 0.89-2 2-2h6l2 2h7c1.097 0 2 0.903 2 2h-17v10l2.14-8h17.07l-2.28 8.5c-0.23 0.87-1.01 1.5-1.93 1.5z" fill="#0277bd"/><path d="m16.275 21.115-2.538 2e-3v-3.807l-1.903 2.441-1.903-2.441v3.807h-2.538v-7.613h2.538l1.903 2.538 1.903-2.538 2.538-3e-3z" fill="#b3e5fc"/><path d="m20.064 21.749-3.154-4.439h1.903v-3.806h2.538v3.806h1.903z" fill="#b3e5fc"/></g></svg>
