<?xml version="1.0" encoding="UTF-8"?>
<svg clip-rule="evenodd" stroke-linejoin="round" stroke-miterlimit="1.4142" version="1.1" viewBox="0 0 24 24" xml:space="preserve" xmlns="http://www.w3.org/2000/svg"><path d="m19 20h-15c-1.11 0-2-0.9-2-2v-12c0-1.11 0.89-2 2-2h6l2 2h7c1.097 0 2 0.903 2 2h-17v10l2.14-8h17.07l-2.28 8.5c-0.23 0.87-1.01 1.5-1.93 1.5z" fill="#cddc39"/><path d="m11.185 9.6131h5.3457v2.9001l3.7821-3.7754 3.7754 3.7754-3.7754 3.7821h2.9v5.3457h-5.3457v-5.3457h2.4457l-3.7821-3.7821v2.4457h-5.3457v-5.3457m0 6.6821h5.3457v5.3457h-5.3457z" fill="#f0f4c3" stroke-width=".66821"/></svg>
