<svg clip-rule="evenodd" stroke-linejoin="round" stroke-miterlimit="1.414" version="1.1" viewBox="0 0 24 24" xmlns="http://www.w3.org/2000/svg"><path d="M19 20H4a2 2 0 0 1-2-2V6c0-1.11.89-2 2-2h6l2 2h7c1.097 0 2 .903 2 2H4v10l2.14-8h17.07l-2.28 8.5c-.23.87-1.01 1.5-1.93 1.5z" fill="#1976D2"/><path d="m11.488 15.56h1.3029v-1.3018h-1.3029zm0 2.6057h1.3029v-1.3029h-1.3029zm1.3029 2.6046v-1.3029h-1.3029c0 .71674.58054 1.3029 1.3029 1.3029zm-1.3029-7.815h1.3029v-1.3029h-1.3029zm7.815 7.815h1.3029v-1.3029h-1.3029zm2.6046-11.722h-6.5121c-.72344 0-1.3029.58612-1.3029 1.3029v6.5121c0 .71674.58054 1.3029 1.3029 1.3029h6.5121a1.3062 1.3062 0 0 0 1.3029 -1.3029v-6.5121a1.3062 1.3062 0 0 0 -1.3029 -1.3029zm0 7.815h-6.5121v-6.5121h6.5121zm-5.2092 3.9075h1.3018v-1.3029h-1.3018zm-2.6057 0h1.3029v-1.3029h-1.3029z" style="fill:#bbdefb;stroke-width:1.1164"/></svg>
