<svg clip-rule="evenodd" stroke-linejoin="round" stroke-miterlimit="1.414" version="1.1" viewBox="0 0 24 24" xmlns="http://www.w3.org/2000/svg"><path d="M19 20H4a2 2 0 0 1-2-2V6c0-1.11.89-2 2-2h6l2 2h7c1.097 0 2 .903 2 2H4v10l2.14-8h17.07l-2.28 8.5c-.23.87-1.01 1.5-1.93 1.5z" fill="#7CB342"/><path d="m13.313 11.766h-1.1222v7.8556c0 .61776.50447 1.1222 1.1222 1.1222h7.8556v-1.1222h-7.8556zm8.9778-2.2444h-6.7333c-.61669 0-1.1222.50447-1.1222 1.1222v6.7334c0 .61776.50554 1.1222 1.1222 1.1222h6.7333c.61776 0 1.1222-.50447 1.1222-1.1222v-6.7334c0-.61776-.50446-1.1222-1.1222-1.1222zm-.56111 5.05h-2.2445v2.2445h-1.1222v-2.2445h-2.2445v-1.1222h2.2445v-2.2444h1.1222v2.2444h2.2445z" style="fill:#dcedc8;stroke-width:1.0688"/></svg>
