<svg clip-rule="evenodd" fill-rule="evenodd" stroke-linejoin="round" stroke-miterlimit="1.4142" version="1.1" viewBox="0 0 24 24" xml:space="preserve" xmlns="http://www.w3.org/2000/svg"><g transform="translate(-28.881 4.3729)" style="clip-rule:evenodd;stroke-linejoin:round;stroke-miterlimit:1.4142"><path d="m47.881 15.627h-15c-1.11 0-2-.9-2-2v-12c0-1.11.89-2 2-2h6l2 2h7c1.097 0 2 .903 2 2h-17v10l2.14-8h17.07l-2.28 8.5c-.23.87-1.01 1.5-1.93 1.5z" style="fill:#ff8a65"/></g><path d="m20.62 15.706h-6.0845v-1.2169h6.0845m-3.0422-5.4761a6.0845 6.0845 0 0 0 -6.0845 6.0845 6.0845 6.0845 0 0 0 6.0845 6.0845 6.0845 6.0845 0 0 0 6.0845 -6.0845 6.0845 6.0845 0 0 0 -6.0845 -6.0845z" style="clip-rule:evenodd;fill-opacity:.94902;fill-rule:evenodd;fill:#fbe9e7;stroke-linejoin:round;stroke-miterlimit:1.4142;stroke-width:.60845"/></svg>
