<svg clip-rule="evenodd" stroke-linejoin="round" stroke-miterlimit="1.4142" version="1.1" viewBox="0 0 24 24" xml:space="preserve" xmlns="http://www.w3.org/2000/svg"><path d="m19 20h-15c-1.11 0-2-.9-2-2v-12c0-1.11.89-2 2-2h6l2 2h7c1.097 0 2 .903 2 2h-17v10l2.14-8h17.07l-2.28 8.5c-.23.87-1.01 1.5-1.93 1.5z" fill="#009688"/><g transform="matrix(.69572 0 0 .69572 8.4581 6.3623)"><path transform="matrix(1.4374 0 0 1.4374 -12.157 -9.1449)" d="m9.7246 9.25l7.1035 12.258 7.1016-12.199v-.058594h-2.7617l-4.2988 7.3848-4.2812-7.3848h-2.8633z" style="fill:#41b883;stroke-width:.69572"/><path d="m5.936 4.1507 6.1521 10.617 6.1809-10.617h-3.7228l-2.4337 4.1783-2.4226-4.1783z" style="fill:#35495e"/></g></svg>
