<svg clip-rule="evenodd" stroke-linejoin="round" stroke-miterlimit="1.4142" version="1.1" viewBox="0 0 24 24" xml:space="preserve" xmlns="http://www.w3.org/2000/svg"><path d="m19 20h-15c-1.11 0-2-.9-2-2v-12c0-1.11.89-2 2-2h6l2 2h7c1.097 0 2 .903 2 2h-17v10l2.14-8h17.07l-2.28 8.5c-.23.87-1.01 1.5-1.93 1.5z" fill="#e57373" style="fill:#1e88e5"/><g transform="matrix(.048702 0 0 .048702 11.105 8.6833)" style="fill:#e3f2fd;stroke-miterlimit:1.4142;stroke-width:6.6527;stroke:#e3f2fd"><g style="fill:#e3f2fd;stroke-miterlimit:1.4142;stroke-width:6.6527;stroke:#e3f2fd"><path transform="matrix(19.671 0 0 19.671 -208.58 -163.57)" d="m16.885 8.3242c-.77857.072276-1.4769.59851-1.7285 1.3906-.16426.51712-.10696 1.0518.11719 1.502l-2.2559 1.6855c-.05277-.03172-.11062-.05865-.17188-.07813-.42246-.13421-.87365.09903-1.0078.52148-.13421.42246.10103.87365.52344 1.0078.42246.13421.8736-.09903 1.0078-.52148.04697-.14794.04725-.29934.01172-.43945l2.793-2.0527c-.36832-.3463-.55972-.91371-.39649-1.4277.22679-.71386.98926-1.1096 1.7031-.88281.57045.18118.93667.70424.94531 1.2715l.65039.01367c-.002847-.84822-.54851-1.6337-1.4004-1.9043-.26402-.083869-.53149-.11003-.79102-.085937zm.24414 1.2754c-.44437 0-.80469.36032-.80469.80469 0 .44442.36032.80469.80469.80469.15561 0 .3007-.04463.42383-.12109l2.8105 2.0449c.21911-.45703.70148-.8125 1.2422-.8125.75092 0 1.3613.60846 1.3613 1.3594 0 .60008-.3903 1.1106-.92969 1.291l.18555.625c.80964-.26019 1.3945-1.0199 1.3945-1.916 0-1.111-.90072-2.0117-2.0117-2.0117-.54401 0-1.0364.21753-1.3984.56836l-2.2949-1.6445c.01434-.06004.02148-.12304.02148-.1875 0-.44437-.36027-.80469-.80469-.80469zm-4.5234 1.9551c-.62017-.0058-1.2317.27424-1.623.81055-.64691.88661-.44671 2.1348.44727 2.7871.43771.31941.96137.4365 1.457.36914l.89062 2.6602c-.04647.0395-.08938.08337-.12695.13476-.25876.35464-.17986.85434.17773 1.1152.35759.26095.85842.18472 1.1172-.16992.25881-.35464.1779-.85233-.17969-1.1133-.12521-.09136-.26854-.14111-.41211-.15234l-1.0703-3.2832c-.44244.23609-1.0375.2374-1.4727-.08008-.6042-.44091-.73999-1.2855-.30274-1.8848.34946-.47889.95902-.65707 1.498-.48438l.21484-.60742c-.20074-.06694-.40851-.09964-.61523-.10156zm9.0293 1.3203c-.10366-.0089-.2111.0011-.31641.03516-.42124.13604-.65296.58681-.51758 1.0059.04743.14672.13418.26865.24414.36133l-1.082 3.2773c.49999.06665.98372.41393 1.1484.92383.22877.70812-.16322 1.4673-.875 1.6973-.56882.18378-1.1686-.0251-1.5039-.47852l-.53711.36523c.49328.68376 1.3908 1.0029 2.2402.72852 1.0531-.3402 1.6314-1.4641 1.293-2.5117-.16573-.51295-.5201-.91248-.96289-1.1465l.85938-2.668c.06126-.0049.12254-.01738.18359-.03711.42124-.13609.65291-.5849.51758-1.0039-.10154-.31433-.38044-.52208-.69141-.54883zm-8.9355 4.7676c-.49678.68392-.52201 1.6366.0039 2.3555.65209.89133 1.9036 1.0857 2.7949.43359.43639-.31931.70452-.78336.78906-1.2773l2.8066-.02734c.02379.05653.05397.11041.0918.16211.26085.35652.76066.43462 1.1172.17383.35652-.26085.43462-.76262.17383-1.1191-.26085-.35652-.76066-.43272-1.1172-.17188-.12481.09136-.21564.21205-.26953.3457l-3.4551.0078c.09247.49526-.08574 1.0654-.51953 1.3828-.60242.44076-1.4479.30946-1.8887-.29297-.3522-.48143-.3385-1.1188-.01172-1.5801z" style="fill:#e3f2fd;stroke-miterlimit:1.4142;stroke-width:.3382;stroke:#e3f2fd"/></g></g></svg>
