<?xml version="1.0" encoding="UTF-8"?>
<svg clip-rule="evenodd" stroke-linejoin="round" stroke-miterlimit="1.4142" version="1.1" viewBox="0 0 24 24" xml:space="preserve" xmlns="http://www.w3.org/2000/svg"><path d="m19 20h-15c-1.11 0-2-0.9-2-2v-12c0-1.11 0.89-2 2-2h6l2 2h7c1.097 0 2 0.903 2 2h-17v10l2.14-8h17.07l-2.28 8.5c-0.23 0.87-1.01 1.5-1.93 1.5z" fill="#c0ca33"/><path d="m17.391 12.543a2.0508 2.0508 0 0 0 2.0508 -2.0508 2.0508 2.0508 0 0 0 -2.0508 -2.0508 2.0508 2.0508 0 0 0 -2.0508 2.0508 2.0508 2.0508 0 0 0 2.0508 2.0508m0 2.42c-1.6133-1.4971-3.7599-2.42-6.1525-2.42v7.5198c2.3927 0 4.5392 0.92288 6.1525 2.42 1.6133-1.4971 3.7599-2.42 6.1525-2.42v-7.5198c-2.3927 0-4.5392 0.92288-6.1525 2.42z" fill="#f0f4c3" stroke-width=".68362"/></svg>
