<svg clip-rule="evenodd" fill-rule="evenodd" stroke-linejoin="round" stroke-miterlimit="1.414" version="1.1" viewBox="0 0 24 24" xmlns="http://www.w3.org/2000/svg"><path d="M10 4H4c-1.11 0-2 .89-2 2v12c0 1.097.903 2 2 2h16c1.097 0 2-.903 2-2V8a2 2 0 0 0-2-2h-8l-2-2z" fill="#7CB342" fill-rule="nonzero"/><path d="m13.313 11.766h-1.1222v7.8554c0 .61721.50499 1.1222 1.1222 1.1222h7.8554v-1.1222h-7.8554zm8.9776-2.2444h-6.7332c-.61721 0-1.1222.50499-1.1222 1.1222v6.7332c0 .61721.50499 1.1222 1.1222 1.1222h6.7332c.61721 0 1.1222-.50499 1.1222-1.1222v-6.7332c0-.61721-.50499-1.1222-1.1222-1.1222zm-.5611 5.0499h-5.611v-1.1222h5.611zm-2.2444 2.2444h-3.3666v-1.1222h3.3666zm2.2444-4.4888h-5.611v-1.1222h5.611z" style="fill:#dcedc8;stroke-width:1.0202"/></svg>
