<svg clip-rule="evenodd" stroke-linejoin="round" stroke-miterlimit="1.4142" version="1.1" viewBox="0 0 24 24" xml:space="preserve" xmlns="http://www.w3.org/2000/svg"><path d="m19 20h-15c-1.11 0-2-.9-2-2v-12c0-1.11.89-2 2-2h6l2 2h7c1.097 0 2 .903 2 2h-17v10l2.14-8h17.07l-2.28 8.5c-.23.87-1.01 1.5-1.93 1.5z" fill="#0288d1" style="fill:#ef5350"/><path d="m17.813 11.575v1.9513l2.6017-2.6017-2.6017-2.6017v1.9513a5.2034 5.2034 0 0 0 -5.2034 5.2034c0 1.0212.2992 1.9708.80653 2.7708l.94962-.94962c-.29269-.53985-.4553-1.1708-.4553-1.8212a3.9026 3.9026 0 0 1 3.9026 -3.9026m4.3969 1.1317-.94962.94962c.28619.54636.4553 1.1708.4553 1.8212a3.9026 3.9026 0 0 1 -3.9026 3.9026l-1e-6-1.9513-2.6017 2.6017 2.6017 2.6017 1e-6-1.9513a5.2034 5.2034 0 0 0 5.2034 -5.2034c0-1.0212-.2992-1.9708-.80653-2.7708z" fill="#b3e5fc" stroke="#b3e5fc" stroke-miterlimit="1.4142" stroke-width=".29" style="fill:#ffcdd2;stroke:#ffcdd2"/></svg>
