<svg clip-rule="evenodd" stroke-linejoin="round" stroke-miterlimit="1.4142" version="1.1" viewBox="0 0 24 24" xml:space="preserve" xmlns="http://www.w3.org/2000/svg"><path d="m19 20h-15c-1.11 0-2-.9-2-2v-12c0-1.11.89-2 2-2h6l2 2h7c1.097 0 2 .903 2 2h-17v10l2.14-8h17.07l-2.28 8.5c-.23.87-1.01 1.5-1.93 1.5z" fill="#e57373" style="fill:#43a047"/><path d="m17.871 8.1987-5.5932 2.4859v3.7288c0 3.4492 2.3864 6.6746 5.5932 7.4576 3.2068-.78305 5.5932-4.0085 5.5932-7.4576v-3.7288l-5.5932-2.4859m0 3.7288c.87006 0 1.7401.68362 1.7401 1.5537v.9322c.37288 0 .74576.37288.74576.80791v2.1751c0 .37288-.37288.74576-.80791.74576h-3.4181c-.37288 0-.74576-.37288-.74576-.80791v-2.1751c0-.37288.37288-.74576.74576-.74576v-.9322c0-.87006.87006-1.5537 1.7401-1.5537m0 .74576c-.49718 0-.9322.31073-.9322.80791v.9322h1.8644v-.9322c0-.49718-.43503-.80791-.9322-.80791z" style="fill:#c8e6c9;stroke-width:.62147"/></svg>
