<svg clip-rule="evenodd" stroke-linejoin="round" stroke-miterlimit="1.4142" version="1.1" viewBox="0 0 24 24" xml:space="preserve" xmlns="http://www.w3.org/2000/svg"><path d="m19 20h-15c-1.11 0-2-.9-2-2v-12c0-1.11.89-2 2-2h6l2 2h7c1.097 0 2 .903 2 2h-17v10l2.14-8h17.07l-2.28 8.5c-.23.87-1.01 1.5-1.93 1.5z" fill="#e57373" style="fill:#1e88e5"/><path d="m18.648 14.537-7.2169 7.2105-.89492-.89492l7.2105-7.2169.90131.90131m2.8637-1.8474.37714-.37714-.50499-.50499.40911-.40911-.9077-.9077-.40911.40911-.50499-.50499-.37714.37714c-1.1123-.9077-2.3651-1.6364-3.7075-2.1478l-.53056 1.1442c1.1186.58809 2.1478 1.2976 3.1066 2.135l-.31961.31961 1.9177 1.9177.31961-.31961c.83739.95884 1.5469 1.988 2.135 3.1066l1.1442-.53056c-.51138-1.3424-1.2401-2.5953-2.1478-3.7075z" style="fill:#bbdefb;stroke-width:.63923"/></svg>
