<svg clip-rule="evenodd" stroke-linejoin="round" stroke-miterlimit="1.4142" version="1.1" viewBox="0 0 24 24" xml:space="preserve" xmlns="http://www.w3.org/2000/svg"><path d="m19 20h-15c-1.11 0-2-.9-2-2v-12c0-1.11.89-2 2-2h6l2 2h7c1.097 0 2 .903 2 2h-17v10l2.14-8h17.07l-2.28 8.5c-.23.87-1.01 1.5-1.93 1.5z" fill="#e57373" style="fill:#1e88e5"/><path d="m16.364 17.621a2.0802 2.0802 0 0 1 -2.0802 -2.0802c0-.77662.42298-1.4562 1.0401-1.8098l6.733-3.897-3.8346 6.6429c-.3467.67954-1.047 1.1441-1.8583 1.1441m0-9.0143c1.2551 0 2.4269.34671 3.4463.9153l-1.4562.83903c-.60327-.23576-1.2967-.36751-1.9901-.36751a5.5473 5.5473 0 0 0 -5.5473 5.5473c0 1.5324.61713 2.9193 1.6226 3.9178h.007c.27043.27043.27043.70728 0 .97771s-.71421.27043-.98464.007c-1.2551-1.2551-2.0317-2.9886-2.0317-4.9024a6.9341 6.9341 0 0 1 6.9341 -6.9341m6.9341 6.9341c0 1.9138-.77662 3.6473-2.0317 4.9024-.27043.2635-.70728.2635-.97771-.007-.27043-.27043-.27043-.70728 0-.97771 1.0054-1.0054 1.6226-2.3853 1.6226-3.9178 0-.69341-.13175-1.3868-.37444-2.0109l.83903-1.4562c.57553 1.0401.92224 2.205.92224 3.4671z" style="fill:#bbdefb;stroke-width:.69341"/></svg>
