<svg clip-rule="evenodd" stroke-linejoin="round" stroke-miterlimit="1.414" version="1.1" viewBox="0 0 24 24" xmlns="http://www.w3.org/2000/svg"><path d="M19 20H4a2 2 0 0 1-2-2V6c0-1.11.89-2 2-2h6l2 2h7c1.097 0 2 .903 2 2H4v10l2.14-8h17.07l-2.28 8.5c-.23.87-1.01 1.5-1.93 1.5z" fill="#FFB300" style="fill:#ef5350"/><path d="m11.375 11.618h3.0812v-3.0812h-3.0812zm4.6218 9.2436h3.0812v-3.0812h-3.0812zm-4.6218 0h3.0812v-3.0812h-3.0812zm0-4.6218h3.0812v-3.0812h-3.0812zm4.6218 0h3.0812v-3.0812h-3.0812zm4.6218-7.703v3.0812h3.0812v-3.0812zm-4.6218 3.0812h3.0812v-3.0812h-3.0812zm4.6218 4.6218h3.0812v-3.0812h-3.0812zm0 4.6218h3.0812v-3.0812h-3.0812z" style="fill:#ffcdd2;stroke-width:.94806"/></svg>
