<svg version="1.1" viewBox="0 0 300 300" xmlns="http://www.w3.org/2000/svg"><g transform="matrix(.91097 0 0 .91097 12.11 35.349)"><g transform="matrix(1.1375 0 0 1.1375 1.0368 -31.667)"><path d="m94.5 276.08c1.65-.4641 4.6875-.89705 6.75-.96213l3.75-.11831v-4.8947c0-9.3451-6.1332-24.015-13.36-31.957-1.1768-1.2932-5.2845-3.9403-9.128-5.8826-6.814-3.4433-7.2006-3.5163-15.5-2.9262-4.6814.33282-11.212 1.3426-14.512 2.244-20.411 5.575-51.943-9.7741-51.988-25.306-.01649-5.749 2.494-8.0362 10.707-9.7546 9.8888-2.069 16.683-5.2876 17.428-8.2559 1.1375-4.5324-.2933-18.69-2.2568-22.33-1.3841-2.5662-1.8584-5.5901-1.8723-11.937-.01775-8.1106.15366-8.7749 3.7419-14.5 2.0683-3.3 5.8807-8.6262 8.4722-11.836 4.3935-5.442 4.7367-6.2862 5.0817-12.5.39942-7.1948-2.3026-19.938-5.9717-28.164-4.1407-9.2828-3.5347-34.433 1.2879-53.455 4.9231-19.419 14.711-35 20.776-33.074 2.0097.63787 2.1378.97836 9.06 24.095 2.0472 6.8365 2.3198 7.1992 8.4258 11.214 10.091 6.6345 19.347 17.392 28.698 33.354l2.591 4.4227 9.8453 1.2435c16.696 2.1087 36.255 9.6813 46.936 18.172 2.1801 1.733 4.6551 2.9364 5.5 2.6743.84487-.26213 6.681-2.8102 12.969-5.6624 13.586-6.1624 27.272-10.759 45.896-15.414 19.676-4.918 30.654-6.9153 33.746-6.1392 2.6837.67356 2.6976.7233 2.0777 7.394-.70459 7.5812-4.8654 20.711-9.4167 29.716-6.9791 13.808-24.13 32.812-40.424 44.794-7.3414 5.3983-7.7162 5.8672-8.3192 10.41-5.0503 38.043-15.316 59.037-41.976 85.846-12.494 12.564-13.478 13.315-24.517 18.723-15.047 7.3721-22.836 9.4187-42.5 11.167-3.8948.34636-4.3369.25813-2-.39916zm-77.583-54.363c-.22917-.15563-1.3167-.94313-2.4167-1.75-1.85-1.357-1.8971-1.3358-.62756.28297.75484.9625 1.8423 1.75 2.4167 1.75s.85672-.12734.62756-.28297z" style="fill:#fbc02d"/><path d="m94.5 276.08c1.65-.4641 4.6875-.89705 6.75-.96213l3.75-.11831-.0119-4.75c-.0138-5.5341-1.791-12.755-4.8298-19.625-1.5722-3.5541-1.7421-4.5246-.63094-3.6023 2.8427 2.3592 2.6759.13313-.31482-4.2025-3.4809-5.0462-8.553-9.3022-16.289-13.668-3.0479-1.7201-6.5246-4.258-7.7261-5.6399-1.3203-1.5185-3.248-2.5124-4.8729-2.5124-2.6081 0-2.5635.096 1.4934 3.214 2.3 1.7677 4.1818 3.5011 4.1818 3.852s-3.9375.91723-8.75 1.2586c-4.8125.34131-11.45 1.358-14.75 2.2594-20.411 5.575-51.943-9.7741-51.988-25.306-.01649-5.749 2.494-8.0362 10.707-9.7546 9.9224-2.076 16.683-5.2859 17.434-8.2774 1.1964-4.767-.41469-19.52-2.6896-24.628-1.7114-3.8429-2.094-6.2913-1.7973-11.5.41747-7.3287 3.3536-13.042 12.566-24.454 4.3935-5.442 4.7367-6.2862 5.0817-12.5.39942-7.1948-2.3026-19.938-5.9717-28.164-4.1407-9.2828-3.5347-34.433 1.2879-53.455 4.9231-19.419 14.711-35 20.776-33.074 2.0097.63787 2.1378.97836 9.06 24.095 2.0472 6.8365 2.3198 7.1992 8.4258 11.214 10.091 6.6345 19.347 17.392 28.698 33.354l2.591 4.4227 9.8453 1.2435c16.696 2.1087 36.255 9.6813 46.936 18.172 2.1801 1.733 4.6551 2.9364 5.5 2.6743.84487-.26213 6.681-2.8102 12.969-5.6624 13.586-6.1624 27.272-10.759 45.896-15.414 19.676-4.918 30.654-6.9153 33.746-6.1392 2.6837.67356 2.6976.7233 2.0777 7.394-.70459 7.5812-4.8654 20.711-9.4167 29.716-6.9791 13.808-24.13 32.812-40.424 44.794-7.3414 5.3983-7.7162 5.8672-8.3192 10.41-5.0503 38.043-15.316 59.037-41.976 85.846-12.494 12.564-13.478 13.315-24.517 18.723-15.047 7.3721-22.836 9.4187-42.5 11.167-3.8948.34636-4.3369.25813-2-.39916zm27.491-17.137c14.682-5.662 28.562-16.733 37.414-29.842 10.44-15.46 17.981-39.125 20.689-64.92l1.2933-12.319 6.8178-6.0444c7.3629-6.5277 15.68-18.242 21.346-30.065 4.351-9.0789 4.4596-12.179.49857-14.227-6.2455-3.2297-26.471-1.0212-44.645 4.8747-12.523 4.0628-14.243 4.2448-18.96 2.0066l-3.357-1.593-7.2941 4.8361c-4.0118 2.6599-12.214 9.6767-18.228 15.593-10.796 10.622-13.566 12.455-13.566 8.9794 0-2.473 13.832-17.702 23.772-26.173 6.5051-5.5436 8.9616-7.0528 11.5-7.0648 2.3412-.0111 2.8308-.26651 1.7825-.92975-.79494-.50294-3.5158-.66923-6.0463-.36953-3.8783.45933-5.6931.003-11.555-2.9035-3.8246-1.8966-11.679-5.4328-17.454-7.8583-9.5111-3.9945-11.263-5.1639-18.597-12.417-4.4536-4.4038-10.927-12.282-14.386-17.507-7.3532-11.109-9.5363-13.68-13.258-15.616-6.474-3.3681-10.939 1.9659-14.287 17.068-2.0545 9.2681-1.5787 28.404 1.0451 42.027 2.4205 12.568 1.0794 17.991-7.0528 28.521-8.9615 11.604-10.384 18.981-6.0686 31.476 3.2269 9.3444 4.7044 19.083 3.417 22.524-2.2536 6.0228-11.835 13-17.852 13-2.9299 0-3.0802.17812-2.475 2.9333.76555 3.4855-2.3288 13.067-4.2201 13.067-1.9018 0-1.526 1.6792.87672 3.9177 3.4206 3.1868 10.674 6.1668 16.227 6.6669 4.4021.39645 4.7756.30222 2.6306-.66363-1.375-.61913-3.85-1.7478-5.5-2.5081l-3-1.3824 4 .73479c6.6514 1.2218 20.562.68318 28.197-1.0919 3.9586-.92032 9.6792-1.6733 12.712-1.6733 10.423 0 24.047 7.0715 32.034 16.627 4.0378 4.8306 10.522 18.334 10.544 21.956.0249 4.2576.82791 4.2839 11.003.35997zm-5.4908-41.41c-32.902-5.777-36.853-6.5815-38.327-7.8049-2.7402-2.2742 2.5579-2.2799 30.666-.0331 15.21 1.2158 27.924 1.8943 28.253 1.5077.32875-.38662 1.0793-5.5772 1.6679-11.535.58861-5.9574 1.341-11.102 1.6719-11.433 1.6486-1.6486 2.6798 2.6192 3.6704 15.191 1.2231 15.522.98 16.323-5.1713 17.042-1.8869.22062-11.981-1.1001-22.431-2.9349zm-51.125-28.735c-.80896-1.3089 1.9929-3.5875 10.992-8.9395 9.382-5.5795 20.833-9.5827 31.458-10.997 12.942-1.7232 16.518.42413 5.9061 3.5471-4.0586 1.1944-5.7914 2.3689-7.7289 5.2385-3.1925 4.7285-9.2553 9.1222-13.751 9.9656-1.9319.36242-6.5227.091-10.202-.60327-6.1653-1.1633-7.0546-1.1007-11.35.79957-3.1331 1.3859-4.8783 1.7102-5.3239.98922zm-18.333-19.54c-3.981-5.648-4.9046-11.258-2.7157-16.497 1.0542-2.5229 1.362-5.3773.97949-9.0831-.59833-5.7972.59189-7.8369 3.2741-5.6109.82096.68133 3.0985 4.1104 5.0613 7.6201 4.1971 7.5052 4.7846 14.504 1.9371 23.076-2.2097 6.6527-4.1178 6.7632-8.5363.49464z" style="fill:#ff9800"/><path d="m94.5 276.08c1.65-.4641 4.6875-.89705 6.75-.96213 2.2646-.0714 3.7537-.61345 3.7594-1.3683.005-.70393 5.1383-2.9591 11.75-5.1623 14.851-4.9487 24.344-9.3141 32.952-15.153 27.996-18.99 46.251-54.381 46.281-89.73.00866-10.088.30825-10.567 10.465-16.705 8.1603-4.9314 29.543-26.439 29.543-29.716 0-.51772 1.4059-3.0638 3.1242-5.658 3.8507-5.8135 10.016-22.511 10.61-28.734.41992-4.4017.31279-4.6318-2.3974-5.1496-9.9733-1.9055-38.864 5.3931-64.337 16.253-18.668 7.9589-18.011 7.8936-27.121 2.6945-15.014-8.5678-30.463-14.586-44.068-17.167-4.494-.8525-8.2369-1.6566-8.3175-1.7868-1.174-1.8966-12.875-17.374-15.677-20.737-2.0624-2.475-7.1185-7.4046-11.236-10.955-8.0086-6.9054-11.121-11.624-14.497-21.981-2.5535-7.8336-4.5729-11.079-6.8573-11.019-.94982.02477-3.6154 2.2064-5.9234 4.8481-4.7096 5.3905-7.3507 13.518-9.4079 28.951-1.6169 12.129-.57253 38.667 2.1116 53.656 3.0196 16.863 1.6608 22.788-7.1096 31l-4.2718 4 4.1913-5.1438c6.0247-7.3938 7.1701-10.085 7.1742-16.856.003806-6.2762-3.81-22.315-6.5798-27.671-2.2055-4.2649-3.0226-23.691-1.4861-35.329 3.6277-27.476 15.699-52.658 23.981-50.03 2.0097.63787 2.1378.97836 9.06 24.095 2.0472 6.8365 2.3198 7.1992 8.4258 11.214 10.091 6.6345 19.347 17.392 28.698 33.354l2.591 4.4227 9.8055 1.2385c16.956 2.1416 37.26 10.214 48.721 19.371l2.7085 2.164 9.0697-4.2139c4.9883-2.3177 12.994-5.7279 17.791-7.5782 18.315-7.0646 61.369-17.469 66.725-16.125 2.7709.69546 2.7732.70324 2.1497 7.4121-.70459 7.5812-4.8654 20.711-9.4167 29.716-6.9791 13.808-24.13 32.812-40.424 44.794-7.3414 5.3983-7.7162 5.8672-8.3192 10.41-5.0503 38.043-15.316 59.037-41.976 85.846-12.494 12.564-13.478 13.315-24.517 18.723-15.047 7.3721-22.836 9.4187-42.5 11.167-3.8948.34636-4.3369.25813-2-.39916zm-63.5-44.687c-7.9712-2.1372-19.917-8.3103-24.019-12.412-6.9878-6.9878-8.7059-15.206-4.0583-19.412 1.0361-.93768 4.8418-2.3238 8.4571-3.0802 8.473-1.7728 14.282-4.3937 18.476-8.3352 1.8457-1.7349 3.9832-3.1543 4.75-3.1543 4.8558 0-6.006 11.203-12.606 13.002-2.475.67455-5.0575 1.384-5.7388 1.5766-.90841.25673-.97684 1.0392-.25656 2.9336 1.151 3.0273-.7784 8.5489-4.3023 12.313l-2.2023 2.3523 3 2.4335c10.659 8.6464 22.821 10.304 43.027 5.8637 12.444-2.7343 12.794-2.7563 16.039-1.009 5.9477 3.203 5.0506 4.194-4.4016 4.8622-4.7652.33687-11.139 1.2956-14.164 2.1306-6.8305 1.8853-14.815 1.862-22-.0644zm100-12.961c-.825-.18432-11.523-1.9501-23.773-3.924-23.669-3.814-25.517-4.2312-24.688-5.5735.5557-.89914 1.0034-.87743 33.329 1.616 11.203.86415 20.93 1.356 21.615 1.093.81047-.311 1.496-4.0007 1.9604-10.551.6958-9.8144 1.9557-13.512 3.0269-8.8839.29163 1.26.95267 6.9837 1.469 12.719 1.1868 13.183.7728 14.111-6.2258 13.956-2.8682-.0638-5.8898-.26681-6.7148-.45112zm-60.645-33.81c9.4535-8.6229 31.768-16.426 44.954-15.72 2.5407.13608 1.2524 1.7418-2.0496 2.5545-1.5177.37353-5.4881 3.5335-8.8232 7.0221-7.5668 7.9152-11.553 9.3106-21.148 7.4034-5.2059-1.0348-7.0124-1.0334-9.6005.007-6.6097 2.6572-7.3336 2.382-3.3331-1.267zm-22.691-17.339c-4.0167-6.329-4.4567-9.451-2.1204-15.043 1.1086-2.6533 1.3545-5.2082.87255-9.0658-.6046-4.8391-.49147-5.3367 1.1417-5.0222.99705.19202 3.3974 3.0486 5.334 6.3479 4.4157 7.5227 5.2568 15.402 2.4463 22.916-1.0115 2.7042-2.3276 5.0796-2.9246 5.2786-.59706.19902-2.7344-2.2361-4.7496-5.4115zm57.336-31.75c0-1.9439 12.386-15.907 19.611-22.107 8.8562-7.6006 11.585-9.427 14.083-9.427 4.0707 0 2.5052 2.6829-4.4443 7.6161-3.7125 2.6354-11.443 9.4249-17.18 15.088-5.7363 5.6629-10.799 10.296-11.25 10.296s-.82034-.65959-.82034-1.4658z" style="fill:#263238"/></g></g></svg>
