<svg version="1.1" viewBox="0 0 300 300" xmlns="http://www.w3.org/2000/svg"><g transform="matrix(.2703 0 0 .2703 12.151 -11.859)" style="fill:#4fc3f7"><g transform="translate(-2.0203,-14.142)" style="fill:#4fc3f7"><path d="m417.62 175.39c-42.392 9.4242-84.327 22.545-123.64 42.334.89912 34.716 3.1436 67.98 7.6934 101.77-15.268 9.7821-31.315 18.178-45.576 29.629-14.49 11.147-29.29 21.812-42.41 34.85-26.212-17.337-53.955-33.63-82.535-48.012-30.807 33.155-59.613 68.94-83.145 108.98 17.704 28.639 36.185 55.484 56.141 80.959h.5586v245.77c.44956.004.89835.0209 1.3438.0625l150.67 14.527c7.8923.76176 14.077 7.1145 14.627 15.023l4.6465 66.51 131.43 9.3789 9.0547-61.387c1.1739-7.9589 8.0003-13.857 16.051-13.857h158.96c8.0463 0 14.873 5.8985 16.047 13.857l9.0547 61.387 131.43-9.3789 4.6426-66.51c.55362-7.9089 6.7346-14.258 14.627-15.023l150.61-14.527c.4454-.0416.89028-.0583 1.3398-.0625v-19.611l.0625-.0195v-226.13h.5586c19.96-25.475 38.429-52.32 56.141-80.959-23.523-40.044-52.345-75.829-83.152-108.98-28.572 14.382-56.325 30.674-82.537 48.012-13.116-13.037-27.89-23.702-42.4-34.85-14.257-11.451-30.323-19.847-45.562-29.629 4.5372-33.788 6.7803-67.051 7.6836-101.77-39.32-19.789-81.249-32.91-123.66-42.334-16.934 28.46-32.419 59.279-45.906 89.408-15.993-2.6724-32.06-3.662-48.148-3.8535v-.0254c-.11239 0-.21676.0254-.3125.0254-.0999 0-.20478-.0254-.30468-.0254v.0254c-16.118.19148-32.171 1.1811-48.168 3.8535-13.479-30.129-28.956-60.948-45.914-89.408zm-119.2 359.52c50.151 0 90.799 40.617 90.799 90.752 0 50.168-40.648 90.809-90.799 90.809-50.126 0-90.787-40.641-90.787-90.809 0-50.134 40.661-90.752 90.787-90.752zm427.18 0c50.122 0 90.779 40.617 90.779 90.752 0 50.168-40.657 90.809-90.779 90.809-50.159 0-90.807-40.641-90.807-90.809 0-50.134 40.647-90.752 90.807-90.752zm-213.6 53.109c16.143 0 29.254 11.908 29.254 26.561v83.59c0 14.665-13.111 26.562-29.254 26.562s-29.227-11.898-29.227-26.562v-83.59c0-14.652 13.084-26.561 29.227-26.561z" style="fill:#4fc3f7"/><path d="m784.07 817.24-4.6663 66.864c-.56195 8.0588-6.9724 14.473-15.031 15.052l-160.49 11.451c-.39129.0291-.78257.0416-1.1697.0416-7.9756 0-14.856-5.8526-16.034-13.861l-9.2035-62.414h-130.95l-9.2035 62.414c-1.2363 8.4002-8.7456 14.44-17.204 13.82l-160.49-11.451c-8.0588-.5786-14.469-6.9932-15.031-15.052l-4.6663-66.864-135.48-13.062c.0624 14.561.24975 30.512.24975 33.688 0 143.09 181.51 211.86 407.02 212.65h.55363c225.51-.7909 406.96-69.566 406.96-212.65 0-3.2344.19565-19.119.26225-33.688z" style="fill:#4fc3f7"/></g></g></svg>
