<svg width="53.333" height="53.333" version="1.1" viewBox="0 0 24 24" xmlns="http://www.w3.org/2000/svg">
<path d="m21.71 5.5593c-.73147-1.3158-2.0393-1.7088-2.963-1.7276-1.1334-.022567-2.0647.60501-1.8884 1.0173.03761.088377.25009.55001.38078.74087.18898.27548.5265.063935.64544.0009407.35351-.18804.731-.24915 1.1597-.19885.40945.047477.95429.29992 1.3191 1.0013.85933 1.6514-1.7934 5.0498-5.1137 2.6965-3.3198-2.3533-6.5484-1.5734-8.0104-1.0991-1.462.47386-2.1342.951-1.556 2.0538.78506 1.4987.52463 1.0389 1.2857 2.28 1.2091 1.9697 3.8552-.90728 3.8552-.90728-1.9711 2.9061-3.6611 2.2038-4.3094 1.1879-.58433-.91528-1.038-1.9711-1.038-1.9711-4.9933 1.761-3.6423 9.5349-3.6423 9.5349h2.4797c.63228-2.8624 2.8925-2.7566 3.2799 0h1.8921c1.6735-5.5894 5.9143 0 5.9143 0h2.4666c-.69104-3.8125 1.3872-5.0107 2.6969-7.2456 1.3097-2.2353 2.5507-4.9694 1.1456-7.364zm-6.3618 7.3617c-1.304-.4259-.83724-1.7234-.83724-1.7234s1.1386.36808 2.6791.87062c-.08884.4024-.8551 1.1743-1.8418.85228z" fill="#0097a7" stroke-width=".47009"/>
</svg>
