<svg version="1.1" viewBox="0 0 400 400" xmlns="http://www.w3.org/2000/svg">
<g transform="translate(2.6836 .83498)" fill="#ec407a" stroke="#ec407a" stroke-width="6.8031">
<path d="m67.008 293.02-13.143-7.5883 146.42-253.6 13.143 7.5883z"/>
<path d="m50.855 265.17h292.83v15.177h-292.83z"/>
<path d="m203.12 358.27-146.47-84.568 7.5883-13.143 146.47 84.568zm127.24-220.41-146.47-84.568l7.5883-13.143 146.47 84.568z"/>
<path d="m64.278 137.8-7.5883-13.142 146.47-84.568 7.5883 13.143z"/>
<path d="m327.66 293.02-146.42-253.6 13.143-7.5883 146.42 253.6zm-265.2-178.43h15.177v169.14h-15.177zm254.53 0h15.177v169.14h-15.177z"/>
<path d="m200.54 351.85-6.6283-11.481 127.39-73.552 6.6283 11.48z"/>
<path d="m352.28 288.67c-8.7768 15.268-28.342 20.479-43.61 11.702-15.268-8.7768-20.479-28.342-11.702-43.61 8.7768-15.268 28.342-20.479 43.61-11.702 15.359 8.8682 20.571 28.342 11.702 43.61m-254.71-147.1c-8.7768 15.268-28.342 20.479-43.61 11.702-15.268-8.7768-20.479-28.342-11.702-43.61 8.7768-15.268 28.342-20.479 43.61-11.702 15.268 8.8682 20.479 28.342 11.702 43.61m-55.221 147.1c-8.7768-15.268-3.5656-34.742 11.702-43.61 15.268-8.7768 34.742-3.5656 43.61 11.702 8.7768 15.268 3.5656 34.742-11.702 43.61-15.359 8.7768-34.833 3.5656-43.61-11.702m254.71-147.1c-8.7768-15.268-3.5656-34.742 11.702-43.61 15.268-8.7768 34.742-3.5656 43.61 11.702 8.7768 15.268 3.5656 34.742-11.702 43.61-15.268 8.7768-34.833 3.5656-43.61-11.702m-99.745 236.61c-17.645 0-31.907-14.262-31.907-31.907 0-17.645 14.262-31.907 31.907-31.907 17.645 0 31.907 14.262 31.907 31.907 0 17.554-14.262 31.907-31.907 31.907m0-294.21c-17.645 0-31.907-14.262-31.907-31.907s14.262-31.907 31.907-31.907c17.645 0 31.907 14.262 31.907 31.907s-14.262 31.907-31.907 31.907"/>
</g>
</svg>
