<svg version="1.1" viewBox="0 0 24 24" xmlns="http://www.w3.org/2000/svg">
<path d="m12 1.8809a10.119 10.119 0 0 0 -10.119 10.119 10.119 10.119 0 0 0 10.119 10.119 10.119 10.119 0 0 0 10.119 -10.119 10.119 10.119 0 0 0 -10.119 -10.119zm1.2539 2.4219c.90983 0 1.6469.2609 2.2129.7793.57129.51839.85742 1.1885.85742 2.0137 0 .88867-.31893 1.6725-.95898 2.3496-.64006.67708-1.3765 1.0156-2.207 1.0156-.48665 0-.89022-.11938-1.2129-.35742-.31738-.23804-.47656-.53174-.47656-.88086 0-.21159.05998-.39852.18164-.5625.12695-.16398.27352-.24609.4375-.24609.15869 0 .23828.092204.23828.27734 0 .16398.05998.29093.18164.38086.12166.089925.26123.13477.41992.13477.42318 0 .8287-.28866 1.2148-.86523.39144-.58187.58789-1.2021.58789-1.8633 0-.46549-.15161-.84383-.45312-1.1348-.30151-.29622-.68994-.44531-1.166-.44531-.71411 0-1.4063.31836-2.0781.95312-.6665.63477-1.2116 1.4691-1.6348 2.5059-.41789 1.0315-.62695 2.0143-.62695 2.9453 0 .85693.18441 1.5391.55469 2.0469.37028.50252.86296.75391 1.4766.75391 1.0368 0 2.0278-.73397 2.9746-2.1992l1.4922-.21289c.18514-.02645.27734.01839.27734.13476 0 .0529-.07202.27962-.21484.68164-.14282.40202-.33732 1.0741-.58594 2.0156.8199-.47607 1.4547-1.0035 1.9043-1.5801v.91406c-.3597.41789-1.0469.88843-2.0625 1.4121-.21159 1.4071-.68156 2.4928-1.4062 3.2598-.72469.7723-1.5388 1.1602-2.4434 1.1602-.43376 0-.77482-.10173-1.0234-.30274-.24333-.20101-.36523-.47762-.36523-.83203 0-.98389.95565-1.9395 2.8652-2.8652.20101-.71411.39551-1.3564.58594-1.9277-.33325.48136-.81641.90706-1.4512 1.2773-.63476.37028-1.2247.55469-1.7695.55469-.88867 0-1.6283-.38338-2.2207-1.1504-.58716-.7723-.88086-1.7481-.88086-2.9277 0-1.2431.3335-2.4204 1-3.5313.6665-1.1161 1.5406-2.0073 2.625-2.6738 1.0844-.67179 2.1348-1.0078 3.1504-1.0078zm-1.2227 12.188c-1.3753.68766-2.0625 1.3647-2.0625 2.0312 0 .35441.16927.5332.50781.5332.6665 0 1.1844-.85588 1.5547-2.5645z" fill="#26c6da"/>
</svg>
