<svg version="1.1" viewBox="0 0 24 24" xmlns="http://www.w3.org/2000/svg">
<path d="m8.5284 11.121c-2.7541 2e-6-4.2025 3.4782-5.7937 3.4782-.97939 0-1.1263-.67607-1.1263-.91428 0-.33234.23623-.70558.5648-.70558.59036 0 .41408.77018.41408.77018s.79755-.55549.27163-1.2985c-.42087-.59464-1.3098-.62318-1.9197-.1706-.6179.45856-1.0574 1.1467-.85299 2.2874.098831.5514.46763 1.3501 1.2323 1.8054.76465.4553 1.9256.56646 2.3354.56646 2.1937 0 4.3419-1.6331 6.6385-2.3221.59025-.17709 1.1113-.21407 1.4973-.22194.09671-.005 1.0111-.04733 1.9197.22526 2.2966.689 4.4448 2.3238 6.6385 2.3238.40982 0 1.5707-.11115 2.3354-.56645.76466-.4553 1.1318-1.2556 1.2306-1.807.20443-1.1406-.23509-1.8288-.85299-2.2874-.60985-.45259-1.4971-.42238-1.918.17225-.52591.74305.26998 1.2969.26998 1.2969s-.17629-.77018.41408-.77018c.32857 0 .5648.37324.5648.70558 0 .23821-.1469.91428-1.1263.91428-1.5912 0-3.0397-3.4782-5.7937-3.4782-2.5651 0-3.0754 1.1768-3.4617 1.7176-.0037.0051-.0048.01142-.0083.01656-.0045-.0063-.007-.01353-.0116-.01988-.38633-.54076-.89657-1.7176-3.4617-1.7176z" fill="#ff7043" fill-rule="evenodd"/>
</svg>
