<svg enable-background="new 0 0 144 152" version="1.1" viewBox="0 0 144 152" xml:space="preserve" xmlns="http://www.w3.org/2000/svg"><g id="work" display="none"><g id="logotype" display="inline"/><g id="logo_v3__x28_stroke_x29_" display="inline"/></g><g id="purple" transform="matrix(1.594 0 0 1.594 -42.766 -45.142)" fill="#6963b9"><path d="m100.8 36h-57.6c-3.976 0-7.2 3.224-7.2 7.2v65.6c0 3.976 3.224 7.2 7.2 7.2h57.6c3.976 0 7.2-3.224 7.2-7.2v-65.6c0-3.976-3.224-7.2-7.2-7.2zm-46.8 68v-16l9 8zm28 0v-23.89c-.039-1.867-.938-4.11-5-4.11-8.134 0-17.258 4.091-17.349 4.132l-5.651 2.56v-34.692h8v22.711c3.994-1.3 9.577-2.711 15-2.711 4.945 0 7.905 1.944 9.517 3.575 3.441 3.48 3.488 7.913 3.483 8.425v24zm2-43h-8c3.144-4.125 5.118-8.466 6-13h8c-.54 4.544-2.382 8.9-6 13z" fill="#6963b9"/></g></svg>
