<svg version="1.1" viewBox="0 0 24 24" xmlns="http://www.w3.org/2000/svg">
<path d="m16.047 13.856c.07425-.61254.12993-1.2251.12993-1.8562s-.05569-1.2436-.12993-1.8562h3.1369c.1485.59398.2413 1.2158.2413 1.8562 0 .64038-.09281 1.2622-.2413 1.8562m-4.7797 5.1602c.55685-1.0302.98378-2.1439 1.2808-3.304h2.7379c-.89097 1.5314-2.3109 2.7193-4.0186 3.304m-.23202-5.1602h-4.3435c-.092809-.61254-.14849-1.2251-.14849-1.8562s.055685-1.2529.14849-1.8562h4.3435c.08353.60326.14849 1.2251.14849 1.8562s-.06497 1.2436-.14849 1.8562m-2.1717 5.5314c-.77032-1.1137-1.3921-2.3481-1.7727-3.6752h3.5453c-.38052 1.3272-1.0023 2.5615-1.7727 3.6752m-3.7124-11.1h-2.71c.88169-1.5406 2.3109-2.7286 4.0094-3.304-.55685 1.0302-.9745 2.1439-1.2993 3.304m-2.71 7.4247h2.71c.32483 1.1601.74247 2.2738 1.2993 3.304-1.6984-.5847-3.1277-1.7727-4.0094-3.304m-.76103-1.8562c-.14849-.59398-.2413-1.2158-.2413-1.8562 0-.64038.092809-1.2622.2413-1.8562h3.1369c-.074247.61254-.12993 1.2251-.12993 1.8562s.055685 1.2436.12993 1.8562m4.0465-9.2531c.77032 1.1137 1.3921 2.3574 1.7727 3.6845h-3.5453c.38052-1.3272 1.0023-2.5708 1.7727-3.6845m6.4224 3.6845h-2.7379c-.29699-1.1601-.72391-2.2738-1.2808-3.304 1.7077.5847 3.1277 1.7634 4.0186 3.304m-6.4224-5.5685c-5.1323 0-9.2809 4.1764-9.2809 9.2809a9.2809 9.2809 0 0 0 9.2809 9.2809 9.2809 9.2809 0 0 0 9.2809 -9.2809 9.2809 9.2809 0 0 0 -9.2809 -9.2809z" fill="#e53935" stroke-width=".92809"/>
</svg>
