<svg version="1.1" viewBox="0 0 240 240" xmlns="http://www.w3.org/2000/svg">
<g transform="translate(.013558 169.91)" fill="none" fill-rule="evenodd">
<path d="m216.05-56.964c-1.4331.34348-24.945 6.6732-24.945 6.6732l-19.227-28.622c-.53707-.82802-.98932-1.656.35898-1.8492 1.3455-.19627 23.195-4.4774 24.182-4.7228.98934-.24534 1.8373-.53668 3.0528 1.2666 1.2098 1.8002 17.836 24.626 18.464 25.506.62751.87709-.44661 1.4107-1.8825 1.748m-4.1014 49.326c.58794 1.0028 1.1759 1.6407-.66992 2.3675-1.843.72989-62.243 22.847-63.418 23.39-1.1731.54588-2.0917.72989-3.6068-1.6376-1.5094-2.3614-21.16-39.264-21.16-39.264l64.029-18.075c1.8769-.64402 2.3178-.40481 3.1037.82189 1.0741 1.6806 21.143 31.403 21.726 32.4m-103.7-21.087c-.78015.20241-37.566 9.7339-39.525 10.221-1.9645.48454-1.9645.24534-2.1878-.49068-.22613-.72682-43.728-98.053-44.333-99.271-.6049-1.2144-.57381-2.1774 0-2.1774.57098 0 34.734-3.3121 35.944-3.3826 1.207-.0705 1.0798.20547 1.5264 1.0335l49.025 91.818c.83951 1.5794 1.2381 1.8094-.45226 2.2479m94.588-59.771c-3.4994-4.5786-5.201-3.7506-7.3577-3.4102-2.1539.33734-27.277 4.916-30.194 5.4496-2.9171.53668-4.7572 1.8032-2.9623 4.5296 1.597 2.4227 18.113 27.825 21.751 33.421l-65.663 17.066-52.236-94.729c-2.0748-3.3428-2.5072-4.5142-7.2362-4.2812-4.7346.23001-40.969 3.4961-43.55 3.7322-2.5807.23306-5.4158 1.4782-2.8351 8.0901 2.5835 6.6119 43.734 102.82 44.881 105.62 1.1476 2.803 4.1269 7.3449 11.109 5.5263 7.157-1.8707 31.969-8.8936 45.52-12.742 7.1627 14.07 21.771 42.619 24.473 46.707 3.6068 5.4588 6.0886 4.5603 11.626 2.7386 4.3247-1.4199 67.65-26.129 70.502-27.401 2.8549-1.2727 4.6131-2.1835 2.6853-5.2748-1.419-2.2786-18.124-26.558-26.876-39.26 5.9925-1.7327 27.305-7.8877 29.575-8.5562 2.6457-.77896 3.0076-2.1897 1.5716-3.9408-1.4359-1.7542-21.293-28.72-24.79-33.296z" fill="#ff5722" stroke="#ff5722" stroke-width="8.852"/>
</g>
</svg>
