<svg version="1.1" viewBox="0 0 24 24" xmlns="http://www.w3.org/2000/svg">
<g transform="translate(-.20339 -.1017)">
<circle cx="12.203" cy="12.102" r="10.322" fill="none" stroke="#42a5f5"/>
<path d="m12.33 5.7461a6.4831 6.3814 0 0 0 -6.4824 6.3809 6.4831 6.3814 0 0 0 6.4824 6.3809 6.4831 6.3814 0 0 0 6.4844 -6.3809 6.4831 6.3814 0 0 0 -6.4844 -6.3809zm1.8594 1.916a2.329 2.2925 0 0 1 2.3301 2.293 2.329 2.2925 0 0 1 -2.3301 2.291 2.329 2.2925 0 0 1 -2.3281 -2.291 2.329 2.2925 0 0 1 2.3281 -2.293z" fill="#42a5f5" fill-rule="evenodd"/>
<ellipse cx="19.631" cy="4.6154" rx="2.329" ry="2.2925" fill="#42a5f5" fill-rule="evenodd"/>
</g>
</svg>
