<svg version="1.1" viewBox="0 0 24 24" xmlns="http://www.w3.org/2000/svg"><path d="m3.4033 2.4703a2.0605 2.0605 0 0 0 -2.0605 2.0605v12.363c0 1.1333.91691 2.0605 2.0605 2.0605h7.9823l1.7586 1.654c.11123.1044.2804.11019.39841.02012l1.2697-1.0242c.38887.1474.76866.22648 1.1671.26561l.68615 1.489c.06448.12745.21693.20473.36219.15695l2.3341-.70426c.14526-.04776.2372-.18795.2153-.33402l-.24548-1.6198c.15142-.12566.29682-.25563.43463-.40244.1378-.14682.26216-.3069.38634-.47487l1.6198.15695c.14718.0126.28344-.08749.32195-.23542l.55335-2.3744c.03848-.14798-.04361-.30031-.17908-.35213l-1.5252-.5956c-.06852-.3907-.16617-.7666-.34207-1.1409l.9417-1.3341c.08241-.12348.06489-.292-.04628-.3964l-1.6097-1.5091v-5.6683c0-1.1333-.91691-2.0605-2.0605-2.0605zm0 4.1209h14.423v4.3825c-.31072-.10013-.62095-.16796-.93968-.20323l-.69018-1.483c-.06034-.13189-.21894-.20473-.3642-.15695l-2.3341.70426c-.1497.04359-.23719.18795-.2153.33402l.25957 1.6057c-.15978.13457-.31092.26969-.44872.41652-.1378.14682-.25844.30171-.37426.46079l-1.6319-.14286c-.14718-.0126-.28588.08329-.31994.23542l-.55536 2.3744c-.03848.14799.04776.29587.17908.35213l1.5293.58957c.0465.2855.12293.5607.22134.83304h-8.7389zm12.991 6.5959a2.1356 2.1356 0 0 1 1.4971 .57749 2.1356 2.1356 0 0 1 .09658 3.0203 2.1356 2.1356 0 0 1 -3.0183 .09458 2.1356 2.1356 0 0 1 -.09658 -3.0183 2.1356 2.1356 0 0 1 1.5212 -.67408z" style="fill:#ef5350;stroke-width:1.0302"/></svg>
