<svg version="1.1" viewBox="0 0 23 24" xmlns="http://www.w3.org/2000/svg">
<path d="m11.498 1.5249-.07325.024902-.45996.79395-.4541.7632-1.2172 2.0889h-.01758l-3.8554-1.6948-.099607-.046875h-.017578v.092288l.024902.1626v.086423l.13184 1.2261v.082035l.032227.25196v.082035l.21973 2.1372v.074707l.017578.082035v.06006l-2.3482.50684-.03955.014647-.45704.099608-.024902.010252h-.042477l-1.0957.24463-.039551.00735-.16992.035153v.082035l.017578.010252 1.8589 2.0859.052734.05273.11426.13184.80422.90818v.0059l-.052734.04981-.21973.25635-2.5649 2.8755-.010254.0073v.08204l.071777.0058.29444.07471 1.6978.36621v.0059l2.1387.47168h.014648v.04687l-.035156.25196v.08057l-.046875.41162v.08204l-.035156.24463v.08204l-.04541.41162v.08057l-.049804.40868v.08057l-.036621.24463v.08204l-.04541.41162v.08204l-.049804.40719v.08204l-.032227.24756v.08203l-.049805.40723v.104h.036621l3.6416-1.5996.29444-.13477h.01758l.17725.31202.53906.9111.01465.03223.85402 1.4648.15967.26221.4043.69434.0074.02198h.09229l.0044-.02198.01758-.0249.55957-.94628.01465-.04248.59912-1.0328.31641-.53906.64454-1.0913.04981.01319 3.9052 1.7212h.03515v-.08496l-.13769-1.3198v-.08203l-.03223-.24463v-.08204l-.03515-.24463v-.08496l-.03223-.24463v-.08057l-.03223-.24463v-.08204l-.03226-.24462v-.08496l-.03515-.24463v-.08204l-.03223-.24462v-.08203l-.03223-.24463v-.08496l-.0249-.16992v-.05273l1.6318-.3545.04248-.0073.4585-.10694h.02783v-.01023l.22998-.04981.0293-.01025h.04248l.38233-.08936.0249-.01025h.04248l.19482-.04981h.03223l1.0151-.22998.07031-.0074v-.06445l-.01465-.01319-1.1909-1.3418-.02783-.02783-.19629-.21973-1.4282-1.604v-.0059l.29444-.32373.3999-.45704 2.1489-2.4082.01465-.010252v-.064455l-.03515-.00735-1.2876-.27979-.37207-.08496-.04687-.010252-2.4814-.54346v-.045413l.43213-4.2641v-.020508h-.04248l-.30183.13486-.01025.014648h-.0249l-3.3062 1.4502-.29736.13477h-.01465l-2.0288-3.4834-.09814-.14502-.01465-.04541zm-.0015 1.1133 1.3652 2.3233.33984.5918-.0074.024902-1.1806 1.5117-.51709.65918-.01172-.010252-.25781-.33398-.03955-.049805-1.3975-1.7871.029295-.062988 1.3784-2.3657.28711-.49072zm4.9087 2.0391-.0073.024902-.16846.22558-.5376.065918zm-9.8175.0044.052734.020508.67676.29883h-.49804l-.22412-.29884zm10.345.31933-.12304 1.2481-.11279-.92722.22558-.30762zm-9.2595.15674.052734.023437.70459.30908-.75735-.17432zm7.3872.11572.0205.16846-1.3184.40283.0029-.00293.15967-.071777 1.0151-.44385zm-5.4052 1.1162.94335 1.2041v.010252l-1.1294-.40283zm3.5493.17139.20948.68262-.23291.083498-.08935.021973-.70166.25488.0073-.021975.7764-.98145zm-4.9995.8364.98588.35596.89798.31202.04834.020505 1.0532.37207.01172 3.0864l-.36182-.11719-.6709-.22412-.080565-.038085-.73535-.24463-.76905-.25635-.2915-.099607-.010252-.25488-.032228-1.1953-.010252-.28711-.014647-.89355-.013185-.29736zm6.583 0-.01172.22705-.02783.9009-.0073.30176-.03223 1.4751-.01025.26221-.33692.11719-.73389.24463-.77048.25635-.71192.24463-.3545.11719.01025-3.0864 1.6318-.57715zm.58448.43652.08935.73535.79102-.096683-.91552 1.3022-.01758.00585.01025-.1831.01758-.87742zm-9.4515.53613.15234.21973 1.4473 2.0493-2.6074.96825-.049804.01465-1.9717-2.2134-.27979-.31202.00293-.010252.11426-.01758.42481-.099607.13916-.021975.33692-.07764.042481-.010252zm11.146.00293 3.2842.71338.0293.010252-.02198.0249-1.9541 2.1914-.27686.31202-.09229-.03515-2.5635-.9507.47461-.68115.15234-.21533zm-10.295.14942h.8613l.035152 1.2583-.013185-.00585-.7632-1.0781zm1.3579 2.625.15234.06006.77048.25196.71192.24463.7456.24756.48926.167-.06446.09229-1.7227 2.3335-1.0151-.30176-.082035-.01758-.035153-.01465-1.9014-.55957.9375-1.2202.98145-1.2773zm6.731 0 .03223.0059 1.7871 2.3276.13184.16992-.12744.03515-.03223.01465-2.1958.6416-.10546.03223-.56396.16992-.01758-.0029-1.0532-1.4399-.17432-.23877-.54639-.72656-.0073-.01758.46875-.15967.76905-.25488.71338-.24463.76905-.25196zm-7.7662.30469-.00733.0205-.4043.52295-.2915-.2915.65771-.24463zm8.802 0 .04248.0074.57861.2124.71338.26954-.66064.39404-.375-.479-.0293-.04248-.26221-.34131zm-10.843.75-.66944.66796.3545-.39698.20654-.22998zm12.911.01611.06738.0249.04541.04248.55371.62696.04248.04248.20361.22852-.25488.13477zm-6.4732.26514.02197.01465 1.3798 1.8721.03223.04981.34277.46582.0074.03077-.08789.11719-.42188.62842-.04687.07471-.24463.34277-.97118 1.4296-.01172.0074-1.1806-1.7198-.09521-.15967-.49365-.70898-.00735-.03662 1.6172-2.1914.0074-.01025zm7.827 1.1938.56543.63281.06299.08204-.27246-.09229-.03662-.01319zm-15.785.14795.29736.29883-.63721.21826-.15234.0498.038086-.05713zm13.225.47021-.85545.44824.3457.65918-.18457-.05713-.26954-.08789-1.0928-.34863.01172-.01025zm-9.687.25488 1.2217.35596-.00585.0073-.4585.14502-.44238.13477-.032227.01025-.49072.15674zm-2.7656.04834.31787.31934 2.0068.51709-.5669.18017-.0542.0044-2.1035-.46875-.74414-.15673.00733-.0059zm14.966.20508.54785.1875v.0029l-.45703.09961-.04248.01465-1.0694.22998zm-10.231.50683.00735.22706.010252.34717.0249 1.3623.0249.69141-.00735.25488-.24023.10694-2.8623 1.2554.032227-.37207.032227-.25488.017578-.22705.030762-.25635.036621-.40723.04541-.41894.017578-.22998.032227-.25196.032227-.41162.049805-.41455.013184-.13916 1.4546-.45704.00292-.01465.30176-.09815zm4.9087 0 1.2452.38965v.01465l.31202.09961 1.1455.36182.02197.22998.03077.25488.04248.40869.03955.41894.01758.22998.03223.25196.03223.41162.04248.32519.07764.84818-.07764-.03955-3.0249-1.3228-.0044-.30469.06006-2.3686zm-4.295.6167.014647.0074.06738.10694.59912.8745-.63867.53174-.035153-1.4385zm3.6709 0h.0074l-.0044.06006-.0205.67822-.0044.21387-.479-.22266zm-2.8887 3.605.7632.91552.0015.3706-.01758-.0073-.0249-.04981-.46436-.79102-.01172-.01758zm1.5308.60938.1831.0835-.34277.58594-.01758.0073.0015-.53174z" fill="#f44336" fill-rule="evenodd" stroke="#f44336" stroke-linejoin="round" stroke-width=".77475"/>
</svg>
