<?xml version="1.0" encoding="UTF-8"?>
<svg width="192" height="192" enable-background="new 0 0 193 208" version="1.1" viewBox="0 0 192 191.99999" xml:space="preserve" xmlns="http://www.w3.org/2000/svg"><title>Mocha Logo</title><g id="XMLID_228_" transform="matrix(4.835 0 0 4.835 -354.75 -262.42)" fill="#a1887f"><g id="XMLID_223_"><g id="XMLID_295_" fill="#a1887f"><path d="m103.6 69.6c0-0.5-0.4-1-1-1h-18.8c-0.5 0-1 0.4-1 1 0 3.4 0.5 15.1 5.5 20.8 0.2 0.2 0.4 0.3 0.7 0.3h8.4c0.3 0 0.5-0.1 0.7-0.3 5-5.6 5.5-17.3 5.5-20.8zm-7.4 18.2h-5.9c-0.3 0-0.5-0.1-0.7-0.3-3.4-4-3.8-12-3.9-14.8 0-0.5 0.4-1 1-1h13.2c0.5 0 1 0.4 1 1 0 2.8-0.5 10.7-3.9 14.8-0.3 0.2-0.5 0.3-0.8 0.3z" fill="#a1887f"/></g></g><path id="XMLID_225_" d="m95.1 66.6s3.6-2.1 1.4-5.9c-1.3-2-1.9-3.7-1.4-4.4-1.3 1.6-3.5 3.3-1.1 6.9 0.8 0.9 1.2 2.8 1.1 3.4z"/><path id="XMLID_224_" d="m91.1 66.9s2.4-1.4 0.9-4c-0.9-1.3-1.3-2.5-0.9-2.9-0.9 1.1-2.3 2.2-0.7 4.7 0.5 0.5 0.7 1.8 0.7 2.2z"/><path id="XMLID_227_" d="m99.3 78.5c-0.4 2.7-1.2 5.8-2.9 7.8-0.2 0.2-0.4 0.3-0.6 0.3h-5c-0.2 0-0.5-0.1-0.6-0.3-1.2-1.5-2-3.5-2.5-5.6 0 0 5.8 0.8 9.1-0.4 2.4-0.9 2.5-1.8 2.5-1.8z"/></g></svg>
