<?xml version="1.0" encoding="UTF-8"?>
<svg width="300" height="300" version="1.1" viewBox="0 0 300 300" xmlns="http://www.w3.org/2000/svg">
 <path d="m150 27.324-114.15 40.682 17.303 151.09 96.843 53.586 96.843-53.586 17.303-151.09zm-23.719 38.349c4.3458-0.07466 9.0401 1.3163 14.265 4.1313 2.2992 1.2393 9.2351 2.9936 15.407 3.8883 21.936 3.1798 47.975 19.934 56.21 36.186 5.667 11.183 4.5081 17.209-4.18 21.702-7.492 3.8742-22.822 1.9999-45.08-5.5166l-18.785-6.3427-6.683 2.5516c-9.6832 3.6981-19.366 12.877-23.33 22.09-2.8584 6.6448-3.2934 9.7678-2.7704 20.705 0.52377 10.955 1.3154 14.12 5.2006 20.997 4.423 7.8288 14.576 17.818 16.331 16.064 0.4727-0.47281-0.57422-3.6477-2.3087-7.0475-1.7345-3.3999-2.7431-6.825-2.2601-7.6065 0.48303-0.78139 5.055 2.123 10.158 6.44 11.349 9.6005 24.608 15.74 36.769 17.011 9.9853 1.0439 12.267-0.815 4.7875-3.9126-2.4094-0.9979-5.5444-3.088-6.9504-4.6417-2.9066-3.2118-3.0717-3.1202 9.3562-5.9054 7.7364-1.7336 23.026-9.8488 23.937-12.71 0.29029-0.9108-2.195-1.2963-6.2699-0.97177-3.7055 0.29489-6.7316-0.0871-6.7316-0.85107 0-0.759 3.0317-4.5228 6.7316-8.3842 13.883-14.489 18.62-25.32 20.098-45.906l1.0207-14.217 3.2565 6.756c3.6013 7.4522 4.2653 18.202 1.7012 27.437-2.1412 7.7112-0.71209 8.5636 3.2078 1.9199 4.845-8.2118 6.3909-6.9054 5.5408 4.666-0.92485 12.587-5.2435 22.017-14.994 32.686-7.9502 8.6988-7.001 10.254 2.6246 4.3258 9.2727-5.7113 10.511-4.8153 5.7353 4.1556-9.0311 16.964-28.122 31.349-47.948 36.161-12.016 2.9167-20.537 3.4608-31.544 2.0171-28.779-3.775-56.001-23.157-68.993-49.114-3.3774-6.748-8.1534-14.994-10.62-18.348-5.0918-6.9238-5.5284-10.038-2.09-15.286 1.7149-2.6173 2.1162-5.3062 1.4095-9.3076-3.2725-18.531-3.1657-19.11 4.2771-26.659 6.468-6.5609 6.8775-7.4403 6.8775-15.092 0-6.6374 0.6713-8.8125 3.6696-11.811 2.0201-2.0201 5.2314-3.7002 7.1205-3.7182 5.4908-0.04977 14.971-5.1343 20.584-11.033 4.6876-4.9264 9.6742-7.4172 15.262-7.5092z" fill="#e53935" stroke-width="12.914"/>
</svg>
