<svg version="1.1" viewBox="0 0 500 500" xmlns="http://www.w3.org/2000/svg">
<g transform="translate(-2.2428 35.799)" stroke-width=".3946">
<path d="m135.59 415.7c0-.29542-2.7523-5.2834-6.1162-11.084-3.3639-5.8011-6.1162-10.776-6.1162-11.055s9.5145-16.889 21.143-36.912c11.629-20.022 21.323-36.798 21.542-37.279.34648-.76047-1.6074-4.3632-14.896-27.466-8.4119-14.625-15.294-26.785-15.294-27.023 0-.50083 24.461-43.501 25.206-44.31.41409-.44969.59257-.3844 1.0787.3946.32039.51339 16.876 29.256 36.791 63.871 62.62 108.85 74.852 130.01 75.41 130.46.29884.24098.54334.55299.54334.69334 0 .1404-11.836.20962-26.302.15383-23.023-.0889-26.313-.17525-26.393-.69335-.11052-.71479-27.662-48.825-28.859-50.392-.74675-.97833-.90714-1.0357-1.4264-.51042-.68804.69605-28.954 49.323-29.49 50.733l-.36475.95934h-13.229c-10.896 0-13.229-.0946-13.229-.53712zm167.58-125.61c-.13379-.21646 1.1884-2.8634 2.9383-5.882 6.924-11.944 84.291-145.75 96.491-166.88 7.1425-12.371 13.142-22.465 13.333-22.433.36268.06198 25.861 43.105 25.861 43.655 0 .17379-6.7618 11.952-15.026 26.173-8.4596 14.557-14.932 26.104-14.81 26.421.18518.48257 4.5639.56435 30.213.56435h29.996l.9575 1.4797c.52658.81386 3.2964 5.5472 6.1553 10.518 2.8588 4.9713 5.4491 9.29 5.7562 9.5971.70528.70525.70341.72353-.16039 1.5718-.39535.38825-3.3596 5.3227-6.5872 10.965-3.2276 5.6427-6.056 10.387-6.2852 10.543-.2293.15575-19.695.17118-43.256.0343l-42.84-.24894-.80319 1.1495c-.44174.63222-7.5048 12.736-15.696 26.897l-14.892 25.747h-15.486c-8.5174 0-20.015.11654-25.551.25898-6.5492.16852-10.15.12151-10.308-.1346zm-133.75-157.86c-56.373-.0551-102.5-.18212-102.5-.28232 0-.10021 5.6166-10.132 12.481-22.294l12.481-22.112h30.332c27.113 0 30.332-.06478 30.332-.61063 0-.33585-6.6588-12.228-14.797-26.427-8.1385-14.199-14.797-25.917-14.797-26.04 0-.12306 2.682-4.8526 5.9601-10.51 3.278-5.6575 6.0029-10.578 6.0552-10.934.0861-.58648 1.3753-.64804 13.572-.64804 7.4125 0 13.463.14254 13.446.31675-.0175.17421.22142.70692.53085 1.1838.30945.47687 9.7625 16.937 21.007 36.578 11.244 19.641 20.71 36.022 21.036 36.401.55406.64672 2.5485.69054 31.428.69054h30.837l12.896 22.145c7.0927 12.18 12.799 22.301 12.682 22.492-.1178.19061-4.7761.30248-10.352.24864-5.5756-.0538-56.261-.14296-112.63-.19804z" fill="#5075c1"/>
<path d="m25.289 203.14c-6.0985 10.563-6.6895 11.711-6.2247 12.078.28251.22351 3.18 5.044 6.4405 10.712 3.2606 5.6676 6.0162 10.355 6.1228 10.417.10658.0615 13.585.15295 29.951.2043 16.366.0513 29.993.23063 30.284.39856.47272.27293-1.0805 3.0937-14.637 26.574l-15.166 26.269 12.907 21.865c7.0998 12.026 12.982 21.906 13.068 21.956.08682.0501 23.257-39.831 51.492-88.624 11.352-19.617 21.214-36.639 30.371-52.442 23.307-40.452 30.68-53.468 30.729-54.132-1.0962-.11-6.1408-.18696-13.006-.21634-3.9448-.009-7.8197-.0201-12.749-.002l-25.342.0926-15.419 26.706c-14.257 24.693-15.446 26.663-16.279 26.86-.00078.00059-.0229.0363-.0233.0364-.0116.003-1.6211-9e-4-1.8251.00099-4.2911.0615-20.453.062-40.226-.0101-22.632-.0827-41.615-.12549-42.183-.096-.5677.0296-1.1476-.0298-1.2897-.132-.14214-.10223-3.2901 5.0659-6.9964 11.485zm205.16-190.3c-.12346.14874 5.6191 10.392 12.761 22.763 12.199 21.131 89.393 155.03 96.276 167 1.5025 2.613 2.9194 4.803 3.4426 5.348.89964-1.249 3.5317-5.63 7.9544-13.219 2.9272-5.2674 6.7306-12.011 10.049-17.76l6.6064-11.443c.69173-1.4034.7532-1.8183.65264-2.1169-.16158-.47972-6.9036-12.332-14.982-26.337-8.078-14.005-14.824-25.849-14.991-26.32-.0311-.0878-.0368-.20326-.009-.36588l-.42588-.91297 21.636-36.976c3.6905-6.3073 6.4251-11.042 9.4707-16.29 9.1579-15.948 12.036-21.189 11.895-21.55-.12627-.32382-2.7002-4.8312-5.7207-10.017-3.0205-5.1857-5.8446-10.148-6.2746-11.026-.48295-.98711-.73396-1.3642-1.0994-1.4561-.0544.01411-.0829.0179-.14469.03446-.41954.11239-5.4546.1957-11.189.18587-5.7347-.0098-11.22.02312-12.188.07224l-1.7599.08892-14.998 25.978c-12.824 22.212-15.084 25.964-15.595 25.883-.0237-.0037-.14913-.18823-.23461-.30109-.10887.06661-.20056.09069-.27149.04973-.25583-.14771-7.1437-11.901-15.306-26.118l-14.36-25.016c-.11573-.1867-.44414-.74426-.45756-.75201-.4765-.27511-50.502.28629-50.737.56939zm-18.646 283.09c-.0473.10857-.0259.26179.0424.48059.32831 1.0502 25.338 43.734 25.772 43.984.2063.11911 14.178.2393 31.05.26671 26.651.0433 30.749.15123 31.234.83152.30723.43065 9.9878 17.214 21.513 37.296s21.152 36.627 21.394 36.767c.24187.13964 5.9269.24276 12.633.23003 6.7058-.0126 12.401.0988 12.657.24647.13149.0758.38162-.14135.8515-.79493l6.0081-10.406c5.2341-9.0657 6.6203-11.684 6.2943-11.888-.57532-.36065-15.597-26.643-23.859-41.482-3.0901-5.4498-5.3706-9.5161-5.4413-9.7739-.19529-.71238-.0649-.8225 1.1558-.98002 1.956-.25244 57.397-.0573 58.071.20447.23717.092.78946-.56849 2.5931-3.497 1.8662-3.0672 5.0303-8.5241 11.001-18.866 7.2197-12.505 13.043-22.784 12.941-22.843-.10161-.0587-.77093-.0511-1.4888.0163-.00056 6e-5-.0451.00073-.0459.00078-4.4517.2035-33.918.20315-149.74.0251-38.961-.0598-69.786-.0897-71.912-.0721-1.1213.01-2.0949.0755-2.6611.17218-.0259.0242-.0477.0512-.0612.0826z" fill="#7db7e1"/>
</g>
</svg>
