<svg width="300" height="300" version="1.2" viewBox="0 0 224.99986 225.00041" xmlns="http://www.w3.org/2000/svg"><defs><clipPath id="a"><path d="m239.03 226.6-42.13 24.317c-1.578.91-2.546 2.59-2.546 4.406v48.668c0 1.817.968 3.496 2.546 4.406l42.133 24.336c1.575.907 3.517.907 5.09 0l42.126-24.336c1.57-.91 2.54-2.59 2.54-4.406v-48.668c0-1.816-.97-3.496-2.55-4.406l-42.12-24.317c-.79-.453-1.67-.68-2.55-.68s-1.76.227-2.55.68"/></clipPath><linearGradient id="b" x1="-.348" x2="1.251" gradientTransform="matrix(-38.065 77.652 -77.652 -38.065 258.72 244.63)" gradientUnits="userSpaceOnUse"><stop stop-color="#3E863D" offset=".3"/><stop stop-color="#55934F" offset=".5"/><stop stop-color="#5AAD45" offset=".8"/></linearGradient><clipPath id="c"><path d="m195.4 307.09c.403.523.907.976 1.5 1.316l36.14 20.875 6.02 3.46c.9.52 1.926.74 2.934.665.336-.027.672-.09 1-.183l44.434-81.36c-.34-.37-.738-.68-1.184-.94l-27.586-15.93-14.582-8.39c-.414-.24-.863-.41-1.32-.53z"/></clipPath><linearGradient id="d" x1="-.456" x2=".582" gradientTransform="matrix(106.81 -78.917 78.917 106.81 235.19 285.39)" gradientUnits="userSpaceOnUse"><stop stop-color="#3E863D" offset=".57"/><stop stop-color="#619857" offset=".72"/><stop stop-color="#76AC64" offset="1"/></linearGradient><clipPath id="e"><path d="m241.07 225.95c-.707.07-1.398.29-2.035.652l-42.01 24.247 45.3 82.51c.63-.09 1.25-.3 1.81-.624l42.13-24.336c1.3-.754 2.19-2.03 2.46-3.476l-46.18-78.89c-.34-.067-.68-.102-1.03-.102-.14 0-.28.007-.42.02"/></clipPath><linearGradient id="f" x1=".043" x2=".984" gradientTransform="matrix(97.417 0 0 97.417 192.86 279.65)" gradientUnits="userSpaceOnUse"><stop stop-color="#6BBF47" offset=".16"/><stop stop-color="#79B461" offset=".38"/><stop stop-color="#75AC64" offset=".47"/><stop stop-color="#659E5A" offset=".7"/><stop stop-color="#3E863D" offset=".9"/></linearGradient></defs><g transform="translate(-12.441 -.851)"><g transform="matrix(1.8117 0 0 1.8117 -312.71 -393.32)" clip-path="url(#a)"><path d="m331.36 246.79-118.72-58.19-60.87 124.17 118.71 58.193z" style="fill:url(#b)"/></g><g transform="matrix(1.8117 0 0 1.8117 -312.71 -393.32)" clip-path="url(#c)"><path d="m144.07 264 83.825 113.45 110.86-81.906-83.83-113.45z" style="fill:url(#d)"/></g><g transform="matrix(1.8117 0 0 1.8117 -312.71 -393.32)" clip-path="url(#e)"><path d="m197.02 225.93v107.43h91.683v-107.43z" style="fill:url(#f)"/></g></g></svg>
