<?xml version="1.0" encoding="UTF-8"?>
<svg version="1.1" viewBox="0 0 32 32" xmlns="http://www.w3.org/2000/svg">
 <path d="m11.545 21.318c-0.14136-0.84814-0.56543-1.5549-1.4136-1.8376-0.28271-0.14136-0.70679-0.42407-0.9895-0.56543-0.42407-0.14136-0.84814-0.28271-1.1309-0.42407s-0.56543 0-0.84814 0.28271c-0.14136 0.28271 0 0.56543 0.14136 0.70678 0.14136 0.28272 0.28271 0.42407 0.56543 0.70679 0.28271 0.42407 0.56543 0.70679 0.9895 1.1309 0.28271 0.42407 0.56543 0.70679 0.42407 1.2722-0.14136 0.9895-0.56543 1.979-1.2722 2.6858-0.14136 0.14136-0.28271 0.14136-0.28271 0.14136-0.42407 0-0.9895-0.28271-1.2722-0.56543-0.42407-0.42407-0.28271-0.84814 0.14136-1.1309 0.14136 0 0.28271-0.14136 0.28271-0.28271 0.28271-0.28271 0.42407-0.56543 0.28271-0.9895-0.14136-0.14136-0.14136-0.28271-0.28271-0.42407-0.56543-0.56543-1.2722-1.1309-1.979-1.6963-1.8376-1.4136-2.6858-3.1099-2.8271-5.0889-0.14136-2.2617 0.42407-4.3821 1.5549-6.3611 0.42407-0.70679 0.9895-1.4136 1.8376-1.8376 0.56543-0.28271 1.1309-0.42407 1.6963-0.56543 1.5549-0.42407 3.2512-0.70679 4.9475-0.42407 1.4136 0.28271 2.5444 0.9895 2.9685 2.4031 0.28272 0.9895 0.42407 1.8376 0.28272 2.8271-0.14136 1.979-1.6963 3.6753-3.5339 4.2407-0.84814 0.28271-1.2722 0.14136-1.6963-0.56543-0.28271-0.42407-0.70679-0.9895-0.9895-1.5549v-0.14136c0-0.14136-0.14136-0.14136-0.14136-0.28272 0.14136 0.84814 0.28271 1.6963 0.70679 2.4031 0.28271 0.42407 0.56543 0.70678 1.1309 0.70678 1.8376 0.14136 3.2512-0.42407 4.3821-1.8376 1.1309-1.5549 1.4136-3.3926 1.1309-5.3716 0-0.42407-0.14136-0.70679-0.28272-1.1309 0-0.28271 0-0.42407 0.28272-0.56543 0.14136 0 0.28271 0 0.28271-0.14136 1.4136-0.28271 2.9685-0.42407 4.3821-0.28271 1.6963 0.14136 3.2512 0.56543 4.6648 1.5549 2.2617 1.4136 3.6753 3.5339 4.3821 6.0784 0.14136 0.42407 0.14136 0.70679 0.14136 1.1309 0 0.28271-0.14136 0.28271-0.42407 0.14136-0.28271-0.14136-0.42407-0.42407-0.56543-0.56543-0.14136-0.14136-0.28271-0.42407-0.42407-0.56543-0.14136-0.14136-0.28272-0.14136-0.28272 0 0 0.14136-0.14136 0.28271-0.14136 0.42407-0.42407 1.4136-0.9895 2.6858-1.979 3.6753-0.14136 0.14136-0.28272 0.42407-0.28272 0.56543 0 0.56543-0.14136 1.1309 0 1.6963 0.14136 1.1309 0.28272 2.4031 0.42407 3.5339 0.14136 0.70678-0.14136 0.9895-0.70678 1.2722-0.42407 0.14136-0.84814 0.28271-1.4136 0.28271h-2.2617c0-0.84814 0-1.6963-0.70679-2.1204 0.14136-0.56543 0.28271-1.1309 0.42407-1.8376 0.14136-0.56543 0-0.9895-0.28271-1.4136-0.28272-0.42407-0.70679-0.42407-1.1309-0.28271-1.1309 0.70679-2.2617 0.70679-3.5339 0.28271-0.56543-0.14136-0.9895-0.14136-1.2722 0.42407-0.28271 0.56543-0.42407 1.1309-0.42407 1.6963 0 0.70679 0.14136 1.5549 0.28271 2.2617 0 0.42407 0 0.56543-0.42407 0.70679-0.9895 0.28271-1.979 0.28271-2.8271 0.14136h-0.14136c0-0.84814 0-1.6963-0.9895-2.1204 0.56543-0.56543 0.56543-1.5549 0.42407-2.4031zm-5.7956-3.2512c0.14136-0.14136 0.28271-0.28271 0.28271-0.56543 0.14136-0.42407-0.28271-1.1309-0.70679-1.2722-0.28271-0.14136-0.42407 0-0.56543 0.14136-0.42407 0.42407-0.70679 0.84814-1.1309 1.2722 0 0.14136-0.14136 0.14136-0.14136 0.28271-0.14136 0.28271 0 0.56543 0.28271 0.56543 0.14136 0 0.42407 0 0.56543 0.14136 0.56543 0 0.9895-0.14136 1.4136-0.56543zm0-4.6648c0-0.28271-0.28271-0.56543-0.56543-0.56543-0.28271 0-0.70679 0.28271-0.56543 0.70679 0 0.28271 0.28271 0.56543 0.70679 0.56543 0.14136-0.14136 0.42407-0.42407 0.42407-0.70679z" fill="#0288d1" stroke-width="1.4136"/>
</svg>
