<svg version="1.1" viewBox="0 0 80 80" xml:space="preserve" xmlns="http://www.w3.org/2000/svg"><defs><clipPath id="clipPath4526"><rect transform="scale(1,-1)" x="-2.9833" y="-69.251" width="69.412" height="67.108" fill="#564b55"/></clipPath></defs><g transform="matrix(1.1304 0 0 -1.1304 5.7143 82.137)" clip-path="url(#clipPath4526)"><g transform="translate(2.0039 3.5924)" stroke-width=".1"><path d="m59.212 33.684c0-17.059-13.826-30.886-30.885-30.886-17.06 0-30.885 13.828-30.885 30.886s13.824 30.885 30.885 30.885c17.059 0 30.885-13.827 30.885-30.885" fill="#e53935"/><path d="m44.27 48.58-10.504.09574-6.1415 6.1415-7.2096-4.7882 1.2445-1.2438-2.9208.02605-9.9128-16.682h-3.8895l2.439-2.4402-2.4571-4.1364 22.748-22.747c.21918-.00402.4399-.00805.66031-.00805 17.042 0 30.858 13.806 30.885 30.841l-14.942 14.942" fill="#d51c2f"/><path d="m13.11 31.427c0 8.4048 6.813 15.215 15.217 15.215 8.4028 0 15.214-6.8103 15.214-15.215zm34.206-.7017v1.4046h4.4015c-.17491 5.9337-2.5556 11.31-6.3539 15.342l-3.2883-3.2895-.99253.99407 3.2876 3.2887c-4.0315 3.7983-9.4082 6.179-15.341 6.3527l-.0015-4.4002h-1.4035v4.4002c-5.9341-.17367-11.31-2.5556-15.341-6.3527l3.2887-3.2887-.99448-.99212-3.2883 3.2876c-3.7975-4.0315-6.1781-9.4082-6.3531-15.342h4.4002l-8e-4-1.4034h-4.4175v-5.1511h46.818v5.1499h-4.4196" fill="#f5f5f5"/></g></g></svg>
