<svg width="100" height="100" enable-background="new 0 0 821.326 907.827" version="1.1" viewBox="0 0 100 99.999997" xml:space="preserve" xmlns="http://www.w3.org/2000/svg"><g transform="translate(.1933 -.1)" fill="#42a5f5"><path d="m98.079 38.548-18.858-18.868-5.0864 5.0876 16.313 16.322-16.313 16.321 5.0864 5.0864 18.858-18.861c.67928-.68168 1.0547-1.5874 1.0547-2.5491-.003-.96174-.37659-1.8627-1.0547-2.5396" clip-path="url(#SVGID_2_)" stroke-width="1.1917"/><path d="m25.483 42.794-5.0888-5.0888-18.865 18.863c-.67691.67691-1.0511 1.5826-1.0487 2.5444 0 .96174.37182 1.8639 1.0487 2.542l18.865 18.865 5.0888-5.0864-16.321-16.321z" clip-path="url(#SVGID_2_)" stroke-width="1.1917"/><polygon transform="matrix(1.1917 0 0 1.1917 -306.84 -629.05)" points="316.68 557.77 310.22 551.74 281.84 551.74 288.3 557.77" clip-path="url(#SVGID_2_)"/><polygon transform="matrix(1.1917 0 0 1.1917 -306.84 -629.05)" points="310.22 572.9 316.68 566.86 288.3 566.86 281.84 572.9" clip-path="url(#SVGID_2_)"/><polygon transform="matrix(1.1917 0 0 1.1917 -306.84 -629.05)" points="316.68 588.02 310.22 581.98 281.84 581.98 288.3 588.02" clip-path="url(#SVGID_2_)"/></g></svg>
