<?xml version="1.0" encoding="UTF-8"?>
<svg width="24" height="24" version="1.1" viewBox="0 0 24 24" xmlns="http://www.w3.org/2000/svg">
 <path d="m11.956 4.0498c-5.6945 0-10.354 3.1061-10.354 6.9472 0 3.396 3.6859 6.2121 8.5313 6.8126v2.2053h3.5306v-2.195c0.88005-0.09318 1.698-0.25884 2.4745-0.49697l1.4288 2.6919h3.9965l-2.402-4.0482c1.9361-1.2631 3.1475-3.0336 3.1475-4.9697 0-3.8412-4.6591-6.9472-10.354-6.9472m1.5841 2.7126c4.3485 0 7.5581 1.4495 7.5581 4.7523 0 1.7705-0.95253 3.0129-2.5056 3.779-0.09318-0.05177-0.17601-0.10354-0.22778-0.1553-0.37273-0.16566-0.99394-0.35202-0.99394-0.35202s3.0854-0.22778 3.0854-3.3028c0-3.075-3.2303-3.1268-3.2303-3.1268h-7.0922v7.4131c-2.6402-0.76616-4.4624-2.3917-4.4624-4.2553 0-2.6298 3.5202-4.7523 7.8687-4.7523m0.1553 4.1207h2.1432s0.98359-0.05177 0.98359 0.97324c0 1.0043-0.98359 1.0043-0.98359 1.0043h-2.1432v-1.9775m-0.03106 4.5659h0.95253c0.18636 0 0.27954 0.05176 0.4452 0.20707 0.1346 0.10354 0.27955 0.30025 0.40379 0.47626-0.56945 0.07248-1.17 0.10354-1.8015 0.10354z" fill="#1976d2" stroke-width="1.0354"/>
</svg>
