<svg width="25.6" height="25.6" version="1.1" viewBox="0 0 24 24" xmlns="http://www.w3.org/2000/svg">
<path d="m2.9995 2.9995v18.001h18.001v-18.001zm5.1196 8.9941h2.7979c.38221 0 .71003.02485.98511.07507s.53421.15851.77454.32593c.24323.16742.4349.38582.57678.65369.14478.26452.2179.59796.2179.99976 0 .55248-.11213 1.0013-.33508 1.3495-.22006.34823-.53549.63872-.94666.86975l2.1588 3.2043h-2.038l-1.7633-2.7429h-.76904v2.7429h-1.6589zm6.5936 0h4.6765v1.4465h-3.0176v1.2909h2.8015v1.4465h-2.8015v1.8475h3.0176v1.4465h-4.6765zm-4.9347 1.3751v2.0142h.51269c.26639 0 .49064-.01381.67017-.04395.17952-.03013.32883-.09976.45044-.20691.11582-.1038.20057-.21669.25268-.34058.05501-.12724.0824-.29626.0824-.5072 0-.18751-.03411-.34946-.10071-.4834-.0666-.13393-.18026-.23976-.34241-.31677-.11293-.05357-.24494-.08517-.39551-.09521-.15057-.01339-.32572-.02014-.52551-.02014z" fill="#f44336"/>
</svg>
