<svg version="1.1" viewBox="0 0 24 24" xmlns="http://www.w3.org/2000/svg"><path d="m12 3.0632a1.7874 1.7874 0 0 1 1.7874 1.7874c0 .66133-.35747 1.2422-.89368 1.5461v1.135h.89368a6.2558 6.2558 0 0 1 6.2558 6.2558h.89368a.89368 .89368 0 0 1 .89368 .89368v2.681a.89368 .89368 0 0 1 -.89368 .89368h-.89368v.89368a1.7874 1.7874 0 0 1 -1.7874 1.7874h-12.512a1.7874 1.7874 0 0 1 -1.7874 -1.7874v-.89368h-.89368a.89368 .89368 0 0 1 -.89368 -.89368v-2.681a.89368 .89368 0 0 1 .89368 -.89368h.89368a6.2558 6.2558 0 0 1 6.2558 -6.2558h.89368v-1.135c-.53621-.30385-.89368-.88475-.89368-1.5461a1.7874 1.7874 0 0 1 1.7874 -1.7874m-4.0216 9.8305a2.2342 2.2342 0 0 0 -2.2342 2.2342 2.2342 2.2342 0 0 0 2.2342 2.2342 2.2342 2.2342 0 0 0 2.2342 -2.2342 2.2342 2.2342 0 0 0 -2.2342 -2.2342m8.0431 0a2.2342 2.2342 0 0 0 -2.2342 2.2342 2.2342 2.2342 0 0 0 2.2342 2.2342 2.2342 2.2342 0 0 0 2.2342 -2.2342 2.2342 2.2342 0 0 0 -2.2342 -2.2342z" style="fill:#ff5722;stroke-width:.89368"/></svg>
