<svg version="1.1" viewBox="0 0 144 144" viewbox="0 0 144 144" xmlns="http://www.w3.org/2000/svg">
<path d="m68.252 26.207a3.5614 3.5614 0 0 1 7.1228 0 3.5614 3.5614 0 0 1 -7.1228 0m-42.486 32.245a3.5614 3.5614 0 0 1 7.1228 0 3.5614 3.5614 0 0 1 -7.1228 0m84.97.16616a3.5614 3.5614 0 0 1 7.1228 0 3.5614 3.5614 0 0 1 -7.1228 0m-74.661 4.8792c1.6386-.72764 2.3788-2.6481 1.6512-4.2902l-1.5802-3.5729h6.2141v28.01h-12.537a43.847 43.847 0 0 1 -1.4197 -16.738zm25.994.68867v-8.2561h14.798c.7643 0 5.3971.88347 5.3971 4.3475 0 2.8762-3.5534 3.9075-6.4754 3.9075zm-20.203 44.452a3.5614 3.5614 0 0 1 7.1228 0 3.5614 3.5614 0 0 1 -7.1228 0m52.769.16615a3.5614 3.5614 0 0 1 7.1228 0 3.5614 3.5614 0 0 1 -7.1228 0m1.1012-8.0762c-1.7543-.37585-3.48.74025-3.8559 2.498l-1.7876 8.342a43.847 43.847 0 0 1 -36.566 -.17532l-1.7864-8.342c-.37585-1.7555-2.1015-2.8739-3.8547-2.4969l-7.3646 1.5813a43.847 43.847 0 0 1 -3.8078 -4.4884h35.834c.40564 0 .67607-.0733.67607-.44231v-12.676c0-.36897-.27043-.44231-.67607-.44231h-10.48v-8.0349h11.335c1.0347 0 5.5323.29564 6.9704 6.0445.45033 1.7681 1.4392 7.5193 2.1153 9.3607.67378 2.0649 3.417 6.19 6.3402 6.19h18.501a43.847 43.847 0 0 1 -4.061 4.7004zm19.898-33.468a43.847 43.847 0 0 1 .0928 7.6121h-4.4987c-.45031 0-.63138.29564-.63138.7368v2.066c0 4.8631-2.7421 5.9208-5.145 6.1901-2.2883.25782-4.8253-.95796-5.1381-2.3582-1.3499-7.5926-3.5992-9.214-7.1514-12.016 4.4082-2.7994 8.9952-6.9291 8.9952-12.457 0-5.9689-4.0919-9.7285-6.881-11.572-3.9132-2.5794-8.2458-3.0962-9.4146-3.0962h-46.526a43.847 43.847 0 0 1 24.531 -13.845l5.4842 5.7535c1.2398 1.2983 3.2933 1.3464 4.5904.10542l6.1362-5.8692a43.847 43.847 0 0 1 30.017 21.379l-4.2008 9.4879c-.72534 1.642.0149 3.5625 1.6524 4.2902zm10.477.15355-.14324-1.4667 4.3268-4.0358c.88005-.82045.55117-2.4717-.57407-2.8911l-5.5312-2.0683-.43314-1.4278 3.4502-4.7921c.70356-.974.0572-2.529-1.1276-2.7238l-5.8325-.94879-.70128-1.3097 2.451-5.3799c.50189-1.0955-.43087-2.4969-1.6363-2.451l-5.9196.20626-.93504-1.1344 1.3602-5.7661c.27502-1.1711-.91326-2.3605-2.0843-2.0855l-5.7649 1.359-1.1367-.93504.20741-5.9196c.0459-1.1986-1.3567-2.1348-2.4499-1.6375l-5.3788 2.4522-1.3097-.70242-.95108-5.8337c-.19251-1.1825-1.7486-1.8288-2.7226-1.1275l-4.7955 3.4502-1.4255-.432-2.0683-5.5323c-.41939-1.1275-2.0718-1.4518-2.8899-.57638l-4.0358 4.3303-1.4667-.14323-3.1168-5.0361c-.63023-1.0198-2.3181-1.0198-2.9461 0l-3.1168 5.0361-1.4679.14323-4.0369-4.3303c-.81816-.87545-2.4705-.55117-2.8899.57638l-2.0683 5.5323-1.4266.432-4.7944-3.4502c-.974-.70357-2.5313-.055-2.7238 1.1275l-.95108 5.8337-1.3097.70242-5.3788-2.4522c-1.0932-.4996-2.4957.43887-2.4499 1.6375l.20626 5.9196-1.1367.93504-5.7649-1.359c-1.1711-.27272-2.3605.91441-2.0855 2.0855l1.3579 5.7661-.93275 1.1344-5.9196-.20626c-1.194-.03438-2.1348 1.3556-1.6375 2.451l2.4522 5.3799-.70242 1.3097-5.8325.94879c-1.1848.19251-1.8265 1.7498-1.1275 2.7238l3.4502 4.7921-.43314 1.4278-5.5323 2.0683c-1.123.41939-1.4518 2.0706-.57409 2.8911l4.328 4.0358-.14324 1.4667-5.035 3.1168c-1.0198.63023-1.0198 2.3181 0 2.9461l5.035 3.1168.14324 1.4667-4.328 4.0369c-.87774.81816-.54888 2.4682.57409 2.8899l5.5323 2.0683.43314 1.4278-3.4502 4.7932c-.70128.97629-.05614 2.5324 1.1287 2.7226l5.8314.9488.70242 1.312-2.4522 5.3776c-.4996 1.0932.44346 2.4992 1.6375 2.451l5.9173-.2074.93504 1.1367-1.3579 5.7672c-.27501 1.1688.91441 2.3559 2.0855 2.0809l5.7649-1.3579 1.1367.93275-.20626 5.9208c-.04584 1.1986 1.3567 2.1359 2.4499 1.6363l5.3788-2.451 1.3097.70241.95108 5.8303c.19251 1.1871 1.7498 1.8288 2.7238 1.1298l4.7921-3.4525 1.4278.43428 2.0683 5.53c.41939 1.123 2.0718 1.4541 2.8899.57409l4.0369-4.328 1.4679.14667 3.1168 5.035c.62794 1.0152 2.3158 1.0176 2.9461 0l3.1168-5.035 1.4667-.14667 4.0358 4.328c.81816.88003 2.4705.54888 2.8899-.57409l2.0683-5.53 1.4278-.43428 4.7932 3.4525c.974.69899 2.5301.0551 2.7226-1.1298l.95108-5.8303 1.3097-.70241 5.3788 2.451c1.0932.49961 2.4934-.43544 2.4499-1.6363l-.20627-5.9208 1.1356-.93275 5.7649 1.3579c1.1711.27501 2.3594-.91212 2.0844-2.0809l-1.3579-5.7672.93275-1.1367 5.9196.2074c1.194.0482 2.1382-1.3579 1.6363-2.451l-2.4511-5.3776.70129-1.312 5.8325-.9488c1.1871-.19021 1.8311-1.7463 1.1275-2.7226l-3.4502-4.7932.43314-1.4278 5.5312-2.0683c1.1253-.42168 1.4541-2.0718.5741-2.8899l-4.3268-4.0369.14322-1.4667 5.035-3.1168c1.0198-.62794 1.021-2.3158.00092-2.9461z" fill="#ff7043" stroke-width="1.1459"/>
</svg>
