<svg version="1.1" viewBox="0 0 24 24" xmlns="http://www.w3.org/2000/svg"><path d="m6.4991 9.8c.73364-2.9336 2.5677-4.4009 5.5014-4.4009 4.4 0 4.9507 3.3004 7.1507 3.8502 1.4673.36776 2.7507-.18294 3.8502-1.6502-.7327 2.9336-2.5668 4.4009-5.5004 4.4009-4.4009 0-4.9507-3.3004-7.1507-3.8502-1.4673-.36776-2.7507.18294-3.8512 1.6502zm-5.5004 6.6009c.73364-2.9336 2.5668-4.4009 5.5004-4.4009 4.4009 0 4.9507 3.3004 7.1516 3.8502 1.4663.36776 2.7497-.18294 3.8502-1.6502-.73364 2.9336-2.5668 4.4009-5.5004 4.4009-4.4009 0-4.9507-3.3004-7.1516-3.8502-1.4663-.36776-2.7497.18294-3.8502 1.6502z" style="fill:#4db6ac"/></svg>
