<svg enable-background="new 0 0 200 200" version="1.1" viewBox="0 0 200 200" xml:space="preserve" xmlns="http://www.w3.org/2000/svg"><style type="text/css">
	.st0{fill:#CB3349;}
	.st1{fill:#F4EDAE;}
	.st2{fill:#E6CCAD;}
	.st3{fill:#656C67;}
	.st4{fill:#E5CAA3;}
	.st5{fill:#C7B39A;}
	.st6{fill:#EBD599;}
	.st7{fill:#2D3136;}
	.st8{fill:#EDF6FA;}
	.st9{opacity:0.8;}
	.st10{opacity:0.75;fill:#EBD599;}
</style><g transform="matrix(.8858 0 0 .8858 11.017 12.484)"><g fill="#cb3349"><path class="st0" d="m47.781 86.572s-31.118 21.903-32.335 30.247l2.335-.48s37.264-24.699 66.803-27.711l.669-3.749z"/><path class="st0" d="m96.629 83.442-24.511 17.385 1.325 1.063c.999-.806 43.539-13.798 43.539-13.798l8.969-5.623c-6.018.749-29.322.973-29.322.973z"/><path class="st0" d="m117.93 104.47c17.405 0 43.495-17.046 43.495-17.046l-8.434-1.605c-.417.417-13.6-.462-13.6-.462l-6.258-1.738-14.951 17.036-1.217 2.956c1.075-.437.965.859.965.859z"/></g><path class="st0" d="m174.73 158.83-5.377 1.514-24.843-.537-15.541-12.085-18.784 4.7-21.726-1.88-12.166 13.294-22.828 6.819-11.398-3.534c-.363-.313-.574-.494-.574-.494l5.116 12.527s11.588 12.424 18.061 13.885c6.472 1.461 18.165-.105 26.935-1.463 8.769-1.357 15.764-4.489 18.582-9.603 2.818-5.117 3.236-6.578 3.236-6.578s8.353 11.797 15.556 13.155c7.203 1.357 28.605-5.952 28.605-5.952s13.051-3.549 15.346-8.038c2.297-4.489 8.353-19.209 8.353-19.209zm-130.27 10.206c-.12-.055-.241-.111-.361-.166-.856-.739-1.556-1.343-2.013-1.736z" fill="#cb3349"/><path class="st1" d="m195.83 70.085c-.054-.671-.128-1.342-.21-2.009-.058-.473-.133-.967-.215-1.424-1.793-1.509-3.831-2.851-5.952-4.071-2.299-1.343-4.704-2.546-7.159-3.663-2.438-1.15-4.942-2.191-7.461-3.207-1.257-.51-2.525-1.005-3.798-1.477-1.269-.495-2.55-.956-3.835-1.424 2.697.447 5.366 1.059 8.015 1.741 1.723.446 3.437.945 5.14 1.477-12.112-31.655-41.07-52.27-72.687-52.27-31.622 0-60.577 20.615-72.686 52.27 1.703-.532 3.417-1.031 5.137-1.477 2.653-.682 5.323-1.294 8.018-1.741-1.289.468-2.567.929-3.84 1.424-1.267.472-2.536.967-3.798 1.477-2.519 1.016-5.016 2.057-7.46 3.207-2.45 1.117-4.857 2.32-7.156 3.663-2.121 1.219-4.157 2.562-5.957 4.071-.075.457-.151.951-.21 1.424-.081.667-.155 1.338-.21 2.009-.118 1.349-.166 2.703-.177 4.061-.027 2.713.156 5.426.5 8.11.37 2.692.864 5.366 1.595 7.951.36 1.295.768 2.572 1.24 3.808.237.617.495 1.225.764 1.816.134.294.274.585.413.864l.172.328c.199.101.408.204.607.3l1.204.575c.671.305 1.6.746 2.368 1.09.043-.037.086-.075.123-.114l-2.235-8.513c.474-.13 4.718-1.225 12.032-2.617-.59-.112-1.186-.241-1.772-.381-1.665-.414-3.309-.919-4.899-1.564-.79-.333-1.568-.697-2.309-1.115-.742-.426-1.472-.908-2.037-1.548 8.036 2.622 24.64 1.434 39.399-.091 13.499-1.391 27.029-2.293 40.63-2.32 13.602.027 27.137.929 40.63 2.32 14.766 1.525 31.37 2.713 39.405.091-.564.64-1.293 1.123-2.035 1.548-.741.418-1.519.782-2.308 1.115-1.592.645-3.234 1.15-4.899 1.564-.247.059-.496.113-.743.166 8.02 1.488 12.689 2.697 13.188 2.831l-2.138 8.11c.43-.194.864-.381 1.29-.574l1.202-.575c.2-.097.403-.199.607-.3l.166-.328c.146-.279.286-.57.419-.864.27-.591.528-1.199.764-1.816.473-1.236.882-2.513 1.241-3.808.731-2.585 1.225-5.259 1.595-7.951.345-2.685.526-5.398.501-8.11-.011-1.356-.06-2.71-.179-4.059z" fill="#f4edae"/><path class="st2" d="m116.79 182.66c-1.064.16-2.128.295-3.186.375-.682.033-1.404.102-2.059.102l-.242.005c.822-1.837 1.446-3.26 1.919-4.339.963 1.08 2.188 2.417 3.568 3.857z" fill="#e6ccad"/><path class="st2" d="m119.1 185.02c3.304 3.272 7.398 5.146 11.904 5.479-7.569 3.074-14.702 4.26-20.197 4.63-5.478.367-11.032-.279-16.474-1.771.456-.082.79-.14 1.193-.189.447-.054 10.206-1.327 14.605-7.868l.413.009 1.08-.009c.731 0 1.395-.06 2.094-.087 1.66-.144 3.283-.381 4.878-.703.167.171.333.338.504.509z" fill="#e6ccad"/><g fill="#656c67"><path class="st3" d="m128.46 87.071c-.317.413-.671.869-1.048 1.343-1.933 2.444-4.614 5.57-7.794 8.627-3.696-.114-7.494-.177-11.404-.177-6.46 0-12.655.171-18.537.457 8.311-3.449 18.296-6.818 29.109-8.842 3.158-.598 6.391-1.076 9.674-1.408z"/><path class="st3" d="m79.821 90.792c-2.966 2.084-6.317 4.744-9.566 7.971-8.321.833-15.578 1.842-21.567 2.81 9.207-4.232 19.713-8.127 31.133-10.781z"/><path class="st3" d="m181.48 107.97-3.384 23.679-16.212 11.355-42.283-4.807-6.365-20.961c-.151-.51-.581-.885-1.108-.971-1.567-.253-2.953-.382-4.108-.382-1.16 0-2.541.129-4.115.382-.522.086-.95.461-1.106.971l-6.209 20.45-42.047 9.357-16.662-11.672-3.283-26.572c.715-.404 1.441-.806 2.176-1.209 1.031-.222 2.191-.457 3.475-.704l3.094 25.073c.048.392.264.741.586.967l11.462 8.032c.236.16.516.246.795.246.101 0 .199-.01.306-.033l34.57-7.692c.119-.027.237-.069.344-.124.322-.171.575-.466.682-.827l6.225-20.498c1.67-.43 5.947-1.429 9.706-1.429 3.749 0 8.03.999 9.701 1.429l6.225 20.498c.161.532.624.912 1.176.977l34.57 3.927c.335.037.677-.05.952-.242l11.469-8.025c.31-.22.52-.566.573-.946l3.062-21.421c2.301.444 4.224.846 5.733 1.172z"/><path class="st3" d="m185.75 93.119-2.976 11.29c-6.086-1.342-19.456-3.975-37.654-5.747 5.946-2.535 12-5.715 17.531-9.69 10.829 1.53 18.78 3.169 23.099 4.147z"/></g><g fill="#e5caa3"><path class="st4" d="m63.841 128.44c2.357-1.274 5.021-1.085 9.19-1.079.447.011.908.005 1.39-.005.41-.005.822-.011 1.258-.022 4.296-.042 7.869.366 7.806-6.381-.065-6.746-3.062-12.198-7.354-12.155-4.297.037-8.454 5.564-8.197 12.306.07 1.756.328 3.023.742 3.937-3.745.938-4.777 3.254-4.835 3.399zm51.657-27.749c-1.665 1.349-3.421 2.61-5.249 3.712l-6.097 3.68c-3.824.466-7.143 1.412-7.331 1.467-.112.031-.219.079-.317.14-.296.171-.521.455-.629.794l-6.209 20.46-33.185 7.38-10.452-7.321-3.041-24.634c5.936-1.09 13.874-2.352 23.41-3.42-1.022 1.225-2.014 2.508-2.955 3.855l-5.677 8.149 8.266-5.511c.123-.086 5.387-3.549 13.998-7.761 8.582-.644 18.053-1.059 28.188-1.059 2.471-.001 4.895.027 7.28.069z"/><path class="st4" d="m151.84 125.68c-.042-.16-.945-2.873-4.942-2.397.461-1.003.666-2.356.521-4.21-.528-6.731-4.443-12.08-8.735-11.931-4.292.152-7.042 5.731-6.805 12.478.236 6.741 3.84 6.694 8.132 6.543 5.77-.107 8.939-1.88 11.829-.483zm21.18-19.385-2.992 20.944-10.539 7.379-33.141-3.766-6.183-20.363c-.14-.451-.494-.799-.945-.934-.205-.06-4.308-1.23-8.659-1.607l.795-.053c.687-.049 12.118-1.451 25.767-6.157 15.115 1.161 27.458 3.02 35.897 4.557z"/></g><g fill="#c7b39a"><path class="st5" d="m63.841 128.44c2.357-1.274 5.021-1.085 9.19-1.079.447.011.908.005 1.39-.005.41-.005.822-.011 1.258-.022 4.296-.042 7.869.366 7.806-6.381-.065-6.746-3.062-12.198-7.354-12.155-4.297.037-8.454 5.564-8.197 12.306.07 1.756.328 3.023.742 3.937-3.745.938-4.777 3.254-4.835 3.399zm51.657-27.749c-1.665 1.349-3.421 2.61-5.249 3.712l-6.097 3.68c-3.824.466-7.143 1.412-7.331 1.467-.112.031-.219.079-.317.14-.296.171-.521.455-.629.794l-6.209 20.46-33.185 7.38-10.452-7.321-3.041-24.634c5.936-1.09 13.874-2.352 23.41-3.42-1.022 1.225-2.014 2.508-2.955 3.855l-5.677 8.149 8.266-5.511c.123-.086 5.387-3.549 13.998-7.761 8.582-.644 18.053-1.059 28.188-1.059 2.471-.001 4.895.027 7.28.069z"/><path class="st5" d="m151.84 125.68c-.042-.16-.945-2.873-4.942-2.397.461-1.003.666-2.356.521-4.21-.528-6.731-4.443-12.08-8.735-11.931-4.292.152-7.042 5.731-6.805 12.478.236 6.741 3.84 6.694 8.132 6.543 5.77-.107 8.939-1.88 11.829-.483zm21.18-19.385-2.992 20.944-10.539 7.379-33.141-3.766-6.183-20.363c-.14-.451-.494-.799-.945-.934-.205-.06-4.308-1.23-8.659-1.607l.795-.053c.687-.049 12.118-1.451 25.767-6.157 15.115 1.161 27.458 3.02 35.897 4.557z"/></g><g fill="#e6ccad"><path class="st2" d="m187.48 115.5c.508.419.911 1.504.456 6.558-.559 6.188-3.16 17.049-4.771 18.8-1.778.344-5.505-.064-7.778-.595.393-1.559.505-2.306.822-3.9l3.975-2.781c.317-.22.526-.566.58-.941l2.778-19.466c1.686.912 3.421 1.899 3.938 2.325z"/><path class="st2" d="m40.937 140.91c.199.704.408 1.407.624 2.1-2.139.628-6.495 1.23-8.465.886-1.633-1.645-4.679-12.966-5.345-18.978-.543-4.871-.162-5.924.333-6.334.575-.483 2.728-1.708 4.593-2.707l2.519 20.449c.048.393.257.741.586.967z"/><path class="st2" d="m121.35 141.19-.151 1.305s-4.581 4.248-11.956 5.199c-7.375.95-13.171-3.582-13.171-3.582.242.788.586 2.567 2.256 4.086-1.965-.235-4.087-.393-6.313-.393-.804 0-1.616.023-2.401.061-4.539.237-10.924 7.1-15.414 14.014-2.203.697-9.089 2.883-17.06 5.237-7.44-10.309-11.098-20.842-11.469-21.932l.005-.006c-.15-.419-.301-.839-.441-1.268l1.913 1.338v.005l4.726 3.309 1.58 1.101c.236.167.515.253.794.253.102 0 .204-.011.305-.031l43.435-9.67c.487-.107.881-.473 1.025-.95l6.194-20.39c1.069-.145 2.008-.22 2.814-.22.801 0 1.746.075 2.815.22l6.374 20.997c.162.532.624.919 1.171.977z"/><path class="st2" d="m170.93 140.07 1.402-.984c-.232.973-.484 1.94-.747 2.896-1.949 6.248-4.25 11.774-6.805 16.656-.565.039-1.161.061-1.8.061-1.972 0-3.986-.167-6.215-.371-3.868-.355-10.007-1.058-11.946-1.283-1.67-1.332-7.385-5.873-12.14-9.615-.187-.151-.348-.291-.505-.42-.837-.708-1.789-1.513-3.717-1.513-1.751 0-4.308.638-10.489 2.508 3.212-2.401 3.233-5.5 3.233-5.5l.151-1.305 40.748 4.629c.332.038.676-.048.955-.241l4.094-2.868z"/></g><path class="st6" d="m140.94 54.337c.124 3.625.033 10.194-1.655 16.345-.068.237-.058.479 0 .704-2.148-.226-4.297-.419-6.446-.591 2.412-5.054 2.938-10.436 3.052-12.332 1.852-1.317 3.696-2.896 5.049-4.126z" fill="#ebd599"/><path class="st6" d="m79.456 58.462c.112 1.896.638 7.267 3.046 12.317-2.149.171-4.297.37-6.441.596.058-.221.065-.457 0-.694-1.686-6.139-1.772-12.714-1.654-16.345 1.353 1.231 3.19 2.81 5.049 4.126z" fill="#ebd599"/><path class="st7" d="m151.84 125.68c-2.89-1.396-6.059.377-11.828.484-4.292.151-7.896.198-8.132-6.543-.237-6.747 2.513-12.326 6.805-12.478 4.292-.15 8.207 5.2 8.735 11.931.145 1.854-.06 3.207-.521 4.21 3.996-.477 4.899 2.235 4.941 2.396zm-13.488-9.878c1.209-.027 2.175-1.026 2.154-2.235-.021-1.214-1.02-2.181-2.235-2.153-1.213.02-2.175 1.02-2.152 2.234.021 1.208 1.02 2.176 2.233 2.154z" fill="#2d3136"/><circle class="st8" transform="matrix(.9998 -.0183 .0183 .9998 -2.0526 2.5461)" cx="138.31" cy="113.6" r="2.194" fill="#edf6fa"/><path class="st7" d="m83.484 120.95c.063 6.747-3.509 6.339-7.806 6.381-.435.011-.848.016-1.258.022-.482.011-.944.016-1.39.005-4.168-.005-6.833-.194-9.19 1.079.058-.145 1.09-2.461 4.835-3.4-.414-.914-.673-2.181-.742-3.937-.257-6.741 3.9-12.269 8.197-12.306 4.292-.042 7.289 5.411 7.354 12.156zm-6.634-3.529c1.209-.031 2.165-1.043 2.133-2.251-.033-1.214-1.041-2.17-2.25-2.137-1.215.031-2.172 1.041-2.139 2.25.032 1.215 1.042 2.171 2.256 2.138z" fill="#2d3136"/><circle class="st8" transform="matrix(.9997 -.0257 .0257 .9997 -2.9357 2.0113)" cx="76.79" cy="115.23" r="2.195" fill="#edf6fa"/><g class="st9" fill="#ebd599" opacity=".8"><path class="st6" d="m50.691 75.155s.667-8.692 2.03-12.023c.702-1.717 4.996-2.81 8.276-3.591 3.278-.78 8.508-2.342 9.524 2.264 1.015 4.606 2.653 7.963 3.746 9.446l-1.404-18.97-22.562 5.464-1.484 16.786.703 1.327 1.171-.703"/><path class="st6" d="m164.86 75.155s-.666-8.692-2.029-12.023c-.703-1.717-4.997-2.81-8.275-3.591-3.28-.78-8.51-2.342-9.526 2.264-1.013 4.606-2.654 7.963-3.748 9.446l1.407-18.97 22.562 5.464 1.483 16.786-.703 1.327-1.171-.703"/></g><g fill="#ebd599"><path class="st10" d="m132.96 18.378s-.598 45.49-11.224 45.49h-27.627c-10.626 0-11.484-45.47-11.484-45.47l-5.22 15.438.085 21.183 3.707 2.947 1.685 9.096 2.357 5.307 45.482.084 2.105-3.791 1.769-6.4.254-4.043 5.023-14.341z" opacity=".75"/><path class="st10" d="m166.43 60.794s2.187 15.692 7.974 18.522c5.788 2.829 0 0 0 0l-8.103-2.444z" opacity=".75"/><path class="st10" d="m48.908 60.794s-2.187 15.692-7.975 18.522c-5.788 2.829 0 0 0 0l8.104-2.444z" opacity=".75"/></g><path class="st7" d="m167.99 76.8c2.755.902 5.526 1.858 8.036 3.325-1.343-.532-2.729-.913-4.126-1.257-1.391-.355-2.793-.655-4.201-.924-2.82-.531-5.65-.982-8.498-1.327-2.841-.37-5.687-.682-8.546-.924-2.858-.241-5.709-.483-8.573-.65-11.446-.704-22.924-.88-34.41-.892-11.483.006-22.962.221-34.409.897-2.862.166-5.715.409-8.572.651-2.857.241-5.71.548-8.546.923-2.847.345-5.678.796-8.498 1.327-1.407.264-2.81.57-4.206.919-1.391.344-2.783.725-4.126 1.257 2.509-1.466 5.28-2.427 8.041-3.331.232-.075.467-.139.703-.214-.015-.059-.032-.113-.043-.177-.048-.317-1.069-7.859.709-18.645.086-.516.456-.935.962-1.075l2.917-.831c.634-22.625 9.952-33.266 10.243-33.594-8.326 13.397-8.25 29.286-8.106 32.986l18.128-5.152c.016-.005.026-.005.042-.01.076-.016.151-.027.226-.032.021 0 .049-.006.075-.006.092-.005.195.006.297.027.015 0 .031.011.053.016.075.016.145.042.224.075.033.016.054.033.086.049.058.033.119.07.177.112.016.011.034.016.049.033.011.011.021.022.032.032.016.016.037.027.054.044.012.016.494.493 1.262 1.209-.182-5.973.102-23.108 8.262-37.31-.172.498-6.646 19.428-4.415 40.645.724.58 1.486 1.149 2.229 1.649.359.247.58.655.585 1.09.006.07.161 6.833 3.148 12.586.042.086.074.177.102.268 7.429-.505 14.878-.709 22.312-.714 7.436.005 14.88.22 22.307.731.027-.097.06-.193.109-.285 2.986-5.753 3.142-12.516 3.142-12.586.01-.436.231-.843.591-1.09.741-.5 1.493-1.069 2.224-1.649 2.234-21.217-4.24-40.147-4.411-40.645 8.153 14.201 8.444 31.336 8.262 37.31.762-.715 1.246-1.192 1.261-1.209.016-.016.039-.027.053-.044.012-.01.018-.021.033-.032.016-.016.033-.022.049-.033.06-.042.119-.079.177-.118.028-.01.054-.027.081-.043.081-.033.155-.059.236-.08.016 0 .033-.011.049-.011.096-.021.2-.032.296-.027.027 0 .049.006.07.006.075.005.156.016.231.032.012.006.028.006.042.01l18.129 5.152c.146-3.7.221-19.59-8.104-32.986.289.328 9.609 10.969 10.237 33.594l2.922.831c.499.14.875.559.962 1.075 1.777 10.786.752 18.328.708 18.645-.01.065-.026.124-.042.182.239.07.47.139.707.215zm-3.297-.968c.14-1.207.789-7.809-.591-16.801l-20.52-5.833c.184 3.475.265 11.012-1.707 18.199-.026.086-.058.172-.101.258.203.021.408.037.606.064 5.769.661 11.511 1.584 17.189 2.83 1.712.398 3.426.823 5.124 1.283zm-25.409-5.151c1.688-6.15 1.779-12.72 1.655-16.345-1.353 1.23-3.197 2.809-5.049 4.125-.114 1.896-.64 7.278-3.052 12.332 2.149.173 4.298.366 6.446.591-.058-.224-.068-.465 0-.703zm-56.78.098c-2.408-5.05-2.934-10.422-3.046-12.317-1.858-1.316-3.696-2.895-5.049-4.125-.119 3.631-.032 10.206 1.654 16.345.065.237.058.473 0 .694 2.145-.227 4.292-.425 6.441-.597zm-8.933.864c-.039-.075-.07-.161-.098-.247-1.975-7.187-1.889-14.723-1.712-18.199l-20.514 5.833c-1.38 8.982-.736 15.583-.597 16.797 1.703-.462 3.411-.887 5.131-1.284 2.835-.628 5.693-1.154 8.556-1.638 2.869-.478 5.747-.843 8.626-1.192.205-.027.404-.042.608-.07z" fill="#2d3136"/><g id="XMLID_1_"><path class="st7" d="m129.29 18.973v17.025h-12.068v-4.974h-2.72v22.981h4.109v12.85h-21.109v-12.85h4.092v-22.98h-2.711v4.974h-12.06v-17.026zm-3.626 13.408v-9.789h-35.224v9.789h4.816v-4.974h9.964v30.225h-4.1v5.606h13.865v-5.606h-4.1v-30.225h9.964v4.974z" fill="#2d3136"/><polygon class="st0" points="101.12 57.632 105.22 57.632 105.22 27.407 95.259 27.407 95.259 32.381 90.443 32.381 90.443 22.591 110.89 22.591 120.41 22.591 125.67 22.591 125.67 32.381 120.85 32.381 120.85 27.407 110.89 27.407 110.89 57.632 114.99 57.632 114.99 63.238 101.12 63.238" fill="#cb3349"/></g><path class="st3" d="m30.694 93.119c1.759-.399 4.136-.907 7.051-1.47-1.791 1.221-3.909 2.754-6.222 4.597z" fill="#656c67"/><g fill="#c7b39a"><path class="st5" d="m95.111 139.78s.492 3.165-3.938 4.519c-4.428 1.355-32.482 9.716-35.682 9.263-3.199-.451-11.319-5.874-11.319-5.874l-1.969-7.004 12.016 7.492z"/><path class="st5" d="m120.24 139.17s-.354 3.182 4.131 4.345c4.484 1.161 32.875 8.295 36.05 7.704 3.176-.591 11.053-6.361 11.053-6.361l1.663-7.084-11.045 6.588z"/><path class="st5" d="m28.412 133.96s3.887 7.775 10.166 5.083l4.485 1.645-.448 3.29-9.419 1.195-2.541-1.494z"/><path class="st5" d="m187.55 131.82s-6.353 8.115-12.632 5.424l-2.019 1.302.448 3.289 9.419 1.196 2.54-1.495z"/><path class="st5" d="m89.279 192.9s23.03 11.611 49.106-4.188l-8.374-.571s-18.272 7.232-32.738 3.235z"/></g><path class="st7" d="m112.63 171.51 1.594 1.899c.036.046 3.577 4.26 7.906 8.552 2.879 2.853 6.357 4.297 10.343 4.297 1.361 0 2.791-.175 4.235-.523 1.34-.326 2.796-.673 4.287-1.03 5.384-1.287 11.482-2.749 14.438-3.577.585-.166 1.238-.315 1.925-.472 3.935-.909 9.329-2.163 12.187-7.889 2.149-4.297 5.047-9.874 7.197-13.961-1.863.859-3.816 1.79-5.203 2.52-2.138 1.123-4.938 1.667-8.558 1.667-2.152 0-4.266-.181-6.605-.389-4.675-.43-12.586-1.361-12.667-1.372l-.606-.067-.478-.383c-.071-.052-7.003-5.575-12.606-9.981-.227-.186-.434-.358-.621-.513-.59-.503-.59-.503-.942-.503-1.797 0-7.02 1.62-18.462 5.167l-.703.223-.689-.26c-.078-.026-7.585-2.81-16.581-2.81-.736 0-1.47.019-2.185.056-.901.046-5.958 2.448-12.425 12.68l-.419.657-.741.238c-.107.037-11.238 3.63-23.042 7.005l-.766.218-.725-.337c-.077-.031-4.696-2.174-9.091-4.194 2.397 3.541 5.462 7.958 8.159 11.422 4.711 6.067 10.649 11.674 22.034 11.674 1.428 0 2.945-.088 4.503-.265 11.581-1.309 14.563-1.837 16.168-2.117.543-.092.973-.171 1.522-.238.088-.011 9.571-1.237 12.232-7.206 2.744-6.134 3.298-7.595 3.319-7.651l.968-2.583s.12-.669.317-.877c0 .005 0 .005.005.005l.019.016c.305.219.757.902.757.902zm-72.127-115.8c-2.516 1.014-5.016 2.06-7.46 3.209-2.449 1.119-4.856 2.32-7.155 3.66-2.121 1.222-4.157 2.563-5.954 4.076-.077.455-.149.952-.211 1.423-.078.667-.156 1.336-.208 2.009-.119 1.346-.166 2.703-.18 4.059-.026 2.713.16 5.426.502 8.112.372 2.692.864 5.369 1.594 7.952.363 1.295.767 2.573 1.243 3.804.233.623.492 1.228.762 1.818.134.294.274.585.413.864l.172.326c.201.104.409.207.605.3l1.206.574c.673.311 1.6.751 2.366 1.093.046-.037.088-.078.124-.114l-2.231-8.511c.471-.129 4.717-1.227 12.032-2.619-.59-.109-1.191-.238-1.775-.379-1.662-.413-3.309-.921-4.898-1.563-.787-.336-1.569-.699-2.309-1.119-.741-.425-1.471-.905-2.035-1.547 8.035 2.624 24.637 1.433 39.398-.088 13.501-1.393 27.028-2.293 40.628-2.325 13.6.031 27.138.931 40.63 2.325 14.77 1.522 31.374 2.713 39.406.088-.564.642-1.293 1.122-2.034 1.547-.739.42-1.522.782-2.309 1.119-1.595.642-3.236 1.149-4.903 1.563-.244.056-.492.114-.741.166 8.02 1.486 12.689 2.697 13.186 2.832l-2.138 8.107c.43-.192.864-.377 1.288-.574l1.207-.574c.196-.094.404-.196.606-.3l.166-.326c.144-.279.284-.57.419-.864.27-.591.528-1.196.767-1.818.471-1.231.879-2.51 1.236-3.804.731-2.583 1.228-5.26 1.595-7.952.346-2.686.528-5.4.502-8.112-.01-1.356-.062-2.713-.176-4.059-.057-.673-.13-1.341-.213-2.009-.057-.471-.135-.968-.213-1.423-1.797-1.513-3.831-2.853-5.954-4.076-2.299-1.34-4.704-2.541-7.159-3.66-2.438-1.149-4.943-2.195-7.46-3.209-1.259-.508-2.528-1.005-3.801-1.476-1.267-.491-2.552-.956-3.835-1.423 2.696.445 5.369 1.06 8.013 1.739 1.724.446 3.444.948 5.141 1.481-12.11-31.658-41.07-52.272-72.685-52.272-31.622 0-60.576 20.614-72.684 52.272 1.702-.533 3.416-1.035 5.135-1.481 2.651-.678 5.322-1.294 8.02-1.739-1.29.466-2.568.931-3.842 1.423-1.268.47-2.535.967-3.799 1.475zm159.43 18.316c.146 2.914.068 5.833-.258 8.733-.305 2.894-.854 5.762-1.619 8.605-.4 1.414-.86 2.811-1.404 4.198-.275.693-.569 1.383-.89 2.071-.161.341-.331.678-.523 1.025l-.284.512c-.104.186-.187.326-.348.574l-.294.457-.461.237c-.492.254-.895.445-1.342.653l-1.298.585c-.871.372-1.745.724-2.62 1.065-.611.239-1.15.457-1.662.674l-1.444 5.487c-.036-.009-.471-.12-1.283-.315l-.078.574c1.594.833 4.726 2.522 5.793 3.403 2.148 1.775 2.299 4.587 1.823 9.841-.244 2.697-1.139 7.946-2.381 12.767-2.144 8.298-3.283 9.273-4.753 9.649-.746.192-1.894.383-3.008.383-2.266 0-5.353.063-7.429-.439-.533 1.888-2.055 6.812-5.068 12.962.151-.073.3-.135.435-.207 3.717-1.952 10.861-5.064 11.162-5.199l5.643-2.452-2.89 5.435c-.067.118-6.264 11.773-10.059 19.383-3.769 7.538-10.835 9.179-15.065 10.151-.637.151-1.241.291-1.733.425-3.035.854-9.18 2.319-14.599 3.623-.064.016-.13.033-.197.042-3.335 2.061-6.974 3.899-10.955 5.411-14.568 5.518-29.923 5.208-43.844.092-2.261.291-5.234.647-9.193 1.097-1.72.192-3.392.291-4.985.291-13.264 0-20.294-6.736-25.425-13.331-5.493-7.062-12.212-17.546-12.497-17.985l-3.896-6.077 6.585 2.961c3.152 1.419 12.524 5.757 15.205 7 .217-.061.43-.124.642-.186-4.457-6.357-8.112-13.605-10.695-21.634-2.195.662-5.576 1.175-8.206 1.175-.961 0-1.822-.072-2.484-.228-1.471-.336-3.148-1.754-5.431-9.795-1.325-4.668-2.314-9.764-2.603-12.387-.57-5.121-.466-7.864 1.662-9.636 1.283-1.071 5.611-3.344 6.507-3.809l-.192-1.58c-13.75 8.08-21.991 15.22-22.157 15.366l-9.833 8.629 7.005-11.047c5.544-8.755 11.948-15.832 17.84-21.284-.244-.098-.471-.196-.71-.294l-1.299-.585c-.445-.208-.849-.399-1.34-.653l-.461-.237-.295-.457c-.166-.249-.238-.388-.347-.574l-.29-.512c-.181-.347-.358-.684-.518-1.025-.327-.689-.621-1.378-.89-2.071-.544-1.387-1.005-2.784-1.404-4.198-.771-2.843-1.315-5.71-1.62-8.605-.321-2.9-.404-5.819-.259-8.733.078-1.455.218-2.909.419-4.354.104-.725.213-1.45.358-2.17.15-.734.296-1.418.518-2.221l.155-.564.404-.317c2.294-1.802 4.768-3.163 7.284-4.369 2.071-.973 4.183-1.833 6.311-2.616 5.943-16.493 16.162-31.118 29.591-41.311 13.885-10.535 30.212-16.105 47.219-16.105s33.334 5.57 47.218 16.106c13.43 10.193 23.649 24.819 29.588 41.307 2.133.787 4.24 1.641 6.316 2.62 2.515 1.206 4.99 2.567 7.283 4.369l.404.317.156.564c.227.803.372 1.487.517 2.221.146.72.26 1.445.357 2.17.203 1.443.348 2.897.419 4.352zm-11.995 48.031c.456-5.052.058-6.139-.455-6.554-.513-.43-2.247-1.412-3.935-2.329l-2.779 19.464c-.052.378-.265.721-.58.942l-3.977 2.781c-.315 1.593-.429 2.345-.817 3.903 2.273.528 5.999.938 7.775.595 1.612-1.748 4.214-12.61 4.768-18.802zm-5.161-17.648 2.977-11.29c-4.318-.978-12.27-2.615-23.1-4.148-5.53 3.976-11.582 7.155-17.53 9.691 18.199 1.771 31.57 4.406 37.653 5.747zm-4.68 27.237 3.385-23.676c-1.506-.326-3.431-.729-5.731-1.169l-3.059 21.422c-.057.378-.265.725-.575.943l-11.472 8.023c-.27.192-.616.28-.947.243l-34.572-3.929c-.554-.063-1.015-.446-1.176-.973l-6.227-20.5c-1.668-.431-5.949-1.43-9.696-1.43-3.764 0-8.041.999-9.708 1.43l-6.228 20.5c-.109.356-.358.653-.682.822-.104.057-.223.098-.343.125l-34.572 7.692c-.109.022-.202.033-.306.033-.279 0-.559-.083-.792-.25l-11.467-8.029c-.321-.223-.534-.575-.585-.968l-3.091-25.072c-1.284.249-2.443.487-3.479.703-.734.405-1.46.809-2.174 1.213l3.281 26.568 16.666 11.675 42.047-9.354 6.207-20.449c.156-.514.585-.892 1.108-.975 1.574-.253 2.95-.382 4.116-.382 1.153 0 2.536.129 4.105.382.528.083.957.461 1.108.975l6.366 20.956 42.282 4.808zm-8.07-4.411 2.992-20.948c-8.439-1.536-20.78-3.394-35.897-4.554-13.647 4.707-25.077 6.108-25.766 6.155l-.797.057c4.353.374 8.454 1.544 8.66 1.605.452.135.804.481.944.933l6.186 20.366 33.138 3.764zm2.303 11.845-1.404.983-3.779 2.651-4.095 2.868c-.279.192-.621.28-.954.243l-40.746-4.633-2.966-.337c-.549-.063-1.01-.446-1.171-.977l-6.377-20.998c-1.066-.145-2.014-.219-2.81-.219-.809 0-1.751.073-2.817.219l-6.192 20.392c-.145.476-.538.839-1.025.946l-43.435 9.672c-.103.02-.206.03-.305.03-.279 0-.559-.083-.798-.253l-1.578-1.098-4.726-3.307v-.011l-1.91-1.335c.135.43.289.85.441 1.268l-.006.006c.368 1.092 4.028 11.622 11.467 21.929 7.967-2.35 14.858-4.535 17.057-5.234 4.488-6.917 10.877-13.777 15.418-14.014.781-.037 1.595-.061 2.402-.061 2.221 0 4.344.16 6.31.393-1.671-1.517-2.013-3.298-2.256-4.085 0 0 5.793 4.53 13.17 3.584 7.378-.953 11.959-5.204 11.959-5.204s-.021 3.102-3.236 5.503c6.182-1.869 8.739-2.511 10.489-2.511 1.931 0 2.883.808 3.717 1.519.161.129.322.268.507.419 4.753 3.742 10.468 8.283 12.141 9.614 1.936.227 8.075.926 11.943 1.283 2.23.201 4.245.372 6.217.372.637 0 1.233-.026 1.797-.063 2.558-4.88 4.857-10.411 6.808-16.653.261-.96.516-1.928.743-2.901zm-15.034-51.593c-.01-.006-.02-.012-.031-.012-3.272-.243-6.543-.466-9.826-.651-4.555-.26-9.112-.477-13.667-.668-.265.394-.802 1.17-1.574 2.225-2.479 3.355-7.398 9.51-13.704 14.729 8.926-1.6 24.409-5.56 37.803-14.905.336-.238.668-.486.999-.718zm-29.876.926c.377-.471.729-.926 1.044-1.34-3.281.331-6.512.808-9.67 1.408-10.814 2.024-20.801 5.389-29.11 8.837 5.887-.285 12.078-.455 18.54-.455 3.908 0 7.708.067 11.404.176 3.179-3.056 5.861-6.182 7.792-8.626zm3.587 102.08c-4.503-.332-8.598-2.205-11.903-5.477-.171-.175-.336-.343-.502-.512-1.598.321-3.219.559-4.881.704-.698.026-1.361.087-2.091.087l-1.083.011-.413-.011c-4.396 6.539-14.159 7.813-14.605 7.87-.403.046-.734.103-1.191.186 5.442 1.491 10.996 2.138 16.474 1.77 5.492-.367 12.627-1.558 20.195-4.628zm-17.4-7.461c1.056-.083 2.117-.218 3.184-.378-1.383-1.438-2.604-2.775-3.568-3.857-.471 1.082-1.096 2.505-1.92 4.339h.243c.658.001 1.378-.071 2.061-.104zm-3.354-78.632c1.827-1.103 3.582-2.366 5.249-3.712-2.387-.041-4.809-.072-7.278-.072-10.137 0-19.606.415-28.189 1.061-8.61 4.209-13.875 7.672-13.998 7.76l-8.268 5.514 5.679-8.149c.937-1.353 1.931-2.636 2.956-3.857-9.536 1.066-17.477 2.329-23.41 3.422l3.038 24.632 10.453 7.321 33.184-7.378 6.212-20.464c.104-.337.331-.621.627-.793.098-.063.202-.109.315-.14.192-.052 3.51-.999 7.336-1.465zm3.816-18.788c-2.31-.036-4.623-.057-6.933-.062h-.005c-3.39.005-6.787.041-10.189.109l-6.269 2.971c-.005.005-.041.021-.088.048-.942.46-9.174 4.613-16.919 12.021 6.943-3.65 17.146-8.418 29.153-12.115 3.597-1.102 7.366-2.118 11.25-2.972zm-43.814 13.144c3.251-3.225 6.605-5.886 9.567-7.967-11.415 2.651-21.923 6.543-31.128 10.778 5.989-.968 13.242-1.977 21.561-2.811zm2.159-9.949c3.825-1.072 7.771-2.009 11.813-2.796-5.798.212-11.6.481-17.393.808-3.366.186-6.715.414-10.065.667-1.678.129-3.345.263-5.007.445-.476.046-.942.098-1.418.16-4.369 2.614-21.127 13.134-32.631 26.889 11.179-7.769 30.654-19.443 54.701-26.173zm-30.85 54.197c-.218-.693-.424-1.398-.621-2.102l-5.162-3.612c-.327-.228-.534-.575-.586-.969l-2.516-20.449c-1.864.999-4.017 2.225-4.592 2.707-.497.409-.875 1.46-.336 6.332.668 6.01 3.712 17.333 5.348 18.979 1.968.347 6.327-.258 8.465-.886zm-3.815-51.36c-2.915.564-5.292 1.071-7.051 1.47l.829 3.127c2.313-1.844 4.431-3.376 6.222-4.597z" fill="#2d3136"/></g></svg>
