<svg version="1.1" viewBox="0 0 50 50" xmlns="http://www.w3.org/2000/svg">
<path d="m9.7274 47.556c-.12552-.22252-.29696-2.1681-.18387-2.0867.034869.02511.17168.26653.30403.53651s.28203.48704.33263.48235c.12253-.01134.07445-1.196-.09961-2.4539-.33174-2.3977-1.1762-4.4345-2.359-5.69-.19999-.21228-.34314-.4007-.3181-.41872.092826-.06684 1.3264.8429 1.8418 1.3583.29322.29321.73469.8251.98106 1.182.32721.47396.46452.61775.50944.53347.07852-.14732-.20997-9.9033-.37558-12.701-.0743-1.2554.06267-1.0228.60936 1.0346 1.0647 4.0069 1.8589 7.922 2.3429 11.55.08505.63751.17256 1.173.19445 1.1899.02189.01693.09258.002.15712-.03311.88801-.48366 1.524-.66719 2.5499-.73584.72688-.04865.94466.06176.34946.17717-1.1486.22269-1.9901 1.0132-2.3431 2.2014-.31529 1.061-.32702 2.707-.02444 3.4341.15205.3654.03701.42585-1.0667.56054-.71653.08743-.97707.09539-1.2024.03674-.35594-.09267-1.1177-.0982-1.1945-.0087-.03128.03644-.2428.06623-.47008.06623-.37997 0-.423-.01734-.53466-.21526zm1.9732-3.2324c.15238-.205.07213-.41113-.20323-.52205-.22523-.09072-.26325-.08858-.43696.0246-.2098.13671-.25209.42986-.07988.55385.18006.12965.60661.09624.72007-.0564zm1.2486.08519c.05565-.02676.15175-.11772.21352-.20213.24148-.33-.35198-.62188-.74445-.36614-.40642.26482.07975.78519.53094.56828zm2.2877 3.0942c-.03283-.03823.11734-.38669.3337-.77432.21636-.38762.41143-.66581.43347-.6182.07041.15208-.20122 1.279-.33076 1.3722-.14887.10718-.35364.1167-.43641.02025zm-7.0355-.41066c-.29069-.34327-.22161-.43379.13899-.18214.17708.12358.32197.26355.32197.31105 0 .16384-.27917.08577-.46096-.12891zm8.6482-.14534c0-.05261.10218-.17929.22707-.2815.2494-.20412.31231-.11306.14317.20726-.09523.18034-.37024.23549-.37024.07424zm8.0659-.82681c-.24386-.02478-.48125-.08816-.52755-.14084-.10955-.12466-.11355-3.0432-.0041-3.0432.04558 0 .13248.14903.19316.33117.12668.38022.22809.42078.31047.12419.09363-.33709.06488-3.4719-.03945-4.297-.44874-3.5499-1.8654-6.1239-4.3424-7.8897-1.0858-.77404-2.6525-1.4367-4.047-1.7116-.76381-.15059-.52182-.22429.59794-.1821 2.364.08907 4.1679.70652 5.8476 2.0015.84517.6516 1.7139 1.5884 2.3197 2.5016.45268.6823.64096.85377.64096.58372 0-.06954.0621-.88175.138-1.8049.67914-8.2598 2.3958-15.1 4.9838-19.86 1.8606-3.4217 5.1084-6.817 7.8858-8.244 1.3965-.71751 2.5383-.98787 4.0197-.95184.93279.02268 1.0091.035941 1.7699.30738.48523.17312 1.0165.43097 1.3632.66165.61149.40684 1.3085 1.0041 1.2342 1.0576-.02508.018055-.34222-.16485-.70471-.4065-2.6572-1.7713-5.0615-1.5207-7.1193.74196-1.1089 1.2193-2.652 3.5298-3.6349 5.4428-2.8276 5.5029-4.5405 11.464-5.2908 18.413-.16287 1.5086-.28153 3.7598-.19518 3.7029.03283-.02165.26606-.52012.51822-1.1078 1.5975-3.7229 3.5787-6.4286 5.7901-7.9078.67193-.44945 1.6117-.90466 1.7146-.83055.02277.01639-.17134.22054-.43135.45365-1.9569 1.7545-3.2486 3.7604-4.2325 6.5723-.93753 2.6795-1.3655 5.5883-1.3682 9.2992-.0013 1.742.1885 4.3854.36624 5.102.12526.50495.08107.54621-.58436.54575-.55053-.000396-2.3062.13859-3.4169.27045-.41376.04913-.81638.03999-1.6081-.03641-.58088-.05607-1.1294-.11869-1.2189-.13914-.1647-.03762-.17954-.0151-.19878.30147-.01132.18614-.09879.20278-.72932.13872zm2.5066-6.7252c.29401-.10947.37454-.22062.37454-.51692 0-.63018-1.3085-.70593-1.5238-.08821-.07381.21177.12982.51068.41989.61632.29746.10833.4131.10656.72935-.01118zm2.3686-.05213c.27744-.22192.31802-.36391.17461-.61104-.40079-.69064-1.7549-.30695-1.4286.40481.12176.26566.29932.35056.73876.35325.22703.0013.38665-.04415.51524-.14702zm3.0113 6.6816c-.02663-.05.0885-.2677.25586-.48381.87894-1.1349 1.2198-1.5448 1.2847-1.5448.03946 0 .05525.03723.0351.08279-.02016.04554-.21019.47922-.42229.96374s-.44564.92416-.51898.97696c-.1689.12161-.57057.12485-.63438.0051zm2.446-.59614c0-.12117.85274-.68343.89571-.5906.01845.03986-.05589.20953-.16523.37701-.16882.25858-.23889.30451-.46464.30451-.16402 0-.26584-.03482-.26584-.09091zm-13.04-.12435c-.17639-.15853-.49289-.65616-.46105-.72492.01763-.03807.24796.10085.51184.30874s.45641.4052.42786.43848c-.07545.08789-.37137.07411-.47864-.02231z" fill="#9bb92f" stroke-width=".078058"/>
</svg>
