<svg width="300" height="300" version="1.1" viewBox="0 0 140.62499 140.62499" xmlns="http://www.w3.org/2000/svg"><title>Artboard</title><desc>Created with Sketch.</desc><g id="Artboard" transform="matrix(.64333 0 0 .64333 -41.85 -7.5065)" style="fill:none"><g id="Vagrant_VerticalLogo_FullColor" transform="translate(57,25)"><g><g style="fill:#1565c0"><polygon points="117.35 191.93 153.52 171.07 210.17 32.355 210.17 14.777 167.98 39.322 167.98 54.149 134.21 126.97 117.35 138.62" style="fill:#1565c0"/><polygon points="100.46 130.17 117.35 121.83 117.35 100.64 92.033 41.579 92.033 24.868 91.86 24.769 66.719 39.322 66.719 54.149" style="fill:#1565c0"/></g><path d="m142.66 24.694v16.884l-25.314 59.058v19.736l-16.884 9.7934-33.744-76.017v-14.851l25.314-14.579-42.198-24.719-25.314 14.777v18.099l56.975 138.37 35.851 20.678v-51.967l16.86-9.7934-.19835-.12397 33.967-75.893v-14.851l42.198-24.521-25.314-14.777-42.174 24.694z" style="fill:#2979ff"/></g></g></g></svg>
