<svg version="1.1" viewBox="0 0 420 419" xmlns="http://www.w3.org/2000/svg">
<ellipse cx="210" cy="209.5" rx="188.15" ry="188.15" fill="#fff" style="paint-order:stroke fill markers"/>
<path d="m191.07 397.1c-35.512-4.0486-66.779-16.485-95.318-37.913-22.723-17.061-44.027-43.274-56.077-68.997l-3.9317-8.3927 25.692-26.371c14.13-14.504 27.522-28.058 29.758-30.119l4.0666-3.7484 12.5 11.364c16.495 14.996 26.818 23.219 41.05 32.697 14.941 9.951 23.867 14.578 35.877 18.597 22.823 7.637 42.099 5.9912 66.082-5.6422 17.83-8.6488 44.399-28.239 66.179-48.797l8.8777-8.3794 29.147 29.137c16.031 16.025 29.147 29.84 29.147 30.7s-1.599 4.9119-3.5534 9.0052c-18.398 38.533-49.461 69.834-87.797 88.466-17.732 8.6182-33.936 13.787-53.563 17.084-10.161 1.7071-38.005 2.4644-48.137 1.3093zm6.3-123.69c-17.457-3.8086-39.276-16.397-63.835-36.829-13.001-10.816-26.615-23.771-26.615-25.327 0-1.2647 16.792-17.101 29.7-28.009 20.328-17.179 36.936-27.484 53.753-33.355 6.2753-2.1906 8.2503-2.4426 19.147-2.4426 10.892 0 12.873.25245 19.136 2.4389 22.614 7.8949 50.68 27.158 79.189 54.35 3.8362 3.6592 6.975 7.0218 6.975 7.4725 0 1.0998-21.726 20.758-32.4 29.316-19.403 15.557-41.794 28.276-56.169 31.907-8.2668 2.088-20.566 2.291-28.881.47684zm37.472-20.429c14.201-7.1844 18.451-9.7468 19.779-11.925 1.5564-2.5524 1.6918-4.934 1.6918-29.774 0-24.91-.13189-27.216-1.7043-29.795-1.3411-2.1993-5.6078-4.7828-20.022-12.124-18.175-9.256-18.368-9.3288-24.812-9.3551-6.4398-.0263-6.6321.0439-22.95 8.3762-10.12 5.1676-17.582 9.5805-19.381 11.462l-2.925 3.0591.004 27.238c.003 25.164.13346 27.452 1.7118 30.04 1.301 2.1335 5.1853 4.6018 16.288 10.35 20.15 10.433 22.925 11.538 29.04 11.571 4.8206.0256 6.4872-.62744 23.28-9.123zm-40.872-12.388c-7.3146-3.8081-13.914-7.5385-14.665-8.2899-1.1812-1.1812-1.2808-4.249-.73579-22.667l.63032-21.301 13.887-7.2014c8.0963-4.1985 14.986-7.2014 16.521-7.2014 2.9525 0 28.617 12.505 31.423 15.311 1.6812 1.6812 1.7887 3.0322 1.7887 22.477v20.689l-3.4598 2.1841c-1.9029 1.2012-8.3766 4.6488-14.386 7.6613-8.0304 4.0255-11.825 5.4487-14.315 5.3695-2.3294-.074-7.5468-2.2723-16.688-7.0314zm-164.47 22.839c-1.4753-3.8663-4.1922-15.727-5.9671-26.05-2.4047-13.986-2.1901-43.337.42439-58.05 2.41-13.562 4.2159-20.627 5.6129-21.959.7717-.73554 7.9766 6.0879 27.938 26.459 14.794 15.098 26.902 27.655 26.906 27.906.004.2506-12.122 12.581-26.948 27.4l-26.956 26.944zm333.59-24.851c-14.17-14.479-25.763-26.679-25.763-27.11 0-1.5738 51.776-53.76 53.1-53.521 1.493.26956 3.3381 6.773 5.9751 21.06 2.3533 12.751 2.3433 48.232-.0172 61.072-2.369 12.886-5.3577 24.1-6.5268 24.49-.55293.18431-12.599-11.512-26.768-25.991zm-298.34-67.678c-26.893-26.902-29.95-30.252-29.354-32.175 1.335-4.3076 8.33-18.529 12.565-25.546 28.808-47.732 75.832-79.809 131.42-89.647 15.231-2.6958 45.201-2.9439 59.361-.49152 41.827 7.244 76.236 24.833 104.91 53.625 15.582 15.647 27.713 32.758 36.971 52.151 6.1827 12.95 8.7319 8.5482-24.429 42.185-15.984 16.213-29.386 29.609-29.782 29.768-.39625.15955-5.6951-4.2445-11.775-9.7868-32.548-29.669-61.86-48.734-85.116-55.361-7.7713-2.2146-9.3266-2.3562-22.05-2.0086-12.468.34063-14.427.62709-21.965 3.2119-23.775 8.1524-49.675 26.108-80.457 55.78-4.7501 4.5788-9.0056 8.325-9.4566 8.325s-14.329-13.513-30.839-30.029z" fill="#4255e5" stroke-width=".9"/>
</svg>
