<svg version="1.1" viewBox="0 0 24 24" xmlns="http://www.w3.org/2000/svg">
<title>wolframLanguage</title>
<desc>Created with Sketch.</desc>
<g transform="scale(.12121)" fill="none">
<g transform="translate(-.07283 -.011855)" fill-rule="evenodd">
<circle id="backgroundCircle" cx="99.197" cy="98.946" r="83.28" fill="#212121"/>
<g id="background" transform="matrix(.93638 0 0 .93638 14.806 14.554)" fill="#e53935">
<path id="Shape" d="m179.12 90c.0115 30.696-15.783 59.236-41.8 75.527-.0106.0107-.0244.0176-.0393.0197l-30.564-38.087 25.32 2.7892s12.159 1.2572 14.929 0c2.534-1.0018 16.205-20.252 16.205-20.252s-39.246-24.809-52.662-38.48c1.5322-23.041-1.7678-53.684-1.7678-53.429-9.8804 9.8608-11.138 11.393-21.018 20.507-4.3018-13.927-6.3251-18.739-10.627-32.666-12.925 10.627-22.786 28.62-29.877 49.638-1.5517 1.7089-3.0446 3.516-4.5178 5.4411-.96248 1.2767-1.9251 2.5732-2.8482 3.9089-1.9054 2.7107-3.7322 5.5589-5.4803 8.5446-1.2375 2.1018-2.4554 4.2626-3.634 6.4626-8.2304 15.459-14.987 33.177-20.841 49.127-.040485-.0613-.073452-.1273-.09819-.1965-16.007-33.012-10.148-72.461 14.761-99.397 24.91-26.936 63.78-35.855 97.941-22.474 34.161 13.381 56.632 46.329 56.619 83.017z" fill="#e53935"/>
</g>
<path id="wolf" d="m101.45 69.178s-1.4163-8.2953-2.3728-11.367c6.4009-6.1801 7.3572-7.1181 13.519-13.041.47825 11.845.23912 18.007-.47824 32.482-3.5498-3.5682-10.668-8.0745-10.668-8.0745zm-27.737 40.778s-6.6399-4.0281-11.624-4.7271c1.4347-3.3291 5.2237-7.5964 6.1801-8.7735-1.9128.69891-15.652 6.8607-17.087 12.084 3.8905.95608 7.6978 2.2232 11.385 3.789-4.9554 5.6401-8.0231 12.689-8.7736 20.159 0 0 21.814-3.3292 38.184-1.1956.28334.16785.60891.25086.93803.23913l8.5344.23912 27.111 45.137.22073.34944c-.0369.0185-.0553.0368-.0736.0368-51.133 18.485-88.085-15.542-95.975-27.442.03311-.10203.05772-.20659.07356-.31268 7.0997-30.018 15.855-65.939 29.999-76.552 7.3572-12.82 9.4908-31.783 22.752-41.734 3.3292 9.9507 8.5529 30.588 12.103 40.538 15.653 15.653 39.361 35.094 55.234 43.15 1.6554.95649 3.7889 7.5963 3.7889 7.5963l-6.4007 8.0562-68.275-6.879c-1.5266-.12875-3.0533-.18391-4.5799-.18391-4.744.0666-9.4746.52176-14.144 1.3611 3.3108-8.2953 10.429-14.935 10.429-14.935zm22.053-8.7736c3.789-.45985 7.8171.95643 12.323 3.5683 4.2672-1.1955 4.7454-1.4346 9.0127-2.6118-5.4628-4.0281-11.385-8.2953-19.442-7.1181-.77107 2.0084-1.4041 4.067-1.8946 6.1616z" fill="#fff"/>
</g>
</g>
</svg>
