<svg width="290" height="290" version="1.1" viewBox="0 0 289.99999 290.00001" xmlns="http://www.w3.org/2000/svg">
<path d="m249.9 217.2c-12.389 2.9424-18.661 5.6525-33.993 15.641-24.004 15.486-50.176 22.688-50.176 22.688s-2.1681 3.2522-8.4401 4.7234c-10.84 2.6327-51.647 4.8782-55.364 4.9556-9.9887.0775-16.106-2.5552-17.809-6.6591-5.1879-12.389 7.4335-17.809 7.4335-17.809s-2.7875-1.7035-4.4136-3.2521c-1.4712-1.4712-3.0198-4.4136-3.4844-3.3296-1.9358 4.7233-2.9424 16.261-8.1303 21.449-7.1237 7.2012-20.597 4.8008-28.572.61946-8.7498-4.6459.61946-15.564.61946-15.564s-4.7233 2.7876-8.5175-2.9424c-3.407-5.2654-6.5817-14.247-5.73-25.32 1.084-12.776 15.177-25.01 15.177-25.01s-2.4778-18.661 5.6525-37.787c7.356-17.422 27.179-31.437 27.179-31.437s-16.648-18.351-10.453-34.999c4.0265-10.84 5.6525-10.763 6.9689-11.228 4.6459-1.7809 9.137-3.7167 12.467-7.356 16.648-17.964 37.864-14.557 37.864-14.557s9.9113-30.431 19.203-24.468c2.865 1.8584 13.163 24.778 13.163 24.778s10.995-6.4268 12.234-4.0265c6.6591 12.931 7.4334 37.632 4.491 52.654-4.9556 24.778-17.345 38.097-22.3 46.459-1.1615 1.9358 13.318 8.0529 22.455 33.373 8.4401 23.152.92917 42.588 2.2455 44.756.2323.38716.30972.54204.30972.54204s9.679.77431 29.114-11.228c10.376-6.4268 22.688-13.628 36.703-13.783 13.551-.23229 14.247 15.719 4.1039 18.119z" fill="#2c8ebb" stroke-width=".77432"/>
</svg>
