<svg width="800" height="800" data-name="Layer 1" version="1.1" viewBox="0 0 800.00003 800" xmlns="http://www.w3.org/2000/svg">
<defs>
<style>.cls-1{fill:#231f20;}.cls-2{fill:#383a35;}.cls-3{fill:url(#linear-gradient);}.cls-4{fill:url(#linear-gradient-2);}</style>
<linearGradient id="linear-gradient" x1="541.95" x2="423.91" y1="120.67" y2="946.97" gradientTransform="translate(978.34 -208.81)" gradientUnits="userSpaceOnUse">
<stop stop-color="#00b3e3" offset="0"/>
<stop stop-color="#00b3e3" style="stop-color:#03a9f4" offset=".13"/>
<stop stop-color="#00b3e3" stop-opacity="0" style="stop-color:#03a9f4;stop-opacity:0" offset="1"/>
</linearGradient>
<linearGradient id="linear-gradient-2" x1="541.95" x2="423.91" y1="120.67" y2="946.97" gradientTransform="translate(-220.73,-118.03)" gradientUnits="userSpaceOnUse">
<stop stop-color="#3b5cad" stop-opacity="0" offset="0"/>
<stop stop-color="#3b5cad" stop-opacity="0" offset=".13"/>
<stop stop-color="#3b5cad" offset="1"/>
</linearGradient>
</defs>
<title>CF_Icon_4-colour</title>
<g transform="matrix(.93657 0 0 .93657 138.41 42.279)">
<g transform="matrix(1.0073 0 0 1.0073 -2.0292 -2.7749)">
<path class="cls-1" d="m362.32 307.75c23.54-19.167 38.102-46.325 37.832-76.4-.49411-57.279-54.612-103.43-120.88-103.43s-120.38 46.147-120.89 103.43c-.26104 30.066 14.292 57.232 37.832 76.4 29.124 23.717 52.99 71.682 54.389 124.06 1.5569 58.127-2.4146 125.4-4.8571 159.62-31.138 4.4283-53.009 14.823-53.009 26.952 0 16.138 38.736 34.746 86.515 34.746 47.779 0 86.515-18.645 86.515-34.746 0-12.12-21.871-22.524-53.009-26.952-2.4426-34.233-6.4047-101.5-4.8571-159.62 1.4264-52.375 25.292-100.34 54.417-124.06z" style="fill:#0288d1;stroke-width:.93227"/>
<path class="cls-2" d="m508.74 645.96a73.556 73.556 0 0 1 14.329 -4.1766 90.747 90.747 0 0 1 16.566 -2.0044s-.27036-1.8645-.63395-4.6614c-.16781-2.7409-1.4637-6.3767-2.7036-9.9846-.63395-1.7713-1.2679-3.5426-1.8645-5.1741-.7365-1.6408-1.6688-3.1418-2.34-4.4376l-2.3214-4.2139a147.11 147.11 0 0 1 -17.098 -3.8782 133.92 133.92 0 0 1 -15.429 -5.3139c-8.7447-3.841-16.967-8.148-21.302-12.959-5.2394-4.5774-6.2089-9.1456-6.0411-13.294a11.374 11.374 0 0 1 2.7968 -5.8453 18.263 18.263 0 0 1 6.2089 -4.8385s-2.1069-1.1653-5.1741-2.9087c-1.5662-.83905-3.2723-1.8645-5.2766-2.8714-2.0044-1.0068-4.3071-2.0696-6.5259-3.1045-4.3444-2.0696-8.6794-4.1393-12.325-5.5097l-5.7801-2.34a113.99 113.99 0 0 1 -13.425 .93228c-4.8105.10254-9.7143 0-14.487-.40088-9.388-.80175-18.934-2.1069-27.185-4.5402a67.729 67.729 0 0 1 -11.085 -3.841 51.387 51.387 0 0 1 -8.2879 -4.3724c-4.3351-3.1697-7.309-6.3767-7.281-9.621l-6.5166-1.0628c-4.074-.63395-12.753-1.7993-18.263-2.5358-.10255.93227-.6992 1.7993-.93227 3.3375l-1.3984 6.7496c-2.8714 13.49 4.941 27.185 18.198 31.026 32.462 9.4532 56.999 25.013 64.084 44.115 14.329 38.633-45.849 76.446-137.35 76.446s-151.65-37.85-137.39-76.483c6.9174-18.645 30.485-33.897 61.782-43.416a28.033 28.033 0 0 0 19.102 -32.629l-1.9205-9.1736c-3.6359.43817-7.8777.93227-12.222 1.501-5.4445.59665-10.619 1.5662-14.59 2.2002-3.9715.63394-6.6471 1.1001-6.6471 1.1001.27036 3.1418-1.9671 6.675-6.2462 9.7143a54.519 54.519 0 0 1 -7.7472 4.5774 93.964 93.964 0 0 1 -10.684 4.0088 106.73 106.73 0 0 1 -13.052 3.0019 128.73 128.73 0 0 1 -14.059 1.8645c-9.7143.76446-19.466.93227-28.322-.13052l-1.6035.63395c-.93227.43816-2.5358.99753-4.1113 1.7713-3.235 1.5382-7.6166 3.6358-12.017 5.7428-4.4003 2.1069-8.2133 4.5122-11.355 6.2462l-3.7291 2.1069c-.82972.56869-1.3052.86701-1.3052.86701 6.1064 2.7968 9.5185 6.6751 10.18 10.749 1.5382 4.3071-.56868 8.782-4.5402 13.658a58.314 58.314 0 0 1 -8.5862 7.0759 77.285 77.285 0 0 1 -12.287 6.5259 133.1 133.1 0 0 1 -32.49 10.05 20.696 20.696 0 0 0 -1.8645 4.3444c-.93227 2.6383-2.1722 6.2089-3.4401 9.8541-.53139 3.6079-1.0348 7.309-1.4357 10.152a16.1 16.1 0 0 0 -.27036 4.7453c12.651.13052 23.913 2.2747 32.322 5.6402 9.7888 3.235 15.699 8.0828 20.268 13.984 3.6079 6.3767 5.0436 13.052 1.8645 20.771-2.2374 7.5141-8.3904 15.895-18.403 23.512l1.5382 1.3331c1.1001.80176 2.7036 1.9391 4.6614 3.3096 3.9715 2.7409 8.9778 6.6098 14.86 10.115 6.2089 3.4028 12.52 6.8429 17.294 9.4812 2.368 1.3332 4.7732 2.1722 6.2742 2.8714 1.501.69921 2.4705 1.0721 2.4705 1.0721 14.124-6.0411 29.283-9.1456 44.451-10.749a130.18 130.18 0 0 1 22.141 -.5314c7.2437.36359 14.627.93227 21.535 2.5731 6.8429 1.7993 13.527 3.5053 19.373 6.1157a111.36 111.36 0 0 1 16.231 9.1829c9.9846 6.8149 17.667 16.427 20.967 26.551l12.856.50343c7.7472.2051 18.067.93227 28.35.36358 10.255-.33561 20.603-.50342 28.248-.99752 7.5514-.7365 12.586-1.2026 12.586-1.2026a38.913 38.913 0 0 1 6.6098 -14.758 47.378 47.378 0 0 1 5.3792 -6.2742 62.863 62.863 0 0 1 21.601 -15.327 89.237 89.237 0 0 1 18.571 -6.6751c7.0759-1.3984 13.723-2.7968 20.939-3.3096 7.2158-.51275 14.86-.23307 22.039.0653a156.03 156.03 0 0 1 44.963 9.5464l7.8124-4.3444c4.4749-2.6756 10.917-5.8453 15.849-9.7888 5.0436-3.7291 10.348-7.281 13.555-10.255s5.1741-4.8758 5.1741-4.8758c-10.516-7.2437-16.566-15.028-20.435-22.71a24.91 24.91 0 0 1 -2.4053 -10.619 15.252 15.252 0 0 1 2.4053 -9.7143c2.7409-6.1437 9.7516-10.684 17.713-14.292" style="fill:#78909c;stroke-width:.93227"/>
<path class="cls-2" d="m199.49 456.08s13.592-51.48-45.439-117.89l-1.9578-2.051a163.57 163.57 0 0 1 -38.568 -105.35c0-90.244 73.5-163.66 163.85-163.66h3.7664c90.346 0 163.86 73.426 163.86 163.66a163.54 163.54 0 0 1 -38.549 105.28c-.289.33562-.93227 1.0255-1.9671 2.0324-52.412 52.478-45.467 117.93-45.467 117.93 95.698-32.993 160.35-122.98 160.9-223.92.72717-126.16-101.14-233.73-227.03-239.77-1.5662-.074582-3.1231-.10255-4.6614-.10255-1.8645 0-8.9871.13984-8.9498.13984-.2051 0-7.0293-.13984-8.9218-.13984-1.5569 0-3.1138 0-4.6614.10255-125.92 6.0411-227.78 113.61-227.09 239.81.53139 100.95 65.194 190.93 160.89 223.92z" style="fill:#78909c;stroke-width:.93227"/>
<path class="cls-4" d="m362.32 307.75c23.54-19.167 38.102-46.325 37.832-76.4-.49411-57.279-54.612-103.43-120.88-103.43s-120.38 46.147-120.89 103.43c-.26104 30.066 14.292 57.232 37.832 76.4 29.124 23.717 52.99 71.682 54.389 124.06 1.5569 58.127-2.4146 125.4-4.8571 159.62-31.138 4.4283-53.009 14.823-53.009 26.952 0 16.138 38.736 34.746 86.515 34.746 47.779 0 86.515-18.645 86.515-34.746 0-12.12-21.871-22.524-53.009-26.952-2.4426-34.233-6.4047-101.5-4.8571-159.62 1.4264-52.375 25.292-100.34 54.417-124.06z" style="fill-opacity:0;stroke-width:.93227"/>
</g>
</g>
</svg>
