<svg version="1.1" viewBox="0 0 24 24" xmlns="http://www.w3.org/2000/svg">
<g transform="translate(.28169 -.13395)">
<g fill="#73cddc">
<path d="m10.575 1.6953c-2.6341 0-4.7565 2.453-4.7565 5.5017v4.5995c-.00877-.000751-.017765-.0015-.026536-.0022v4.7101c0 3.0487 2.1224 5.5017 4.7565 5.5017h2.2865c2.6341 0 4.7565-2.453 4.7565-5.5017v-4.5995c.0088.000749.01777.0015.02654.0022v-4.7101c0-3.0487-2.1224-5.5017-4.7565-5.5017h-2.2865z"/>
<rect transform="matrix(.48489 -.87457 .85979 .51065 0 0)" x="-1.1775" y="6.0925" width="2.2886" height="3.335" ry="1.1246"/>
<rect transform="matrix(.44646 .8948 -.89204 .45195 0 0)" x="10.261" y="-15.076" width="2.297" height="3.3904" ry="1.1433"/>
</g>
<circle cx="9.2673" cy="5.1301" r="2.0545" fill="#fff" stroke="#5e5d5b" stroke-width=".1"/>
<circle cx="14.214" cy="5.1156" r="2.0545" fill="#fff" stroke="#5e5d5b" stroke-width=".1"/>
<ellipse cx="8.039" cy="5.0512" rx=".79244" ry=".90067" fill="#030d18"/>
<path d="m11.792 9.5557.76303.13832a.40286 .68856 0 0 1 .008 .13832 .40286 .68856 0 0 1 -.40259 .68923 .40286 .68856 0 0 1 -.40332 -.68923 .40286 .68856 0 0 1 .03488 -.27664z" fill="#fff" stroke="#fff" stroke-width=".15521"/>
<ellipse cx="8.5097" cy="5.3647" rx=".13796" ry=".16614" fill="#fff"/>
<ellipse cx="12.945" cy="5.1891" rx=".79244" ry=".90067" fill="#030d18"/>
<ellipse cx="13.414" cy="5.4461" rx=".13796" ry=".16614" fill="#fff"/>
<ellipse transform="matrix(-.63477 -.7727 .7727 -.63477 0 0)" cx="-12.982" cy="-3.4087" rx=".70762" ry="1.026" fill="#f6d2a1"/>
<path d="m11.772 9.5526-.75678.13495a.39956 .6718 0 0 0 -.0079 .13495 .39956 .6718 0 0 0 .39929 .67245 .39956 .6718 0 0 0 .40001 -.67245 .39956 .6718 0 0 0 -.0346 -.2699z" fill="#fff" stroke="#fff" stroke-width=".15268"/>
<g fill="#f6d2a1">
<ellipse transform="matrix(.63477 -.7727 -.7727 -.63477 0 0)" cx="1.8408" cy="-21.563" rx=".70736" ry="1.0257"/>
<ellipse transform="matrix(.3054 -.95222 -.97065 -.24051 0 0)" cx="-17.281" cy="-21.784" rx=".86445" ry="1.2703"/>
<ellipse transform="matrix(.22652 .97401 .95652 -.29167 0 0)" cx="22.885" cy="2.5872" rx=".86445" ry="1.2703"/>
<path d="m10.708 8.3921c-.32934 0-.59377.26653-.59377.59734v.11487c0 .33081.26444.59734.59377.59734h.38609a.97346 .77195 0 0 1 .69716 -.23434 .97346 .77195 0 0 1 .69807 .23434h.33394c.32934 0 .59469-.26654.59469-.59734v-.11487c0-.33081-.26535-.59734-.59469-.59734h-2.1153z" stroke="#657075" stroke-width=".1"/>
</g>
<ellipse cx="11.734" cy="8.2031" rx="1.2084" ry=".68013" fill="#030d18" stroke="#fff" stroke-width=".162"/>
</g>
</svg>
