<?xml version="1.0" encoding="UTF-8" standalone="no"?>
<!DOCTYPE svg PUBLIC "-//W3C//DTD SVG 1.1//EN" "http://www.w3.org/Graphics/SVG/1.1/DTD/svg11.dtd">
<svg version="1.1" xmlns="http://www.w3.org/2000/svg" xmlns:xlink="http://www.w3.org/1999/xlink" preserveAspectRatio="xMidYMid meet" viewBox="0 0 24 24" width="24" height="24"><defs><path d="M13.26 3.04L13.84 3.09L14.38 3.16L14.9 3.25L15.39 3.36L15.85 3.49L16.29 3.63L16.7 3.79L17.09 3.96L17.45 4.15L17.78 4.36L18.1 4.58L18.39 4.81L18.65 5.06L18.87 5.28L19.07 5.5L19.26 5.74L19.43 5.98L19.58 6.23L19.73 6.49L19.85 6.76L19.97 7.04L20.07 7.33L20.15 7.64L20.22 7.95L20.27 8.27L20.31 8.61L20.33 8.96L20.34 9.33L20.34 9.38L20.32 9.89L20.27 10.38L20.18 10.86L20.05 11.31L19.9 11.74L19.71 12.14L19.49 12.53L19.23 12.9L18.95 13.24L18.64 13.57L18.31 13.87L17.94 14.15L17.55 14.42L17.14 14.66L16.7 14.88L21 21L13.96 21L10.48 15.86L9.17 15.86L9.17 21L3 21L3 3L12.01 3L12.65 3.01L13.26 3.04ZM9.17 11.56L11.83 11.56L12.82 11.45L13.57 11.1L14.04 10.55L14.2 9.81L14.2 9.76L14.03 9.01L13.56 8.47L12.82 8.15L11.86 8.04L9.17 8.04L9.17 11.56Z" id="kCp4QApKZ"></path></defs><g><g><g><use xlink:href="#kCp4QApKZ" opacity="1" fill="#ff1744" fill-opacity="1"></use><g><use xlink:href="#kCp4QApKZ" opacity="1" fill-opacity="0" stroke="#000000" stroke-width="1" stroke-opacity="0"></use></g></g></g></g></svg>