<svg version="1.1" viewBox="0 0 24 24" xmlns="http://www.w3.org/2000/svg">
<path d="m5 3c-1.11 0-2 .89-2 2v14a2 2 0 0 0 2 2h14a2 2 0 0 0 2 -2v-14c0-1.11-.9-2-2-2h-14zm3.668 3.4473c.2596 0 .47778.085775.65234.25586s.26172.37882.26172.625c0 .34017-.01416.85229-.041016 1.5371-.02238.68034-.033203 1.1891-.033203 1.5293 0 .1119-.015544.32674-.046875.64453-.026856.29541-.037679.52303-.033203.67969l2.5781-.48438c1.0071-.17904 1.8739-.28174 2.6035-.30859.017904-.29989.047607-1.1046.087891-2.416.008951-.34465.11499-.74186.31641-1.1895.25065-.55054.53377-.82617.85156-.82617.23722 0 .44735.079671.63086.23633.19694.17008.29492.38159.29492.63672 0 .067139-.007487.13403-.025391.20117-.089518.32674-.13477.61182-.13477.85352 0 .12533-.01416.31991-.041015.58398-.02238.2596-.033203.4528-.033203.57812 0 .42521-.021648 1.0556-.066407 1.8926-.044759.837-.068359 1.4674-.068359 1.8926 0 .32674.024984.81584.074219 1.4648.049235.64901.074218 1.1361.074218 1.4629 0 .24618-.087158.45492-.26172.625-.17456.17008-.39079.25391-.65039.25391-.26408 0-.49308-.083821-.68555-.25391-.19246-.16561-.28906-.36963-.28906-.61133 0-.32674-.015544-.81722-.046875-1.4707-.026856-.65348-.041016-1.144-.041016-1.4707 0-.25513.00472-.4808.013672-.67774-.70272.031332-1.5696.14209-2.6035.33008-.85938.15666-1.7188.31543-2.5781.47656-.0089518.30436-.041992.81177-.095703 1.5234-.044759.62663-.066406 1.1388-.066406 1.5371 0 .24618-.087158.45492-.26172.625-.17456.17008-.39079.25391-.65039.25391-.2596 0-.47778-.083822-.65234-.25391-.17456-.17008-.26172-.37882-.26172-.625 0-.45207.037191-1.1277.11328-2.0273.080566-.89966.12109-1.5753.12109-2.0273 0-.57292.01416-1.4356.041016-2.5859.026855-1.1548.041016-2.0169.041016-2.5898 0-.24618.087158-.45492.26172-.625.17456-.17008.39079-.25586.65039-.25586z" fill="#4caf50"/>
</svg>
