<?xml version="1.0" encoding="UTF-8"?>
<svg id="NVIDIA_Logo_V" width="200" height="200" version="1.1" viewBox="0 0 200 200" xml:space="preserve" xmlns="http://www.w3.org/2000/svg"><style type="text/css">
	.st0{fill:#76B900;}
</style><title>NVIDIA-Logo</title><path id="Eye_Mark" class="st0" d="m76.362 75.199v-11.083c1.0947-0.0684 2.1893-0.13683 3.284-0.13683 30.377-0.95782 50.286 26.135 50.286 26.135s-21.483 29.829-44.539 29.829c-3.0787 0-6.089-0.47892-8.9625-1.4367v-33.661c11.836 1.4367 14.23 6.6363 21.277 18.472l15.804-13.273s-11.562-15.12-30.992-15.12c-2.0525-0.0684-4.1049 0.0684-6.1574 0.27366m0-36.671v16.557c1.0947-0.06842 2.1893-0.13683 3.284-0.20525 42.213-1.4367 69.784 34.618 69.784 34.618s-31.608 38.45-64.516 38.45c-2.8735 0-5.6785-0.27368-8.4836-0.75258v10.262c2.3261 0.27367 4.7207 0.47891 7.0468 0.47891 30.65 0 52.817-15.667 74.3-34.139 3.5576 2.8735 18.13 9.7835 21.14 12.794-20.388 17.104-67.937 30.856-94.893 30.856-2.5998 0-5.0628-0.13683-7.5257-0.41049v14.436h116.44v-122.94zm0 79.978v8.7572c-28.324-5.0628-36.192-34.55-36.192-34.55s13.615-15.051 36.192-17.514v9.5782h-0.06842c-11.836-1.4367-21.14 9.6466-21.14 9.6466s5.268 18.678 21.209 24.082m-50.286-27.024s16.762-24.767 50.354-27.366v-9.0309c-37.218 3.0103-69.374 34.482-69.374 34.482s18.199 52.68 69.305 57.469v-9.5782c-37.492-4.6523-50.286-45.975-50.286-45.975z" fill="#8bc34a" stroke-width=".68416"/></svg>
