<svg t="1648397200732" class="icon" viewBox="0 0 1024 1024" version="1.1" xmlns="http://www.w3.org/2000/svg" fill="#ffffff" p-id="4480" width="20" height="20"><path d="M202.666667 256h-42.666667a32 32 0 0 1 0-64h704a32 32 0 0 1 0 64H266.666667v565.333333a53.333333 53.333333 0 0 0 53.333333 53.333334h384a53.333333 53.333333 0 0 0 53.333333-53.333334V352a32 32 0 0 1 64 0v469.333333c0 64.8-52.533333 117.333333-117.333333 117.333334H320c-64.8 0-117.333333-52.533333-117.333333-117.333334V256z m224-106.666667a32 32 0 0 1 0-64h170.666666a32 32 0 0 1 0 64H426.666667z m-32 288a32 32 0 0 1 64 0v256a32 32 0 0 1-64 0V437.333333z m170.666666 0a32 32 0 0 1 64 0v256a32 32 0 0 1-64 0V437.333333z" p-id="4481"></path></svg>