<svg version="1.1" viewBox="0 0 30 30" xmlns="http://www.w3.org/2000/svg">
<g transform="translate(0,-267)">
<path d="m5.2074 271.33c-.047558.0515-.096794.10075-.14366.15316-2.3762 2.6622-3.5642 6.2773-3.5642 10.846 0 4.4183 1.1557 7.8618 3.4591 10.339h19.415c2.5529-1.1508 4.1269-3.43 4.1269-3.43l-3.1468-2.52-1.4538 1.382c-.8666.77235-.84504.93111-2.3146 1.7796-1.4956.67375-3.0405.96588-4.6339.96588-2.5159 0-4.4233-.90829-5.7232-2.0586-1.2859-1.1503-1.9849-4.5111-2.0967-6.6803l17.458.0672-.18252-1.4722s-.84698-7.1283-2.5413-9.3717zm8.7593.84595c1.5655 0 3.2206.53467 3.9614 1.4714.7408.93668.93123 1.667.97316 3.5239h-9.7914c.11182-1.9555.43618-2.8104 1.3727-3.6978.93649-.88737 2.0305-1.2975 3.4841-1.2975z" fill="#f44336"/>
</g>
</svg>
