<svg clip-rule="evenodd" stroke-linejoin="round" stroke-miterlimit="1.414" version="1.1" viewBox="0 0 24 24" xmlns="http://www.w3.org/2000/svg"><path d="M19 20H4a2 2 0 0 1-2-2V6c0-1.11.89-2 2-2h6l2 2h7c1.097 0 2 .903 2 2H4v10l2.14-8h17.07l-2.28 8.5c-.23.87-1.01 1.5-1.93 1.5z" fill="#01579B" style="fill:#0288d1"/><path d="m17.66 10.789c-.70846-.06441-1.3332.45729-1.3976 1.1722l-.16101 1.8614h1.8162v1.2881h-1.9322l-.28338 3.2654c-.12881 1.417-1.3783 2.4668-2.7952 2.338-.80506-.07085-1.5328-.51526-1.9579-1.2044l.96608-.9661c.21254.67627.94031 1.0563 1.6101.83729.50236-.15458.85658-.59898.90167-1.1207l.2705-3.1495h-1.9322v-1.2881h2.0481l.17389-1.9773c.12237-1.4169 1.3654-2.4668 2.7887-2.3508.8115.07085 1.5457.52169 1.9708 1.2173l-.96608.9661c-.16101-.49593-.59897-.84373-1.1206-.88881m6.17 5.3844-.90811-.90814-1.8227 1.8227-1.8227-1.8227-.92099.90814 1.8355 1.8356-1.8355 1.8098.92099.90814 1.8227-1.8227 1.8227 1.8227.90811-.90814-1.8227-1.8098z" style="fill:#b3e5fc;stroke-width:.64406"/></svg>
