<svg clip-rule="evenodd" stroke-linejoin="round" stroke-miterlimit="1.4142" version="1.1" viewBox="0 0 24 24" xml:space="preserve" xmlns="http://www.w3.org/2000/svg"><path d="m19 20h-15c-1.11 0-2-.9-2-2v-12c0-1.11.89-2 2-2h6l2 2h7c1.097 0 2 .903 2 2h-17v10l2.14-8h17.07l-2.28 8.5c-.23.87-1.01 1.5-1.93 1.5z" fill="#e57373" style="fill:#f9a825"/><path d="m19.017 17.773a1.1955 1.1955 0 0 0 1.1955 -1.1955c0-.66351-.53798-1.1955-1.1955-1.1955a1.1955 1.1955 0 0 0 -1.1955 1.1955 1.1955 1.1955 0 0 0 1.1955 1.1955m3.5865-5.3798a1.1955 1.1955 0 0 1 1.1955 1.1955v5.9776a1.1955 1.1955 0 0 1 -1.1955 1.1955h-7.1731a1.1955 1.1955 0 0 1 -1.1955 -1.1955v-5.9776c0-.66351.53798-1.1955 1.1955-1.1955h.59776v-1.1955a2.9888 2.9888 0 0 1 2.9888 -2.9888 2.9888 2.9888 0 0 1 2.9888 2.9888v1.1955h.59776m-3.5865-2.9888a1.7933 1.7933 0 0 0 -1.7933 1.7933v1.1955h3.5865v-1.1955a1.7933 1.7933 0 0 0 -1.7933 -1.7933z" style="fill:#fff9c4;stroke-width:.59776"/></svg>
