<svg clip-rule="evenodd" stroke-linejoin="round" stroke-miterlimit="1.4142" version="1.1" viewBox="0 0 24 24" xml:space="preserve" xmlns="http://www.w3.org/2000/svg"><path d="m19 20h-15c-1.11 0-2-.9-2-2v-12c0-1.11.89-2 2-2h6l2 2h7c1.097 0 2 .903 2 2h-17v10l2.14-8h17.07l-2.28 8.5c-.23.87-1.01 1.5-1.93 1.5z" fill="#e57373" style="fill:#5c6bc0"/><path d="m21.981 19.546h-8.6215v-6.774h8.6215m0-3.0791h-.61582v-1.2316h-1.2316v1.2316h-4.9266v-1.2316h-1.2316v1.2316h-.61582c-.68356 0-1.2316.55424-1.2316 1.2316v8.6215a1.2316 1.2316 0 0 0 1.2316 1.2316h8.6215a1.2316 1.2316 0 0 0 1.2316 -1.2316v-8.6215a1.2316 1.2316 0 0 0 -1.2316 -1.2316m-1.5211 4.9635-.65277-.65277-3.0052 3.0052-1.3055-1.3055-.65277.65277 1.9583 1.9583z" style="fill:#c5cae9;stroke-width:.61582"/></svg>
