<?xml version="1.0" encoding="UTF-8"?>
<svg clip-rule="evenodd" stroke-linejoin="round" stroke-miterlimit="1.4142" version="1.1" viewBox="0 0 24 24" xml:space="preserve" xmlns="http://www.w3.org/2000/svg"><path d="m19 20h-15c-1.11 0-2-0.9-2-2v-12c0-1.11 0.89-2 2-2h6l2 2h7c1.097 0 2 0.903 2 2h-17v10l2.14-8h17.07l-2.28 8.5c-0.23 0.87-1.01 1.5-1.93 1.5z" fill="#039be5"/><path d="m20.037 16.746c0.0495-0.40831 0.08661-0.81661 0.08661-1.2373s-0.03711-0.82898-0.08661-1.2373h2.091c0.09898 0.39593 0.16085 0.81042 0.16085 1.2373 0 0.42686-0.06187 0.84136-0.16085 1.2373m-3.186 3.4397c0.37119-0.6867 0.65577-1.4291 0.85374-2.2024h1.825c-0.5939 1.0208-1.5404 1.8126-2.6788 2.2024m-0.15466-3.4397h-2.8953c-0.06187-0.40831-0.09898-0.81661-0.09898-1.2373s0.03712-0.83517 0.09898-1.2373h2.8953c0.05568 0.40212 0.09898 0.81661 0.09898 1.2373s-0.0433 0.82898-0.09898 1.2373m-1.4476 3.6871c-0.51348-0.74237-0.92797-1.5652-1.1816-2.4498h2.3632c-0.25365 0.88466-0.66814 1.7075-1.1816 2.4498m-2.4746-7.399h-1.8065c0.58772-1.0269 1.5404-1.8188 2.6726-2.2024-0.37119 0.6867-0.64958 1.4291-0.86611 2.2024m-1.8065 4.9492h1.8065c0.21653 0.77331 0.49492 1.5157 0.86611 2.2024-1.1321-0.38975-2.0849-1.1816-2.6726-2.2024m-0.50729-1.2373c-0.098981-0.39593-0.16085-0.81042-0.16085-1.2373 0-0.42686 0.06187-0.84136 0.16085-1.2373h2.091c-0.04949 0.4083-0.08661 0.81661-0.08661 1.2373s0.03712 0.82898 0.08661 1.2373m2.6973-6.1679c0.51348 0.74237 0.92798 1.5714 1.1816 2.456h-2.3632c0.25365-0.88466 0.66814-1.7136 1.1816-2.456m4.2811 2.456h-1.825c-0.19797-0.7733-0.48255-1.5157-0.85374-2.2024 1.1383 0.38975 2.0848 1.1754 2.6788 2.2024m-4.2811-3.7119c-3.4211 0-6.1865 2.7839-6.1865 6.1864a6.1865 6.1864 0 0 0 6.1865 6.1864 6.1865 6.1864 0 0 0 6.1865 -6.1864 6.1865 6.1864 0 0 0 -6.1865 -6.1864z" fill="#b3e5fc" stroke-width=".61865"/></svg>
