<svg clip-rule="evenodd" fill-rule="evenodd" stroke-linejoin="round" stroke-miterlimit="1.4142" version="1.1" viewBox="0 0 24 24" xml:space="preserve" xmlns="http://www.w3.org/2000/svg"><path d="m10 4h-6c-1.11 0-2 .89-2 2v12c0 1.097.903 2 2 2h16c1.097 0 2-.903 2-2v-10c0-1.11-.9-2-2-2h-8l-2-2z" fill="#8bc34a" fill-rule="nonzero"/><path d="m17.655 8.3902-6.1518 2.1924l.9325 8.1426 5.2191 2.8879 5.2191-2.8879.9325-8.1426zm-1.2783 2.0667c.23421-.0042.48719.07094.76877.22265.12391.06679.4977.16133.83032.20955 1.1822.17136 2.5855 1.0743 3.0293 1.9501.30541.60268.24295.92743-.22527 1.1696-.40376.20879-1.2299.10778-2.4295-.2973l-1.0124-.34182-.36016.13751c-.52185.1993-1.0437.69397-1.2573 1.1905-.15405.3581-.17749.52641-.14931 1.1158.02824.59039.07089.76096.28027 1.1316.23837.42191.78554.96025.88012.86572.02546-.02546-.03093-.19658-.12442-.37981-.09348-.18323-.14783-.36782-.1218-.40993.02602-.04211.27242.11441.54744.34707.61162.51739 1.3262.84826 1.9816.91676.53813.05625.6611-.04392.25801-.21086-.12985-.05378-.2988-.16642-.37457-.25015-.15664-.17309-.16554-.16815.50422-.31825.41693-.09343 1.2409-.53078 1.29-.68497.01563-.04908-.11829-.06986-.3379-.05237-.1997.01591-.36278-.0047-.36278-.04586 0-.0409.16338-.24375.36278-.45184.74818-.78084 1.0035-1.3646 1.0831-2.474l.05501-.76619.1755.3641c.19408.40162.22987.98095.09168 1.4786-.11539.41557-.0384.46151.17287.10347.26111-.44255.34442-.37215.29861.25146-.04984.67834-.28259 1.1865-.80806 1.7615-.42846.4688-.3773.55261.14145.23313.49972-.30779.56646-.2595.30908.22396-.4867.91422-1.5156 1.6895-2.584 1.9488-.64757.15719-1.1068.18651-1.7.10871-1.551-.20345-3.018-1.248-3.7182-2.6469-.18202-.36367-.43941-.80806-.57234-.98882-.2744-.37314-.29794-.54097-.11263-.8238.09242-.14105.11405-.28596.07596-.50161-.17636-.99867-.17061-1.0299.23051-1.4367.34857-.35358.37064-.40097.37064-.81334 0-.35771.03617-.47492.19776-.63652.10887-.10887.28193-.19942.38374-.20038.29591-.0028.80682-.2767 1.1093-.59459.25262-.2655.52136-.39974.8225-.4047z" fill="#dcedc8" stroke-width=".69596"/></svg>
