<?xml version="1.0" encoding="UTF-8"?>
<svg clip-rule="evenodd" fill-rule="evenodd" stroke-linejoin="round" stroke-miterlimit="1.4142" version="1.1" viewBox="0 0 24 24" xml:space="preserve" xmlns="http://www.w3.org/2000/svg" xmlns:xlink="http://www.w3.org/1999/xlink"><defs><linearGradient id="linearGradient4667" x1="-31.824" x2="19.682" y1="-11.741" y2="35.548" gradientTransform="scale(.95818 1.0436)" gradientUnits="userSpaceOnUse" xlink:href="#linearGradient-2"/><linearGradient id="linearGradient-2" x1="-3.8815" x2="2.3768" y1="-1.4418" y2="4.3041"><stop stop-color="#C06FBB" offset="0"/><stop stop-color="#6E4D9B" offset="1"/></linearGradient><linearGradient id="linearGradient4671" x1="12.022" x2="-15.716" y1="13.922" y2="-23.952" gradientTransform="scale(.96226 1.0392)" gradientUnits="userSpaceOnUse" xlink:href="#linearGradient-3"/><linearGradient id="linearGradient-3" x1=".72945" x2="-.97052" y1=".84424" y2="-1.477"><stop stop-color="#6E4D9B" offset="0"/><stop stop-color="#77327A" offset=".14"/><stop stop-color="#B31777" offset=".29"/><stop stop-color="#CD0F7E" offset=".84"/><stop stop-color="#ED2C89" offset="1"/></linearGradient><linearGradient id="linearGradient4675" x1="-23.39" x2="23.931" y1="-57.289" y2="8.5733" gradientTransform="scale(1.0429 .95884)" gradientUnits="userSpaceOnUse" xlink:href="#linearGradient-4"/><linearGradient id="linearGradient-4" x1="-2.8388" x2="2.8754" y1="-6.936" y2="1.0171"><stop stop-color="#C06FBB" offset="0"/><stop stop-color="#6E4D9B" offset="1"/></linearGradient><linearGradient id="linearGradient4679" x1="-53.331" x2="6.771" y1="-30.517" y2="18.785" gradientTransform="scale(.99898 1.001)" gradientUnits="userSpaceOnUse" xlink:href="#linearGradient-5"/><linearGradient id="linearGradient-5" x1="-8.2119" x2="1.0199" y1="-4.6905" y2="2.8824"><stop stop-color="#C06FBB" offset="0"/><stop stop-color="#6E4D9B" offset="1"/></linearGradient><linearGradient id="linearGradient4683" x1="-14.029" x2="41.998" y1="-23.111" y2="26.259" gradientTransform="scale(1.0003 .99965)" gradientUnits="userSpaceOnUse" xlink:href="#linearGradient-6"/><linearGradient id="linearGradient-6" x1="-1.4036" x2="4.1901" y1="-2.3093" y2="2.6198"><stop stop-color="#C06FBB" offset="0"/><stop stop-color="#6E4D9B" offset="1"/></linearGradient><linearGradient id="linearGradient4687" x1="31.177" x2="3.37" y1="41.442" y2="3.4019" gradientTransform="scale(.96254 1.0389)" gradientUnits="userSpaceOnUse" xlink:href="#linearGradient-7"/><linearGradient id="linearGradient-7" x1="1.9108" x2=".20358" y1="2.5395" y2=".20403"><stop stop-color="#6E4D9B" offset="0"/><stop stop-color="#77327A" offset=".14"/><stop stop-color="#B31777" offset=".29"/><stop stop-color="#CD0F7E" offset=".84"/><stop stop-color="#ED2C89" offset="1"/></linearGradient><linearGradient id="linearGradient4691" x1="-31.905" x2="19.599" y1="-14.258" y2="42.767" gradientTransform="scale(.95823 1.0436)" gradientUnits="userSpaceOnUse" xlink:href="#linearGradient-8"/><linearGradient id="linearGradient-8" x1="-3.8809" x2="2.3767" y1="-1.7385" y2="5.1899"><stop stop-color="#C06FBB" offset="0"/><stop stop-color="#6E4D9B" offset="1"/></linearGradient><linearGradient id="linearGradient4695" x1="4.3008" x2="34.534" y1="34.41" y2="4.5141" gradientTransform="scale(1.002 .99796)" gradientUnits="userSpaceOnUse" xlink:href="#linearGradient-9-8"/><linearGradient id="linearGradient-9-8" x1=".11188" x2=".90145" y1=".89653" y2=".11577"><stop stop-color="#6E4D9B" offset="0"/><stop stop-color="#77327A" offset=".14"/><stop stop-color="#B31777" offset=".53"/><stop stop-color="#CD0F7E" offset=".79"/><stop stop-color="#ED2C89" offset="1"/></linearGradient></defs><path d="m19 20h-15c-1.11 0-2-0.9-2-2v-12c0-1.11 0.89-2 2-2h6l2 2h7c1.097 0 2 0.903 2 2h-17v10l2.14-8h17.07l-2.28 8.5c-0.23 0.87-1.01 1.5-1.93 1.5z" fill="#f06292" fill-rule="nonzero"/><g id="Main-Navigation" transform="translate(-150.2 -137.06)" clip-rule="evenodd" fill="none" fill-rule="evenodd" stroke-linejoin="round" stroke-miterlimit="1.4142"><g id="Main-Navigation---Home" transform="translate(-7.4835 -32.744)"><g id="Icon" transform="matrix(.31022 .061897 -.061897 .31022 169.49 177.35)"><g id="Group" transform="rotate(-11.284 17.839 -78.732)" fill="url(#linearGradient4667)"><path d="m8.0016 6.1269-3.8844 2.5925-4.0016-5.9968 3.8844-2.5925z" fill="url(#linearGradient4667)"/></g><g transform="rotate(-11.284 129.49 -99.884)" fill="url(#linearGradient4671)"><path d="m9.1789 1.8875 6.6368 9.9454-7.9061 5.276-6.6368-9.9455-1.1579-1.7348 7.9062-5.276z" fill="url(#linearGradient4671)"/></g><g transform="rotate(-11.284 167.2 -62.32)" fill="url(#linearGradient4675)"><path d="m7.3003 1.8791 1.4612 2.1896-6.0177 4.0158-2.6191-3.9246 1.3147-0.87731 4.7032-3.1385z" fill="url(#linearGradient4675)"/></g><g transform="rotate(-11.284 104.37 -149.22)" fill="url(#linearGradient4679)"><path d="m2.3281 1.1463 1.6879-1.1263 2.6189 3.9246-3.8848 2.5925-1.4612-2.1896 2.1969-1.4661zm-1.0392 3.2011-1.1577-1.735 2.1969-1.4661 1.1577 1.735z" fill="url(#linearGradient4679)"/></g><g transform="rotate(-11.284 81.819 7.6453)" fill="url(#linearGradient4683)"><path d="m5.3459 9.1545-1.3145 0.87731-4.0019-5.9968 6.0177-4.0158 2.8051 4.2036-4.7031 3.1385 4.7031-3.1385 1.1968 1.7934z" fill="url(#linearGradient4683)"/></g><g transform="rotate(-11.284 17.141 -7.8246)" fill="url(#linearGradient4687)"><path d="m14.533 9.9339 1.1967 1.7934-7.9062 5.276-1.1967-1.7934-6.5747-9.8522 7.9062-5.276z" fill="url(#linearGradient4687)"/></g><g transform="rotate(-11.284 18.188 -79.174)" fill="url(#linearGradient4691)"><path d="m6.2346 7.1767-2.1969 1.466-1.1968-1.7933-2.8051-4.2036 3.8848-2.5925 4.0019 5.9968z" fill="url(#linearGradient4691)"/></g><g transform="rotate(-11.284 166.49 -69.536)" fill="#714896"><path d="m1.1715 5.0177-1.1579-1.735 4.7032-3.1385 1.1577 1.735z"/></g><g transform="rotate(-11.284 109.99 -149.77)" fill="#6f4795"><path d="m1.2889 3.2385-1.1577-1.735 2.1969-1.4661 1.1577 1.735z"/></g><g transform="rotate(-11.284 100.61 -15.26)" fill="#88519f"><path d="m1.2271 5.0357-1.1967-1.7933 4.7031-3.1385 1.1968 1.7934z"/></g><g transform="rotate(-11.284 43.301 -95.418)" fill="#85509e"><path d="m1.3446 3.415-1.1968-1.7933 2.1971-1.4661 1.1967 1.7934z"/></g><g transform="rotate(-11.284 129.49 -99.884)" fill="#8d166a"><path d="m9.1789 1.8875-7.9061 5.2759-1.1579-1.7348 7.9062-5.276z"/></g><g transform="rotate(-11.284 63.604 -45.609)" fill="#a70d6f"><path d="m8.038 0.11216 1.1967 1.7934-7.9062 5.276-1.1967-1.7934z"/></g><g transform="rotate(45 -13.019 8.751)" fill="#9e61ad"><rect id="Rectangle-path" x="2.1354e-15" width="2.6884" height="2.6884"/></g><g transform="rotate(45 -36.276 36.979)" fill="#8053a3"><rect x="2.1354e-15" width="2.6884" height="2.6884"/></g><g transform="translate(1.8225 1.5477)" fill="url(#linearGradient4695)"><path d="m8.3723 38.294-8.3556-8.4182 29.732-29.795 8.6368 8.2012z" fill="url(#linearGradient4695)"/></g></g></g></g></svg>
