<?xml version="1.0" encoding="UTF-8"?>
<svg version="1.1" viewBox="0 0 152.99 160.01" xmlns="http://www.w3.org/2000/svg">
 <defs>
  <style>.cls-1{fill:#fff;}.cls-2{fill:#515151;}.cls-3{fill:#1d79bf;}.cls-4{fill:#383838;}</style>
 </defs>
 <title>Asset 3</title>
 <g transform="matrix(.87285 0 0 .87285 10.17 10.175)" data-name="Layer 2">
  <g id="Fuse_Box" data-name="Fuse Box">
   <g id="LOGO">
    <polygon class="cls-1" points="76.56 2.19 150.78 27.12 143.08 114.89 77.67 157.55 7.88 113.62 2.18 27.49" fill="#fff"/>
    <path class="cls-2" d="m77.69 160-71.82-45.19-5.87-88.81 76.55-26 76.45 25.67l-7.94 90.4zm-67.81-47.57 67.77 42.66 63.45-41.39 7.47-85.13-72-24.18-72.21 24.56z" fill="#515151"/>
    <polygon class="cls-3" points="76.4 148.8 76.4 61.68 143.33 31.86 137.34 110.63" fill="#1d79bf"/>
    <polygon id="F" class="cls-4" points="76.4 148.8 16.05 111.41 9.63 31.8 76.4 61.68" fill="#383838"/>
    <path class="cls-1" d="m25.58 52.73 0.54 15.93 37.35 18.18 0.12 14.69-37-18.21 1.64 37.1-14.56-9-5.05-80.55 67.79 30.82v15.46z" fill="#fff"/>
    <path class="cls-1" d="m135.91 90.77c-0.08 13.12-6.33 26.59-16.77 33.12l-42.8 27.93v-90.11l42.27-18.84c5.16-2.41 9.51-1.43 12.4 3.11 1.9 3 2.89 7.23 2.86 12.21a35.69 35.69 0 0 1 -4.53 17.81c4.29 2 6.66 6.55 6.57 14.77zm-12.91-27.01c0-4.64-2-6.93-4.92-5.45l-29 14.48-0.08 17.21 29.44-15.59c2.5-1.32 4.56-5.91 4.56-10.65zm2.15 32.24c0-5.71-2.42-8.24-6.55-5.93l-29.6 16.57v19.58l29.34-17.46c4.43-2.64 6.79-7.27 6.81-12.76z" fill="#fff"/>
    <polygon id="TOP" class="cls-4" points="76.4 8.82 9.71 31.77 119.48 34.15 35.46 43.36 76.4 61.68 97.16 52.43 69.43 51.06 119.21 42.6 143.33 31.86" fill="#383838"/>
   </g>
  </g>
 </g>
</svg>
