<?xml version="1.0" encoding="UTF-8"?>
<svg width="24" height="24" version="1.1" viewBox="0 0 24 24" xmlns="http://www.w3.org/2000/svg">
 <path d="m2.6 10.59l5.78-5.79 1.69 1.7c-0.24 0.85 0.15 1.78 0.93 2.23v5.54c-0.6 0.34-1 0.99-1 1.73a2 2 0 0 0 2 2 2 2 0 0 0 2 -2c0-0.74-0.4-1.39-1-1.73v-4.86l2.07 2.09c-0.07 0.15-0.07 0.32-0.07 0.5a2 2 0 0 0 2 2 2 2 0 0 0 2 -2 2 2 0 0 0 -2 -2c-0.18 0-0.35 0-0.5 0.07l-2.57-2.57c0.26-0.93-0.22-1.95-1.15-2.34-0.43-0.16-0.88-0.2-1.28-0.09l-1.7-1.69 0.79-0.78c0.78-0.79 2.04-0.79 2.82 0l7.99 7.99c0.79 0.78 0.79 2.04 0 2.82l-7.99 7.99c-0.78 0.79-2.04 0.79-2.82 0l-7.99-7.99c-0.79-0.78-0.79-2.04 0-2.82z" fill="#e64a19"/>
</svg>
