<svg version="1.1" viewBox="0 0 24 24" xmlns="http://www.w3.org/2000/svg">
<path d="m8.5624 16.042c-.26645-2.6987-.48293-4.9411-.48106-4.9831.0019-.04195-.22543-.07627-.50509-.07627h-.50848v-1.9322h3.9661v-3.7508l1.8714-1.1246c1.1397-.68492 1.9778-1.1246 2.1434-1.1246.4 0 .86652.50545.86652.93884 0 .18938-.0572.42213-.12712.51724-.06991.095108-.72203.52958-1.4492.96549l-1.322.79257-.02829 1.3929-.02829 1.3929h3.9718v1.9322h-.97966l-.49492 4.9831-.49492 4.9831h-5.9158l-.48445-4.9068z" fill="#e53935"/>
</svg>
