<svg xmlns="http://www.w3.org/2000/svg" version="1.1" viewBox="0 0 24 24">
    <path fill="#8bc34a" d="m12 1.85c-.27 0-.55.07-.78.2l-7.44 4.3c-.48.28-.78.8-.78 1.36v8.58c0 .56.3 1.08.78 1.36l1.95 1.12c.95.46 1.27.47 1.71.47 1.4 0 2.21-.85 2.21-2.33v-8.47c0-.12-.1-.22-.22-.22h-.93c-.13 0-.23.1-.23.22v8.47c0 .66-.68 1.31-1.77.76l-2.05-1.17c-.07-.05-.11-.13-.11-.21v-8.58c0-.09.04-.17.11-.21l7.44-4.29c.06-.04.16-.04.22 0l7.44 4.29c.07.04.11.12.11.21v8.58c0 .08-.04.16-.11.21l-7.44 4.29c-.06.04-.16.04-.23 0l-1.88-1.14c-.08-.03-.16-.04-.21-.01-.53.3-.63.36-1.12.51-.12.04-.31.11.07.32l2.48 1.47c.24.14.5.21.78.21s.54-.07.78-.21l7.44-4.29c.48-.28.78-.8.78-1.36v-8.58c0-.56-.3-1.08-.78-1.36l-7.44-4.3c-.23-.13-.5-.2-.78-.2m2 6.15c-2.12 0-3.39.89-3.39 2.39 0 1.61 1.26 2.08 3.3 2.28 2.43.24 2.62.6 2.62 1.08 0 .83-.67 1.18-2.23 1.18-1.98 0-2.4-.49-2.55-1.47-.02-.1-.11-.18-.22-.18h-.96c-.12 0-.21.09-.21.22 0 1.24.68 2.74 3.94 2.74 2.35 0 3.7-.93 3.7-2.55 0-1.61-1.08-2.03-3.37-2.34-2.31-.3-2.54-.46-2.54-1 0-.45.2-1.05 1.91-1.05 1.5 0 2.09.33 2.32 1.36.02.1.11.17.21.17h.97c.05 0 .11-.02.15-.07.04-.04.07-.1.05-.16-.14-1.78-1.32-2.6-3.7-2.6z"/>
</svg>
