<svg version="1.1" viewBox="0 0 24 24" xmlns="http://www.w3.org/2000/svg">
<path d="m4.7441 2.0312c-1.1572 0-1.9943.3103-2.5098.92969-.51549.61202-.77148 1.6783-.77148 3.1973v2.4668c0 1.4084-.40163 2.1113-1.2012 2.1113v2.0352c.79954 0 1.2012.6784 1.2012 2.0352v2.6543c0 1.5116.25855 2.5624.7793 3.1523s1.3552.88477 2.502.88477v-2.0684c-.44711 0-.77082-.1508-.9707-.45313-.19462-.30232-.29102-.81449-.29102-1.5371v-2.2676c0-1.8066-.40479-2.9374-1.2148-3.3945v-.044922c.81006-.46454 1.2148-1.5819 1.2148-3.3516v-2.3555c0-1.283.4201-1.9258 1.2617-1.9258v-2.0684zm14.66 0v2.0684c.84162 0 1.2617.64276 1.2617 1.9258v2.2676c0 1.8434.40223 2.9964 1.207 3.4609v.044922c-.8048.44242-1.207 1.5443-1.207 3.3066v2.3555c0 .71525-.098944 1.2207-.29883 1.5156-.19988.30232-.52104.45313-.96289.45313v2.0684c1.152 0 1.9839-.29487 2.4941-.88477.51549-.5899.77148-1.6629.77148-3.2188v-2.5547c0-1.3789.40419-2.0684 1.209-2.0684v-2.0352c-.8048 0-1.209-.69622-1.209-2.0898v-2.5332c0-1.4895-.25599-2.5403-.77148-3.1523-.51549-.61939-1.3474-.92969-2.4941-.92969zm-3.0547 4.459c-.45491 0-.88595.057983-1.293.17383-.40702.11121-.76687.28639-1.0781.52734-.30726.24096-.5509.54849-.73047.92383-.17957.3707-.26953.81695-.26953 1.3359 0 .66263.16497 1.2273.49219 1.6953.3312.46802.83156.86313 1.502 1.1875.26337.12511.50888.24866.73633.36914s.42233.24525.58594.375c.1676.12975.29876.27091.39453.42383s.14453.32686.14453.52148c0 .14365-.029987.27918-.089843.4043-.059856.12048-.15169.22568-.27539.31836-.11971.088042-.27152.15801-.45508.20898-.17957.050972-.39135.076172-.63477.076172-.415 0-.8254-.083183-1.2324-.25-.40702-.17145-.78369-.4254-1.1309-.76367v2.2227c.31125.18535.67858.32529 1.1016.41797.42697.092676.87484.13867 1.3457.13867.4589 0 .89368-.0504 1.3047-.15234.415-.10194.77859-.26831 1.0898-.5.31125-.23632.55676-.54263.73633-.91797.18356-.37997.27539-.84824.27539-1.4043 0-.40314-.0525-.75544-.15625-1.0566-.10375-.30583-.25369-.57618-.44922-.8125s-.42974-.44746-.70508-.63281c-.27135-.18999-.5787-.36834-.92188-.53516-.2514-.12048-.47626-.23644-.67578-.34766-.19952-.11584-.3701-.23181-.50977-.34766-.13966-.12048-.24645-.24525-.32227-.375-.075817-.13438-.11523-.28631-.11523-.45312 0-.15292.033725-.28772.10156-.4082.067837-.12511.16536-.23227.28906-.32031.1237-.088042.27551-.15483.45508-.20117.17957-.050972.37818-.078125.59766-.078125.15962 0 .32638.015166.50195.042969.17957.027803.3595.07062.53906.13086.17957.055606.35389.12875.52148.2168.17159.088042.329.18884.47266.30469v-2.0781c-.2913-.12975-.60987-.22492-.95703-.28516-.34318-.064873-.73862-.095703-1.1855-.095703zm-8.7734.16602l-3.123 9.9668h2.0938l.60547-2.2168h3.0527l.60938 2.2168h2.1074l-3.0527-9.9668h-2.293zm1.0723 1.7793h.046875c.027933.34754.076694.64626.14453.89648l.92188 3.3496h-2.1973l.93359-3.377c.079808-.2873.13044-.57721.15039-.86914z" fill="#f44336"/>
</svg>
