<svg t="1648396966320" class="icon" viewBox="0 0 1129 1024" version="1.1" xmlns="http://www.w3.org/2000/svg" p-id="2296" width="19" height="19"><path d="M70.570342 176.426504h542.47341c-15.667589-60.875437-70.92725-105.856162-136.694267-105.856162H105.854864c-19.487148 0-35.284522 15.797374-35.284522 35.28582v70.569045z m614.563529 0h338.13674c58.461445 0 105.854864 47.392122 105.854864 105.854865v635.13308c0 58.462743-47.39342 105.856162-105.856162 105.856162H105.856162C47.39342 1023.270611 0 975.875894 0 917.414449V105.854864C0 47.39342 47.39342 0 105.856162 0H476.348188c104.903544 0 191.985075 76.296436 208.784385 176.426504z m2.926641 70.570343H70.570342v670.417602c0 19.487148 15.797374 35.28582 35.28582 35.28582h917.414449c19.487148 0 35.284522-15.798672 35.284522-35.28582V282.281369c0-19.487148-15.797374-35.28582-35.28582-35.28582h-335.207503zM529.278215 564.562738V390.731924a2.595691 2.595691 0 0 1 2.595691-2.595691h65.378961a2.595691 2.595691 0 0 1 2.595691 2.595691V564.562738h173.829516a2.595691 2.595691 0 0 1 2.59569 2.59569v65.378961a2.595691 2.595691 0 0 1-2.59569 2.595691H599.84726v173.830814a2.595691 2.595691 0 0 1-2.595691 2.59569h-65.378961a2.595691 2.595691 0 0 1-2.59569-2.59569V635.13308H355.447402a2.595691 2.595691 0 0 1-2.595691-2.595691V567.158428a2.595691 2.595691 0 0 1 2.595691-2.59569h173.830813z" fill="#ffffff" p-id="2297"></path></svg>