<svg t="1648397150843" class="icon" viewBox="0 0 1024 1024" version="1.1" xmlns="http://www.w3.org/2000/svg" p-id="3622" width="22" height="22"><path d="M589.9 887.6H220.8v-751h361.6v187.1c0 19.9 16.1 36 36 36h187.4v133c0 19.9 16.1 36 36 36s36-16.1 36-36v-169c0-9.6-3.8-18.7-10.6-25.5L643.9 75.1c-0.6-0.6-1.2-1.1-1.8-1.6l-0.4-0.4-1.8-1.5s-0.1-0.1-0.2-0.1l-1.8-1.2-0.6-0.3c-0.6-0.4-1.3-0.8-2-1.1-0.1 0-0.2-0.1-0.2-0.1-0.6-0.3-1.2-0.6-1.9-0.9l-0.6-0.3c-0.7-0.3-1.4-0.6-2.1-0.8-0.1 0-0.1 0-0.2-0.1-0.7-0.2-1.4-0.5-2.1-0.7-0.2-0.1-0.4-0.1-0.6-0.2-0.7-0.2-1.5-0.4-2.3-0.5-0.7-0.1-1.5-0.3-2.3-0.4-0.2 0-0.4-0.1-0.6-0.1-0.7-0.1-1.4-0.2-2.2-0.2H202.1c-29.4 0-53.3 23.9-53.3 53.3v788.4c0 29.4 23.9 53.3 53.3 53.3h387.8c19.9 0 36-16.1 36-36s-16.1-36-36-36z m64.6-599.9V187.5l100.2 100.2H654.5z" p-id="3623" fill="#ffffff"></path><path d="M922.1 741h-109V631.8c0-19.9-16.1-36-36-36s-36 16.1-36 36V741h-109c-19.9 0-36 16.1-36 36s16.1 36 36 36h109v108.8c0 19.9 16.1 36 36 36s36-16.1 36-36V813h109c19.9 0 36-16.1 36-36s-16.1-36-36-36z" p-id="3624" fill="#ffffff"></path></svg>