<svg preserveAspectRatio="xMidYMid" version="1.1" viewBox="0 0 256 256" xmlns="http://www.w3.org/2000/svg">
<g transform="matrix(.86441 0 0 .86441 17.356 17.356)" fill-rule="evenodd">
<path d="m127.59 0c71.249 0 128.41 57.165 128.41 127.59 0 71.249-57.165 128.41-128.41 128.41-70.421 0-127.59-57.165-127.59-128.41 0-70.421 57.165-127.59 127.59-127.59zm31.482 152.44c-14.084 18.227-39.767 21.54-57.165 7.4563-17.398-13.256-19.883-38.939-5.7994-57.165 14.913-17.398 40.595-20.712 57.994-7.4563 17.398 14.084 19.883 39.767 4.9709 57.165zm-67.935 83.676 48.88-47.223c-18.227 4.1424-37.282.82848-52.194-11.599-17.398-13.256-24.854-35.625-22.369-56.337l-43.909 48.052s-5.7994-10.77-7.4563-30.654l77.049-60.479c23.197-16.57 54.68-17.398 77.049 0 24.854 19.883 29.825 56.337 11.599 83.676l-56.337 80.362c-8.2848 0-24.854-2.4854-32.311-5.7994z" fill="#00b3e0"/>
</g>
</svg>
