<svg class="header__svg-logo header__svg-logo" width="300" height="300" preserveAspectRatio="xMinYMin meet" version="1.1" viewBox="0 0 681.57088 842.22857" xmlns="http://www.w3.org/2000/svg"><defs><style>.logo__text__fill{fill:#253858;} .header__svg-logo__icon--path--3{fill:#2684ff;} .header__svg-logo__icon--path--4{fill:url(#logo-gradient);}</style><linearGradient id="logo-gradient" x1="64.01" x2="32.99" y1="65.26" y2="89.48" gradientUnits="userSpaceOnUse"><stop stop-color="#0052cc" style="stop-color:#1565c0" offset=".18"/><stop stop-color="#2684ff" style="stop-color:#1e88e5" offset="1"/></linearGradient></defs><title>Bitbucket logo</title><g class="header__svg-logo__icon" transform="matrix(11.235 0 0 11.235 70.626 -357.72)"><g transform="matrix(.96468 0 0 .96468 1.1019 2.4485)"><path class="header__svg-logo__icon--path--3" d="m2 41.25a2 2 0 0 0 -2 2.32l8.49 51.54a2.72 2.72 0 0 0 2.66 2.27h40.73a2 2 0 0 0 2 -1.68l8.51-52.11a2 2 0 0 0 -2 -2.32zm35.75 37.25h-13l-3.52-18.38h19.67z" style="fill:#1e88e5"/><path class="header__svg-logo__icon--path--4" d="m59.67 60.12h-18.77l-3.15 18.38h-13l-15.35 18.23a2.71 2.71 0 0 0 1.75 .66h40.74a2 2 0 0 0 2 -1.68z" style="fill:url(#logo-gradient)"/></g></g></svg>
