<?xml version="1.0" encoding="UTF-8"?>
<svg width="300" height="300" version="1.1" xmlns="http://www.w3.org/2000/svg">
 <g transform="translate(0 -822.52)" fill-rule="evenodd">
  <rect transform="matrix(-.98339 .18149 .60192 .79856 0 0)" x="405.55" y="967.22" width="107.25" height="156.59" rx="12.306" ry="12.31" color="#000000" fill="#2d9bbd"/>
  <rect transform="matrix(-.98528 .17093 -.59175 .80612 0 0)" x="-1156.5" y="1461.9" width="108.34" height="123.15" rx="10.69" ry="12.31" color="#000000" fill="#4a4bcd"/>
  <path transform="matrix(.94498 -1.0735 -.88722 -1.3202 147.7 1438.8)" d="m133.65 250.09c-2.223-0.85461-25.153 2.843-26.449 0.84496-1.2961-1.998 11.428-21.429 11.554-23.807s-10.476-23.043-8.9768-24.893 23.911 4.2466 26.212 3.6314c2.3008-0.61525 18.678-17.084 20.901-16.23 2.223 0.85462 3.3502 24.053 4.6463 26.051 1.2961 1.998 22.02 12.484 21.894 14.863-0.12584 2.3783-21.841 10.619-23.34 12.469-1.4997 1.8501-5.0688 24.8-7.3696 25.416-2.3008 0.61525-16.849-17.49-19.072-18.345z" color="#000000" fill="#2e5bc1"/>
 </g>
</svg>
