<svg width="300" height="300" version="1.0" viewBox="0 0 300 702.63158" xmlns="http://www.w3.org/2000/svg"><g transform="translate(96.655 615.19)" style="fill:#b03931"><g transform="matrix(.93181 0 0 .97555 4.5775 -18.777)"><ellipse cx="232.63" cy="-345.75" rx="110.59" ry="103.55" style="fill:#f44336;stroke-width:9.3142"/><ellipse cx="384.64" cy="-459.86" rx="39.614" ry="37.967" style="fill:#f44336;stroke-width:3.3755"/><path d="m-216.87-484.86c-7.9756 1.1096-14.226 8.2737-14.252 16.944l.5037 442.73c0 6.705 1.6117 20.532 18.373 20.532l150.67-.6763c43.068-.086412 71.913-.91532 89.092-3.3594.10007.0007877.30755.0004651.40763-.0006838 16.44-2.5697 33.854-7.3046 52.789-14.223 32.917-11.582 62.105-28.693 87.203-51.549 24.573-22.141 43.614-48.355 56.998-77.844 13.383-29.488 20.129-60.667 20.079-92.991-.0708-44.993-12.166-87.123-36.433-125.03-24.27-37.904-57.397-66.932-98.165-86.156-41.445-19.773-95.485-28.783-162.53-28.648l-162.7.26766c-.69945.004-1.3629-.0909-2.0388.003zm87.569 91.1 70.135-.11539c32.777-.0653 56.096 1.0546 69.323 3.0988 13.409 2.0729 28.094 6.4474 43.646 13.208 15.414 6.6091 28.851 14.704 40.397 24.779 31.765 27.792 46.739 60.684 46.807 104.23.0701 44.591-14.401 79.324-45.342 108.45-9.5182 8.841-20.102 16.337-31.78 22.542-11.037 5.7843-25.434 10.77-43.613 15.065-17.145 3.8595-43.175 6.0558-77.06 6.124l-72.174.11869z" style="fill:#f44336;stroke-width:10.44"/></g></g></svg>
