<svg width="300" height="300" enable-background="new 0 0 436.505 152.503" overflow="visible" version="1.0" viewBox="0 0 300 299.99999" xml:space="preserve" xmlns="http://www.w3.org/2000/svg"><g transform="translate(0 147.5)"><g><g transform="matrix(.99836 0 0 .99836 52.981 -18.25)" style="fill:#43a047"><path d="m88.273-104.42h40.946v189.53c-21.005 3.9879-36.426 5.5831-53.176 5.5831-49.987-.001716-76.043-22.598-76.043-65.939 0-41.744 27.653-68.861 70.458-68.861 6.6465 0 11.698.53001 17.814 2.1252zm0 95.401c-4.7855-1.5935-8.7734-2.1252-13.825-2.1252-20.739 0-32.704 12.763-32.704 35.095 0 21.804 11.434 33.768 32.438 33.768 4.5179 0 8.2417-.26586 14.091-1.0617z" style="fill:#43a047;stroke-width:1.7152"/><path d="m194.36-41.187v94.918c0 32.704-2.3928 48.39-9.571 61.951-6.6482 13.031-15.423 21.271-33.502 30.312l-38.022-18.08c18.08-8.5076 26.854-15.95 32.437-27.387 5.8507-11.698 7.7134-25.258 7.7134-60.886v-80.827zm-40.944-63.014h40.944v42.009h-40.944z" style="fill:#43a047;stroke-width:1.7152"/></g></g></g></svg>
