<?xml version="1.0" encoding="UTF-8"?>
<!-- Generator: Adobe Illustrator 15.1.0, SVG Export Plug-In . SVG Version: 6.00 Build 0)  -->
<svg width="300" height="300" version="1.1" viewBox="0 0 299.99999 300.00001" xml:space="preserve" xmlns="http://www.w3.org/2000/svg" xmlns:cc="http://creativecommons.org/ns#" xmlns:dc="http://purl.org/dc/elements/1.1/" xmlns:rdf="http://www.w3.org/1999/02/22-rdf-syntax-ns#"><metadata><rdf:RDF><cc:Work rdf:about=""><dc:format>image/svg+xml</dc:format><dc:type rdf:resource="http://purl.org/dc/dcmitype/StillImage"/><dc:title/></cc:Work></rdf:RDF></metadata><g transform="matrix(1.0344 0 0 1.0344 -2.8803 18.438)"><path d="m97.021 99.016 48.432-27.962c1.212-0.7 2.706-0.7 3.918 0l48.433 27.962c1.211 0.7 1.959 1.993 1.959 3.393v55.924c0 1.399-0.748 2.693-1.959 3.394l-48.433 27.962c-1.212 0.7-2.706 0.7-3.918 0l-48.432-27.962c-1.212-0.7-1.959-1.994-1.959-3.394v-55.924c1e-3 -1.4 0.748-2.693 1.959-3.393" fill="#7986cb"/><path d="m273.34 124.49-57.867-100.67c-2.102-3.64-5.985-6.325-10.188-6.325h-115.74c-4.204 0-8.088 2.685-10.19 6.325l-57.867 100.45c-2.102 3.641-2.102 8.236 0 11.877l57.867 99.847c2.102 3.64 5.986 5.501 10.19 5.501h115.74c4.203 0 8.087-1.805 10.188-5.446l57.867-100.01c2.104-3.639 2.104-7.907 1e-3 -11.547m-47.917 48.41c0 1.48-0.891 2.849-2.174 3.59l-73.71 42.527c-1.282 0.74-2.888 0.74-4.17 0l-73.767-42.527c-1.282-0.741-2.179-2.109-2.179-3.59v-85.055c0-1.481 0.884-2.849 2.167-3.59l73.707-42.527c1.282-0.741 2.886-0.741 4.168 0l73.772 42.527c1.283 0.741 2.186 2.109 2.186 3.59z" fill="#3f51b5"/></g></svg>
