<svg clip-rule="evenodd" stroke-linejoin="round" stroke-miterlimit="1.4142" version="1.1" viewBox="0 0 24 24" xml:space="preserve" xmlns="http://www.w3.org/2000/svg"><path d="m19 20h-15c-1.11 0-2-.9-2-2v-12c0-1.11.89-2 2-2h6l2 2h7c1.097 0 2 .903 2 2h-17v10l2.14-8h17.07l-2.28 8.5c-.23.87-1.01 1.5-1.93 1.5z" fill="#e57373" style="fill:#fbc02d"/><path d="m13.424 8.5428h9.3703a.58564 .58564 0 0 1 .58564 .58564v2.3426a.58564 .58564 0 0 1 -.58564 .58564h-9.3703a.58564 .58564 0 0 1 -.58564 -.58564v-2.3426a.58564 .58564 0 0 1 .58564 -.58564m0 4.6852h9.3703a.58564 .58564 0 0 1 .58564 .58564v2.3426a.58564 .58564 0 0 1 -.58564 .58564h-9.3703a.58564 .58564 0 0 1 -.58564 -.58564v-2.3426a.58564 .58564 0 0 1 .58564 -.58564m0 4.6852h9.3703a.58564 .58564 0 0 1 .58564 .58565v2.3426a.58564 .58564 0 0 1 -.58564 .58564h-9.3703a.58564 .58564 0 0 1 -.58564 -.58564v-2.3426a.58564 .58564 0 0 1 .58564 -.58565m2.9282-7.0277h.58564v-1.1713h-.58564v1.1713m0 4.6852h.58564v-1.1713h-.58564v1.1713m0 4.6852h.58564v-1.1713h-.58564v1.1713m-2.3426-10.542v1.1713h1.1713v-1.1713h-1.1713m0 4.6852v1.1713h1.1713v-1.1713h-1.1713m0 4.6852v1.1713h1.1713v-1.1713z" style="fill:#fffde7;stroke-width:.58564"/></svg>
