<svg clip-rule="evenodd" stroke-linejoin="round" stroke-miterlimit="1.4142" version="1.1" viewBox="0 0 24 24" xml:space="preserve" xmlns="http://www.w3.org/2000/svg"><path d="m19 20h-15c-1.11 0-2-.9-2-2v-12c0-1.11.89-2 2-2h6l2 2h7c1.097 0 2 .903 2 2h-17v10l2.14-8h17.07l-2.28 8.5c-.23.87-1.01 1.5-1.93 1.5z" fill="#ef5350"/><path d="m13.814 8.7101a1.3544 1.2753 0 0 0 -1.355 1.2758v10.201a1.3544 1.2753 0 0 0 1.355 1.2777h8.1259a1.3544 1.2753 0 0 0 1.355 -1.2777v-10.201a1.3544 1.2753 0 0 0 -1.355 -1.2758zm0 4.4644h8.1259v3.1887h-8.1259zm0 4.4626h8.126v2.5498h-8.1259v-2.5497z" fill="#ffcdd2" stroke-width=".65714"/></svg>
