<?xml version="1.0" encoding="UTF-8"?>
<svg clip-rule="evenodd" stroke-linejoin="round" stroke-miterlimit="1.4142" version="1.1" viewBox="0 0 24 24" xml:space="preserve" xmlns="http://www.w3.org/2000/svg"><path d="m19 20h-15c-1.11 0-2-0.9-2-2v-12c0-1.11 0.89-2 2-2h6l2 2h7c1.097 0 2 0.903 2 2h-17v10l2.14-8h17.07l-2.28 8.5c-0.23 0.87-1.01 1.5-1.93 1.5z" fill="#00bcd4"/><path d="m16.473 13.928c0.72335 0 1.3133 0.58993 1.3133 1.3273 0 0.7023-0.58992 1.2992-1.3133 1.2992-0.72335 0-1.3133-0.59695-1.3133-1.2992 0-0.73741 0.58992-1.3273 1.3133-1.3273m-3.2516 6.9457c0.44244 0.26687 1.4116-0.14046 2.5282-1.1939-0.36518-0.41436-0.72335-0.86382-1.0604-1.3344-0.57587-0.05619-1.1447-0.14046-1.6855-0.25283-0.35816 1.5029-0.22473 2.5353 0.21771 2.7811m0.49862-4.0312-0.20366-0.35817c-0.07725 0.20367-0.1545 0.40733-0.20366 0.60398 0.18962 0.04213 0.4003 0.07725 0.618 0.11237-0.07023-0.11939-0.14046-0.23878-0.21068-0.35817m4.5929-0.53374 0.56884-1.0534-0.56884-1.0534c-0.21068-0.37222-0.43541-0.7023-0.63908-1.0324-0.37923-0.02107-0.77953-0.02107-1.2009-0.02107-0.42137 0-0.82167 0-1.2009 0.02107-0.20366 0.33008-0.42839 0.66016-0.63907 1.0324l-0.56885 1.0534 0.56885 1.0534c0.21068 0.37222 0.43541 0.7023 0.63907 1.0324 0.37923 0.02107 0.77953 0.02107 1.2009 0.02107 0.42137 0 0.82167 0 1.2009-0.02107 0.20366-0.33008 0.42839-0.66016 0.63908-1.0324m-1.84-4.7194c-0.13343 0.1545-0.27389 0.31603-0.41434 0.50565h0.41434 0.41434c-0.14046-0.18962-0.28091-0.35115-0.41434-0.50565m0 7.332c0.13343-0.1545 0.27389-0.31603 0.41434-0.50565h-0.41434-0.41434c0.14046 0.18962 0.28091 0.35115 0.41434 0.50565m3.2445-9.2843c-0.43541-0.26687-1.4046 0.14046-2.5212 1.1939 0.36519 0.41435 0.72335 0.86382 1.0604 1.3344 0.57587 0.05619 1.1447 0.14046 1.6855 0.25283 0.35816-1.5029 0.22473-2.5353-0.22473-2.7811m-0.4916 4.0312 0.20366 0.35817c0.07725-0.20367 0.1545-0.40733 0.20366-0.60397-0.18962-0.04214-0.4003-0.07725-0.618-0.11237 0.07023 0.11939 0.14046 0.23878 0.21068 0.35817m1.0183-4.9512c1.0324 0.58993 1.1447 2.142 0.7093 3.9539 1.7838 0.52672 3.069 1.3976 3.069 2.5844 0 1.1869-1.2852 2.0577-3.069 2.5844 0.43541 1.8119 0.32305 3.364-0.7093 3.9539-1.0253 0.58993-2.4229-0.08428-3.7712-1.3695-1.3484 1.2852-2.7459 1.9594-3.7783 1.3695-1.0253-0.58993-1.1377-2.142-0.70228-3.9539-1.7838-0.52672-3.069-1.3976-3.069-2.5844 0-1.1869 1.2852-2.0577 3.069-2.5844-0.43541-1.8119-0.32305-3.364 0.70228-3.9539 1.0324-0.58993 2.4299 0.084275 3.7783 1.3695 1.3484-1.2852 2.7459-1.9594 3.7712-1.3695m-0.20366 6.5384c0.23877 0.52672 0.44946 1.0534 0.62503 1.5872 1.4748-0.44245 2.3035-1.0745 2.3035-1.5872 0-0.51268-0.82869-1.1447-2.3035-1.5872-0.17557 0.53374-0.38625 1.0605-0.62503 1.5872m-7.1352 0c-0.23877-0.52672-0.44946-1.0534-0.62503-1.5872-1.4748 0.44245-2.3035 1.0745-2.3035 1.5872 0 0.51268 0.82869 1.1447 2.3035 1.5872 0.17557-0.53374 0.38625-1.0605 0.62503-1.5872m6.3205 1.5872c-0.07023 0.11939-0.14046 0.23878-0.21068 0.35817 0.21771-0.03512 0.42839-0.07023 0.618-0.11237-0.04916-0.19664-0.12641-0.40031-0.20366-0.60398l-0.20366 0.35817m-2.0296 2.8373c1.1166 1.0534 2.0858 1.4608 2.5212 1.1939 0.44946-0.2458 0.58289-1.2782 0.22473-2.7811-0.54076 0.11237-1.1096 0.19664-1.6855 0.25283-0.33709 0.47054-0.69526 0.92001-1.0604 1.3344m-3.4763-6.0117c0.07023-0.11939 0.14046-0.23878 0.21068-0.35817-0.21771 0.03512-0.42839 0.07023-0.618 0.11237 0.04916 0.19664 0.12641 0.40031 0.20366 0.60397l0.20366-0.35817m2.0296-2.8373c-1.1166-1.0534-2.0858-1.4608-2.5282-1.1939-0.44244 0.2458-0.57587 1.2782-0.21771 2.7811 0.54076-0.11237 1.1096-0.19664 1.6855-0.25283 0.33709-0.47054 0.69526-0.92001 1.0604-1.3344z" fill="#b2ebf2" stroke-width=".70229"/></svg>
