<svg style="clip-rule:evenodd;fill-rule:evenodd;stroke-linejoin:round;stroke-miterlimit:1.4142" version="1.1" viewBox="0 0 24 24" xml:space="preserve" xmlns="http://www.w3.org/2000/svg"><path d="m10 4h-6c-1.11 0-2 .89-2 2v12c0 1.097.903 2 2 2h16c1.097 0 2-.903 2-2v-10c0-1.11-.9-2-2-2h-8l-2-2z" style="fill-rule:nonzero;fill:rgb(97,97,97)"/><g transform="matrix(.93781 0 0 .93781 6.3843 4.1861)"><g transform="matrix(.061679 0 0 .061679 2.5631 2.568)"><path d="m259.79 152.92c0 58.585-48.208 106.79-106.79 106.79s-106.79-48.208-106.79-106.79 48.208-106.79 106.79-106.79h.006c58.581 0 106.79 48.206 106.79 106.79v.006" style="fill-rule:nonzero;fill:rgb(132,137,146)"/></g><g transform="matrix(.061679 0 0 .061679 2.5631 2.568)"><path d="m154.8 112.89l27.639 68.209-41.746-32.881 14.107-35.328zm49.096 83.922l-42.51-102.3c-1-2.752-3.658-4.574-6.586-4.513-2.973-.068-5.686 1.742-6.765 4.513l-46.657 112.21h15.961l18.468-46.268 55.117 44.53c2.219 1.794 3.816 2.605 5.897 2.605.06.001.119.002.179.002 4.182 0 7.624-3.442 7.624-7.625v-.006c-.072-1.082-.318-2.145-.728-3.149" style="fill-rule:nonzero;fill:white"/></g></g></svg>
