<?xml version="1.0" encoding="UTF-8"?>
<svg clip-rule="evenodd" stroke-linejoin="round" stroke-miterlimit="1.4142" version="1.1" viewBox="0 0 24 24" xml:space="preserve" xmlns="http://www.w3.org/2000/svg"><path d="m19 20h-15c-1.11 0-2-0.9-2-2v-12c0-1.11 0.89-2 2-2h6l2 2h7c1.097 0 2 0.903 2 2h-17v10l2.14-8h17.07l-2.28 8.5c-0.23 0.87-1.01 1.5-1.93 1.5z" fill="#ffca28"/><path d="m17.762 8.8583c-3.1558 0-5.7119 1.278-5.7119 2.8559 0 1.5779 2.5561 2.8559 5.7119 2.8559 3.1558 0 5.7119-1.278 5.7119-2.8559 0-1.5779-2.5561-2.8559-5.7119-2.8559m-5.7119 4.2839v2.1419c0 1.5779 2.5561 2.8559 5.7119 2.8559 3.1558 0 5.7119-1.278 5.7119-2.8559v-2.1419c0 1.5779-2.5561 2.8559-5.7119 2.8559-3.1558 0-5.7119-1.278-5.7119-2.8559m0 3.5699v2.1419c0 1.5779 2.5561 2.8559 5.7119 2.8559 3.1558 0 5.7119-1.278 5.7119-2.8559v-2.1419c0 1.5779-2.5561 2.8559-5.7119 2.8559-3.1558 0-5.7119-1.278-5.7119-2.8559z" fill="#ffecb3" stroke-width=".71398"/></svg>
