<svg version="1.1" viewBox="0 0 300 300" xmlns="http://www.w3.org/2000/svg">
<g transform="translate(0,3)">
<path d="m75.766 30.97c-12.149-.30417-27.153 6.049-27.153 6.049l49.613 100.64-26.308 112.47c24.012 20.305 50.496 10.593 50.496 10.593l12.187-87.03c1.5394 1.458 3.1724 2.7939 4.8179 4.028 5.2886 3.7461 11.018 6.609 16.746 8.8126 5.7293 2.2036 11.681 3.9666 17.631 5.2887 3.9664.88142 7.7102 1.5428 11.676 1.9835-1.7628 3.9664-2.8637 8.1521-2.6434 12.78 0 .44072.22108.88073.66182 1.1011h.21878c4.1867 2.2036 8.5936 3.9682 13.441 5.0701 4.6275.88141 9.6966 1.3228 14.545.66182 5.0682-.66106 10.136-2.6452 14.103-5.9506 3.9664-3.3054 6.8311-7.7128 8.5939-12.34l.22069-.22062v-.21864l.66182-5.9485v-.22256c2.2036-1.3221 4.4068-2.6435 6.6104-4.4062 2.6442-2.2036 5.0682-4.6285 6.831-7.7134 1.7628-3.085 2.8637-6.8314 2.6433-10.577-.22031-3.5257-1.544-7.0493-3.0866-10.134-1.5425-3.085-3.5244-5.9516-5.728-8.5958-4.4072-5.0682-9.6956-9.2536-15.425-12.559-5.5089-3.5257-11.679-6.3921-17.849-8.3753l-2.4247-.66182-1.9796-.65986c-1.3222-.44071-2.4261-1.1016-3.5278-1.5423-2.2036-1.3222-3.7477-2.6454-4.8494-4.4082-2.2036-3.3054-2.4234-8.3715-1.3216-13.66.22031-1.3221.66235-2.6449 1.1031-3.967.44067-1.3222.88095-2.6451 1.3216-4.1876.31637-1.4241.51346-2.8529.60274-4.4397l29.451-25.77c-2.2953-8.475-27.722-17.304-27.722-17.304l-75.569 64.269-43.61-82.277c-1.567-.35311-3.2458-.5317-4.9815-.57516zm108.6 73.763c-.45214 2.3552-.65194 4.8357-.65194 7.3195.22031 3.7461 1.3225 7.9361 3.7464 11.462 2.424 3.5257 5.7279 6.169 9.0331 7.7115 1.7628.88139 3.5276 1.5428 5.0702 1.9835l2.6453.65986 2.2022.44122c5.7293 1.5425 11.237 3.7458 16.305 6.6104 5.0681 2.8646 9.9162 6.3904 13.883 10.357 3.9664 3.9664 7.0521 9.035 7.4929 14.103.22031 3.5257-.22184 6.1698-1.3237 8.3733-1.1018 2.4239-2.8643 4.6272-4.8474 6.6104-.88145.88142-1.9826 1.7617-2.864 2.4228 0-1.9832-.21918-3.9654-.65985-5.9485-.2203-1.1018-.44173-1.9828-.88242-3.0846-.44071-.88142-.87978-1.9823-1.9815-2.6434-.22031 0-.44319-.001-.44319.21863-1.3221 3.3054-3.5247 6.1714-5.9485 8.1546-2.4239 1.9832-5.5089 2.8642-8.5939 3.0846-3.085.22035-6.3917-.44027-9.6969-1.3217-3.3054-.88143-6.6083-1.9847-9.9136-3.0865l-.44322-.22061c-.66106-.22035-1.5389.002-1.9796.44318-1.7628 2.2036-3.0864 4.1843-4.6288 6.3878-1.1018 1.7629-1.9825 3.3073-2.864 5.07-3.9664-1.5425-7.7141-2.8658-11.68-4.4082-5.509-2.2036-11.019-4.4053-16.087-7.0496-5.2886-2.4239-10.354-5.2906-14.761-8.5958-3.1776-2.3832-6.1139-4.8866-8.255-7.7469l2.4247-17.318z" fill="#f4511e" stroke-width="1.0085"/>
</g>
</svg>
