<?xml version="1.0" encoding="UTF-8"?>
<svg width="300" height="300" version="1.1" viewBox="0 0 300 300" xmlns="http://www.w3.org/2000/svg">
 <title>nodemon</title>
 <g transform="matrix(.85272 0 0 .85272 35.757 18.851)" fill="none">
  <path d="m133.82 2.0745c-2.4914 0-4.9843 0.64466-7.2173 1.9332l-119.4 68.973c-4.462 2.58-7.2127 7.3392-7.2127 12.492v137.95c0 5.15 2.75 9.9104 7.215 12.485l119.4 68.916h2e-3c4.458 2.577 9.956 2.577 14.414 0l119.43-68.916c4.466-2.575 7.215-7.3342 7.215-12.492v-137.94c0-5.154-2.7501-9.9113-7.2081-12.492l-119.43-68.973c-2.2335-1.2885-4.7236-1.9332-7.215-1.9332zm-78.062 59s13.825 38.736 41.604 37.449l32.532-18.718c1.244-0.727 2.6168-1.1033 4.0038-1.1613h0.75127c1.39 0.057 2.7653 0.43327 3.9923 1.1613l32.529 18.718c27.782 1.283 41.602-37.449 41.602-37.449 6.137 27.153 1.243 45.315-6.947 57.395l5.3254 3.0646h2e-3c2.722 1.557 4.3787 4.4512 4.3817 7.6112l-0.13972 112.36c0 1.568-0.84095 3.0209-2.176 3.7839-1.34 0.81-3.0274 0.81-4.3794 0l-43.084-24.678c-2.71-1.598-4.3886-4.4768-4.3886-7.5998v-52.493c0-3.129-1.6657-6.0315-4.3817-7.5815l-18.344-10.566c-1.329-0.795-2.8635-1.1842-4.3565-1.1842-1.527 0-3.0216 0.38817-4.3886 1.1842l-18.351 10.566c-2.715 1.551-4.3725 4.4538-4.3725 7.5838v52.493c0 3.123-1.657 5.9798-4.384 7.5998l-43.095 24.675c-1.342 0.81199-3.0056 0.81199-4.3496 0-1.376-0.763-2.1874-2.2136-2.1874-3.7816l-0.16004-112.36c0-3.158 1.6813-6.0522 4.3863-7.6112l5.3254-3.0669c-8.188-12.081-13.089-30.243-6.9493-57.395z" fill="#8bc34a"/>
 </g>
</svg>
