<svg width="150" height="150" enable-background="new 0 0 165.543 144.277" version="1.1" viewBox="0 0 150 150.00001" xml:space="preserve" xmlns="http://www.w3.org/2000/svg"><defs><linearGradient id="SVGID_1_" x1="-696.73" x2="-696.73" y1="97.7" y2="143" gradientTransform="matrix(.78253 0 0 .78253 603.4 19.551)" gradientUnits="userSpaceOnUse"><stop stop-color="#F29100" offset="0"/><stop stop-color="#EC670F" offset="1"/></linearGradient><linearGradient id="SVGID_2_" x1="-666.97" x2="-666.97" y1="142.12" y2="142.12" gradientTransform="matrix(.78253 0 0 .78253 603.4 19.551)" gradientUnits="userSpaceOnUse"><stop stop-color="#F29100" offset="0"/><stop stop-color="#EC670F" offset="1"/></linearGradient><linearGradient id="SVGID_3_" x1="-675.23" x2="-675.23" y1="-1.2803" y2="142.97" gradientTransform="matrix(.78253 0 0 .78253 603.4 19.551)" gradientUnits="userSpaceOnUse"><stop stop-color="#F29100" offset="0"/><stop stop-color="#EC670F" offset="1"/></linearGradient><linearGradient id="SVGID_4_" x1="-735.14" x2="-735.14" y1="90.833" y2="141.97" gradientTransform="matrix(.78253 0 0 .78253 603.4 19.551)" gradientUnits="userSpaceOnUse"><stop stop-color="#F29100" offset="0"/><stop stop-color="#EC670F" offset="1"/></linearGradient></defs><g transform="translate(.0017105 -.00098264)" stroke-width=".78253"><path d="m75.109 95.164.018-.04774c-.02661-.12052-.036-.1479-.018.04774z" fill="none"/><path d="m74.571 123.44c-.35919-.76532-1.4501-2.7577-1.9978-3.3963-1.1895-1.3921-1.4673-1.497-1.8171-3.2546-.60804-3.0605-2.2178-8.611-4.1146-12.441-.97972-1.9767-2.609-3.6372-4.1005-5.0709-1.3022-1.2575-4.2367-3.3736-4.7485-3.2687-4.7931.95703-6.2799 5.6578-8.5341 9.3822-1.2474 2.0596-2.5691 3.8118-3.552 6.0029-.90777 2.0151-.82714 4.2461-2.3813 5.9763-1.5941 1.7764-2.6301 3.6654-3.4111 5.9607-.1479.43666-.56891 5.0216-1.0259 6.1023l7.1235-.50161c6.6384.45231 4.7211 2.9964 15.082 2.4423l16.36-.50631c-.50709-1.4994-1.2059-3.2359-1.4751-3.8-.45622-.95002-1.0298-2.8093-1.407-3.6264z" fill="url(#SVGID_1_)"/><path d="m81.462 130.76" fill="url(#SVGID_2_)"/><path d="m95.308 89.565c-1.2575.90777-3.7155 3.091-9.0617 3.9167-2.3993.37093-4.6436.40145-7.1071.27859-1.2059-.05791-2.3429-.11973-3.552-.13538-.71212-.0055-3.1012-.08138-2.9831.14712l-.26606.6636c.04147.21833.12834.7638.1526.89604.09782.53605.12521.96251.14556 1.4556.03678 1.0134-.08373 2.0698-.03208 3.0926.10721 2.1215.89445 4.0552.9938 6.1954.10878 2.3828 1.2873 4.9042 2.4274 6.8504.43275.74106 1.0916.82561 1.3788 1.738.33649 1.0455.018 2.1543.18155 3.2687.64169 4.3204 1.886 8.8363 3.8313 12.736.01408.0329.02895.0681.04617.0978 2.4024-.4038 4.8095-1.2677 7.9311-1.7294 5.7235-.84907 13.684-.41162 18.796-.89056 12.938-1.216 19.96 5.3064 31.58 2.6332v-95.909c0-9.0137-7.3043-16.321-16.32-16.321h-96.906c-9.0122 0-16.32 7.3082-16.32 16.321v35.611c2.3351-.84435 5.6938-5.8128 6.7463-7.021 1.8413-2.1128 2.1755-4.808 3.0926-6.5053 2.0886-3.8658 2.4478-6.5241 7.1955-6.5241 2.213 0 3.0918.51022 4.5889 2.519 1.0415 1.3969 2.8406 3.9776 3.6827 5.7032.97195 1.9908 2.5558 4.6843 3.2522 5.2282.5157.4038 1.0275.70664 1.5048.88584.77004.28876 1.407-.24102 1.9219-.65108.65734-.52353.94058-1.5901 1.5494-3.0128.87724-2.0526 1.8335-4.5122 2.3773-5.3706.94142-1.4837 1.2623-3.2445 2.2788-4.0974 1.4993-1.2575 3.4557-1.346 3.9941-1.4524 3.012-.59474 4.3815 1.4516 5.8652 2.7749.97112.86704 2.2983 2.6137 3.2405 4.9543.73638 1.828 1.6738 3.5191 2.066 4.5748.37875 1.0189 1.3139 2.652 1.8679 4.61.50318 1.7779 1.85 3.1404 2.3617 3.9855 0 0 .78336 2.1942 5.5467 4.1999 1.0329.43509 3.1208 1.1425 4.3666 1.5956 2.0698.75202 4.0747.65421 6.6274.34823 1.8202 0 2.8062-2.6356 3.6334-4.7462.4891-1.2474.95787-4.8221 1.2771-5.837.3091-.98756-.41397-1.7514.2019-2.6169.71994-1.0102 1.148-1.0651 1.5635-2.3821.89292-2.8203 6.0538-2.9628 8.9544-2.9628 2.4181 0 2.1105 2.3477 6.2126 1.5447 2.3492-.46092 4.6131.30285 7.1071.96335 2.1004.55717 4.0747 1.1918 5.258 2.5769.76532.89681 2.6654 5.3902.72934 5.5819.18624.22772.32241.63856.67064.86392-.43118 1.695-2.3078.48753-3.3501.26998-1.4047-.29111-2.3962.04382-3.7703.65186-2.3492 1.0463-5.7854.92422-7.8314 2.6286-1.7365 1.4446-1.7333 4.6694-2.5432 6.4764-.00076-.000762-2.2491 5.7862-7.1579 9.3259z" fill="url(#SVGID_3_)"/><path d="m41.021 97.783c-1.1174-.11347-2.1551-.24102-3.2405-.46014-2.0268-.40849-4.2414-.80681-6.2377-1.2849-1.2122-.29345-5.2501-1.7232-6.1273-2.1262-2.0573-.94843-3.4236-3.5254-5.0318-3.2601-1.0267.16747-2.0268.51961-2.6654 1.5549-.52117.84435-.69803 2.296-1.0588 3.2695-.41866 1.13-1.1417 2.1849-1.7748 3.2617-1.1644 1.9751-3.2601 3.7617-4.1631 5.686-.18155.39597-.34276.83887-.49379 1.3006v21.999c1.0533.17999 2.1551.40145 3.3884.7309 9.1021 2.4283 11.323 2.6341 20.25 1.6129l.83734-.11113c.68316-1.4211 1.2106-6.2635 1.6535-7.7621.3451-1.1487.8193-2.0644.99928-3.2374.16981-1.1143-.01565-2.1763-.11112-3.1889-.25041-2.537 1.8476-3.4432 2.8492-5.6218.90305-1.9712 1.4242-4.214 2.1716-6.2291.71681-1.9337 1.8359-4.6663 3.7445-5.6399-.23164-.26998-3.9871-.39441-4.9895-.49457z" fill="url(#SVGID_4_)"/></g></svg>
