<?xml version="1.0" encoding="UTF-8"?>
<svg width="300" height="300" enable-background="new 0 0 370 160" version="1.1" viewBox="0 0 300 300" xmlns="http://www.w3.org/2000/svg">
 <g transform="translate(0,140)">
  <path d="m105.46 69.517c-7.8746 0-13.452-7.5213-13.452-15.37v-0.32702c0-7.8484 5.5778-13.735 13.452-13.735h164.05c1.4765-4.9052 2.6249-11.446 3.2811-17.986h-137.81c-7.8746 0-14.273-6.0498-14.273-13.898 0-7.8484 6.3981-13.898 14.273-13.898h137.31c-0.82027-6.5403-1.9686-13.081-3.7732-17.986h-104.01c-7.8746 0-14.273-6.0498-14.273-13.898 0-7.8484 6.3981-13.898 14.273-13.898h91.87c-21.327-37.607-60.864-61.315-106.14-61.315-67.918 0-123.04 54.448-123.04 122.3 0 67.856 55.122 123.28 123.04 123.28 46.591 0 87.112-25.507 107.95-63.114h-152.73z" fill="#0277bd" stroke-width="1.6378"/>
 </g>
</svg>
