<svg width="200" height="200" enable-background="new 0 0 393.3 241.4" version="1.1" viewBox="0 0 200.00001 200.00001" xml:space="preserve" xmlns="http://www.w3.org/2000/svg"><path d="m127.22 155.91c14.639-17.51 16.362-35.594 5.0233-69.178-7.1762-21.241-19.089-37.603-10.334-50.807 9.329-14.065 29.135-.43057 12.63 18.371l3.301 2.2964c19.806 2.2964 29.566-24.83 14.783-32.58-39.038-20.38-73.197 18.802-58.127 64.155 6.4586 19.232 15.501 39.613 8.1808 55.831-6.315 13.922-18.515 22.103-26.695 22.39-17.079.86114-5.7409-38.321 13.922-48.08 1.7223-.86114 4.1622-2.0093 1.8658-4.8798-24.255-2.727-38.464 8.4679-46.645 24.112-23.825 45.497 45.21 62.289 82.096 18.371z" style="fill:#c0ca33;stroke-width:1.4352"/></svg>
