<?xml version="1.0" standalone="no"?><!-- Generator: Gravit.io --><svg xmlns="http://www.w3.org/2000/svg" xmlns:xlink="http://www.w3.org/1999/xlink" style="isolation:isolate" viewBox="0 0 24 24" width="24" height="24"><defs><clipPath id="_clipPath_00nNF19Pc5lxW8KxK5tS9TPz49LrTcL1"><rect width="24" height="24"/></clipPath></defs><g clip-path="url(#_clipPath_00nNF19Pc5lxW8KxK5tS9TPz49LrTcL1)"><path d=" M 11.232 13.667 L 6.87 12.252 C 6.75 12.213 6.651 12.078 6.649 11.951 L 6.607 8.599 C 6.606 8.472 6.702 8.338 6.823 8.299 L 17.102 5.011 C 17.224 4.972 17.322 5.043 17.322 5.171 L 17.322 8.522 C 17.322 8.649 17.224 8.785 17.103 8.825 L 12.862 10.239 L 17.173 11.585 C 17.295 11.623 17.393 11.757 17.393 11.884 L 17.393 15.188 C 17.393 15.315 17.296 15.451 17.176 15.492 L 6.87 18.988 C 6.75 19.03 6.652 18.959 6.651 18.833 L 6.63 15.384 C 6.629 15.257 6.727 15.123 6.847 15.084 L 11.232 13.667 Z " fill-rule="evenodd" fill="#FFB74D"/></g></svg>