<svg clip-rule="evenodd" fill-rule="evenodd" stroke-linejoin="round" stroke-miterlimit="1.414" version="1.1" viewBox="0 0 24 24" xmlns="http://www.w3.org/2000/svg"><path d="M10 4H4c-1.11 0-2 .89-2 2v12c0 1.097.903 2 2 2h16c1.097 0 2-.903 2-2V8a2 2 0 0 0-2-2h-8l-2-2z" fill="#4DD0E1" fill-rule="nonzero" style="fill:#8d6e63"/><g transform="matrix(.64045 0 0 .64045 10.292 7.29)" style="fill:#d7ccc8"><path d="m3 17.25v3.75h3.75l11.06-11.06-3.75-3.75zm17.71-10.21c.39-.39.39-1.02 0-1.41l-2.34-2.34c-.39-.39-1.02-.39-1.41 0l-1.83 1.83 3.75 3.75z" style="fill:#d7ccc8"/></g></svg>
