<?xml version="1.0" encoding="UTF-8"?>
<svg clip-rule="evenodd" fill-rule="evenodd" stroke-linejoin="round" stroke-miterlimit="1.4142" version="1.1" viewBox="0 0 24 24" xml:space="preserve" xmlns="http://www.w3.org/2000/svg"><path d="m10 4h-6c-1.11 0-2 0.89-2 2v12c0 1.097 0.903 2 2 2h16c1.097 0 2-0.903 2-2v-10c0-1.11-0.9-2-2-2h-8l-2-2z" fill="#00bcd4" fill-rule="nonzero"/><path d="m17.655 8.3902-6.1518 2.1924l0.9325 8.1426 5.2191 2.8879 5.2191-2.8879 0.9325-8.1426zm-1.2783 2.0667c0.23421-0.0042 0.48719 0.07094 0.76877 0.22265 0.12391 0.06679 0.4977 0.16133 0.83032 0.20955 1.1822 0.17136 2.5855 1.0743 3.0293 1.9501 0.30541 0.60268 0.24295 0.92743-0.22527 1.1696-0.40376 0.20879-1.2299 0.10778-2.4295-0.2973l-1.0124-0.34182-0.36016 0.13751c-0.52185 0.1993-1.0437 0.69397-1.2573 1.1905-0.15405 0.3581-0.17749 0.52641-0.14931 1.1158 0.02824 0.59039 0.07089 0.76096 0.28027 1.1316 0.23837 0.42191 0.78554 0.96025 0.88012 0.86572 0.02546-0.02546-0.03093-0.19658-0.12442-0.37981-0.09348-0.18323-0.14783-0.36782-0.1218-0.40993 0.02602-0.04211 0.27242 0.11441 0.54744 0.34707 0.61162 0.51739 1.3262 0.84826 1.9816 0.91676 0.53813 0.05625 0.6611-0.04392 0.25801-0.21086-0.12985-0.05378-0.2988-0.16642-0.37457-0.25015-0.15664-0.17309-0.16554-0.16815 0.50422-0.31825 0.41693-0.09343 1.2409-0.53078 1.29-0.68497 0.01563-0.04908-0.11829-0.06986-0.3379-0.05237-0.1997 0.01591-0.36278-0.0047-0.36278-0.04586 0-0.0409 0.16338-0.24375 0.36278-0.45184 0.74818-0.78084 1.0035-1.3646 1.0831-2.474l0.05501-0.76619 0.1755 0.3641c0.19408 0.40162 0.22987 0.98095 0.09168 1.4786-0.11539 0.41557-0.0384 0.46151 0.17287 0.10347 0.26111-0.44255 0.34442-0.37215 0.29861 0.25146-0.04984 0.67834-0.28259 1.1865-0.80806 1.7615-0.42846 0.4688-0.3773 0.55261 0.14145 0.23313 0.49972-0.30779 0.56646-0.2595 0.30908 0.22396-0.4867 0.91422-1.5156 1.6895-2.584 1.9488-0.64757 0.15719-1.1068 0.18651-1.7 0.10871-1.551-0.20345-3.018-1.248-3.7182-2.6469-0.18202-0.36367-0.43941-0.80806-0.57234-0.98882-0.2744-0.37314-0.29794-0.54097-0.11263-0.8238 0.09242-0.14105 0.11405-0.28596 0.07596-0.50161-0.17636-0.99867-0.17061-1.0299 0.23051-1.4367 0.34857-0.35358 0.37064-0.40097 0.37064-0.81334 0-0.35771 0.03617-0.47492 0.19776-0.63652 0.10887-0.10887 0.28193-0.19942 0.38374-0.20038 0.29591-0.0028 0.80682-0.2767 1.1093-0.59459 0.25262-0.2655 0.52136-0.39974 0.8225-0.4047z" fill="#b2ebf2" stroke-width=".69596"/></svg>
