<svg style="enable-background:new 0 0 200 200" version="1.1" viewBox="0 0 200 200" xml:space="preserve" xmlns="http://www.w3.org/2000/svg"><style type="text/css">
	.st0{fill:url(#SVGID_1_);}
	.st1{fill:url(#SVGID_2_);}
	.st2{fill:url(#SVGID_3_);}
	.st3{fill:url(#SVGID_4_);}
	.st4{fill:url(#SVGID_5_);}
	.st5{fill:url(#SVGID_6_);}
</style><g><linearGradient id="SVGID_1_" x1="72.428" x2="99.994" y1="880.55" y2="880.55" gradientTransform="translate(0 -852)" gradientUnits="userSpaceOnUse"><stop style="stop-color:#EEA831" offset="0"/><stop style="stop-color:#FFC929" offset="1"/></linearGradient><linearGradient id="SVGID_2_" x1="100" x2="163.3" y1="942.7" y2="942.7" gradientTransform="translate(0 -852)" gradientUnits="userSpaceOnUse"><stop style="stop-color:#B32629" offset="0"/><stop style="stop-color:#8C1E21" offset=".5834"/><stop style="stop-color:#7A1A1D" offset="1"/></linearGradient><linearGradient id="SVGID_3_" x1="100" x2="127.57" y1="880.55" y2="880.55" gradientTransform="translate(0 -852)" gradientUnits="userSpaceOnUse"><stop style="stop-color:#E8A333" offset="0"/><stop style="stop-color:#C68931" offset=".6121"/><stop style="stop-color:#AB762F" offset="1"/></linearGradient><linearGradient id="SVGID_4_" x1="100" x2="199" y1="1004.8" y2="1004.8" gradientTransform="translate(0 -852)" gradientUnits="userSpaceOnUse"><stop style="stop-color:#B32629" offset="0"/><stop style="stop-color:#8C1E21" offset=".5834"/><stop style="stop-color:#7A1A1D" offset="1"/></linearGradient><linearGradient id="SVGID_5_" x1="1" x2="100" y1="1004.8" y2="1004.8" gradientTransform="translate(0 -852)" gradientUnits="userSpaceOnUse"><stop style="stop-color:#AE2524" offset="0"/><stop style="stop-color:#D01D19" offset=".5629"/><stop style="stop-color:#ED1913" offset="1"/></linearGradient><linearGradient id="SVGID_6_" x1="36.7" x2="100" y1="942.7" y2="942.7" gradientTransform="translate(0 -852)" gradientUnits="userSpaceOnUse"><stop style="stop-color:#AE2524" offset="0"/><stop style="stop-color:#D01D19" offset=".5629"/><stop style="stop-color:#ED1913" offset="1"/></linearGradient><g transform="translate(9.322 -9.322)"><polygon class="st0" transform="matrix(.90584 0 0 .90584 .094162 18.738)" points="100 56.1 100 1 72.4 41.8" style="fill:#fbc02d"/><polygon class="st1" transform="matrix(.90584 0 0 .90584 .094162 18.738)" points="100 127.6 163.3 94.6 135.7 53.8 100 72.4" style="fill:#b71c1c"/><polygon class="st2" transform="matrix(.90584 0 0 .90584 .094162 18.738)" points="100 1 100 56.1 127.6 41.8" style="fill:#f9a825"/><polygon class="st3" transform="matrix(.90584 0 0 .90584 .094162 18.738)" points="100 143.9 100 199 199 147.5 171.4 106.7" style="fill:#b71c1c"/><polygon class="st4" transform="matrix(.90584 0 0 .90584 .094162 18.738)" points="100 143.9 28.6 106.7 1 147.5 100 199" style="fill:#e53935"/><polygon class="st5" transform="matrix(.90584 0 0 .90584 .094162 18.738)" points="100 127.6 100 72.4 64.3 53.8 36.7 94.6" style="fill:#e53935"/></g></g></svg>
