<?xml version="1.0" standalone="no"?><!DOCTYPE svg PUBLIC "-//W3C//DTD SVG 1.1//EN" "http://www.w3.org/Graphics/SVG/1.1/DTD/svg11.dtd"><svg t="1558590683767" class="icon" style="" viewBox="0 0 1310 1024" version="1.1" xmlns="http://www.w3.org/2000/svg" p-id="1055" xmlns:xlink="http://www.w3.org/1999/xlink" width="255.859375" height="200"><defs><style type="text/css"></style></defs><path d="M587.776 114.688L425.984 327.68l399.36-88.064z" fill="#E0E0E0" p-id="1056"></path><path d="M587.776 114.688L425.984 327.68l274.432-59.392z" fill="#F0EFEF" p-id="1057"></path><path d="M587.776 114.688L425.984 327.68l153.6-34.816zM628.736 333.824l-282.624 131.072 63.488 176.128 86.016-75.776 6.144-4.096 139.264-122.88-126.976 147.456H757.76l26.624-192.512-63.488-71.68z" fill="#FFFFFF" p-id="1058"></path><path d="M641.024 438.272l-126.976 147.456H757.76l26.624-192.512-63.488-71.68-26.624 47.104-14.336 20.48z" fill="#F0EFEF" p-id="1059"></path><path d="M641.024 438.272l-126.976 147.456H757.76l26.624-192.512-63.488-71.68-26.624 47.104-14.336 20.48z" fill="#E0E0E0" p-id="1060"></path><path d="M641.024 438.272l-126.976 147.456h159.744l63.488-184.32-16.384-79.872-71.68 10.24z" fill="#F0EFEF" p-id="1061"></path><path d="M444.416 641.024h233.472l-61.44 63.488 149.504 196.608H333.824v-151.552z" fill="#FFFFFF" p-id="1062"></path><path d="M569.344 641.024h108.544l-61.44 63.488 149.504 196.608H460.8v-151.552z" fill="#F0EFEF" p-id="1063"></path><path d="M696.32 641.024h61.44l26.624 88.064L1064.96 905.216l-247.808 4.096-167.936-204.8z" fill="#E0E0E0" p-id="1064"></path><path d="M245.76 497.664l14.336-43.008h45.056l-20.48 67.584zM288.768 538.624l28.672-94.208 32.768-6.144-38.912 122.88zM331.776 522.24l8.192-38.912 546.816 98.304 90.112 83.968z" fill="#F0EFEF" p-id="1065"></path><path d="M331.776 522.24l8.192-38.912 546.816 98.304 90.112 83.968z" fill="#FFFFFF" p-id="1066"></path><path d="M331.776 522.24l8.192-38.912L946.176 634.88l30.72 30.72z" fill="#F0EFEF" p-id="1067"></path></svg>